NTR-VarelaRound-75.ufo
<glyph name="exclam" format="1">
  <advance width="211"/>
  <unicode hex="0021"/>
  <outline>
	<contour>
	  <point x="122" y="145"/>
	  <point x="130" y="152"/>
	  <point x="131" y="167" type="curve" smooth="yes"/>
	  <point x="144" y="414" type="line"/>
	  <point x="144" y="488" type="line" smooth="yes"/>
	  <point x="144" y="510"/>
	  <point x="128" y="527"/>
	  <point x="106" y="527" type="curve" smooth="yes"/>
	  <point x="84" y="527"/>
	  <point x="67" y="510"/>
	  <point x="67" y="488" type="curve" smooth="yes"/>
	  <point x="67" y="414" type="line"/>
	  <point x="80" y="167" type="line" smooth="yes"/>
	  <point x="81" y="152"/>
	  <point x="90" y="145"/>
	  <point x="106" y="145" type="curve" smooth="yes"/>
	</contour>
	<contour>
	  <point x="131" y="-3"/>
	  <point x="151" y="17"/>
	  <point x="151" y="42" type="curve" smooth="yes"/>
	  <point x="151" y="66"/>
	  <point x="131" y="86"/>
	  <point x="107" y="86" type="curve" smooth="yes"/>
	  <point x="82" y="86"/>
	  <point x="62" y="66"/>
	  <point x="62" y="42" type="curve" smooth="yes"/>
	  <point x="62" y="17"/>
	  <point x="82" y="-3"/>
	  <point x="107" y="-3" type="curve" smooth="yes"/>
	</contour>
  </outline>
</glyph>
<glyph name="quotedbl" format="1">
  <advance width="308"/>
  <unicode hex="0022"/>
  <outline>
	<contour>
	  <point x="237" y="369"/>
	  <point x="245" y="376"/>
	  <point x="248" y="390" type="curve"/>
	  <point x="248" y="397"/>
	  <point x="251" y="406"/>
	  <point x="253" y="417" type="curve" smooth="yes"/>
	  <point x="255" y="428"/>
	  <point x="257" y="440"/>
	  <point x="259" y="452" type="curve"/>
	  <point x="262" y="476"/>
	  <point x="263" y="495"/>
	  <point x="263" y="520" type="curve" smooth="yes"/>
	  <point x="263" y="544"/>
	  <point x="245" y="560"/>
	  <point x="225" y="560" type="curve" smooth="yes"/>
	  <point x="205" y="560"/>
	  <point x="187" y="544"/>
	  <point x="187" y="520" type="curve" smooth="yes"/>
	  <point x="187" y="507"/>
	  <point x="188" y="496"/>
	  <point x="188" y="485" type="curve" smooth="yes"/>
	  <point x="190" y="464"/>
	  <point x="194" y="440"/>
	  <point x="198" y="417" type="curve" smooth="yes"/>
	  <point x="200" y="406"/>
	  <point x="202" y="397"/>
	  <point x="203" y="390" type="curve"/>
	  <point x="206" y="377"/>
	  <point x="213" y="369"/>
	  <point x="225" y="369" type="curve" smooth="yes"/>
	</contour>
	<contour>
	  <point x="95" y="369"/>
	  <point x="103" y="376"/>
	  <point x="105" y="390" type="curve"/>
	  <point x="108" y="403"/>
	  <point x="113" y="428"/>
	  <point x="117" y="452" type="curve" smooth="yes"/>
	  <point x="120" y="476"/>
	  <point x="122" y="495"/>
	  <point x="122" y="520" type="curve" smooth="yes"/>
	  <point x="122" y="544"/>
	  <point x="104" y="560"/>
	  <point x="83" y="560" type="curve" smooth="yes"/>
	  <point x="63" y="560"/>
	  <point x="45" y="544"/>
	  <point x="45" y="520" type="curve" smooth="yes"/>
	  <point x="45" y="507"/>
	  <point x="46" y="496"/>
	  <point x="47" y="485" type="curve" smooth="yes"/>
	  <point x="48" y="464"/>
	  <point x="52" y="440"/>
	  <point x="56" y="417" type="curve" smooth="yes"/>
	  <point x="59" y="406"/>
	  <point x="60" y="397"/>
	  <point x="62" y="390" type="curve"/>
	  <point x="64" y="377"/>
	  <point x="71" y="369"/>
	  <point x="83" y="369" type="curve" smooth="yes"/>
	</contour>
  </outline>
</glyph>
<glyph name="numbersign" format="1">
  <advance width="459"/>
  <unicode hex="0023"/>
  <outline>
	<contour>
	  <point x="134" y="-4"/>
	  <point x="143" y="7"/>
	  <point x="146" y="18" type="curve"/>
	  <point x="164" y="137" type="line"/>
	  <point x="260" y="137" type="line"/>
	  <point x="248" y="62"/>
	  <point x="242" y="23"/>
	  <point x="242" y="18" type="curve" smooth="yes"/>
	  <point x="242" y="9"/>
	  <point x="254" y="-4"/>
	  <point x="268" y="-4" type="curve" smooth="yes"/>
	  <point x="282" y="-4"/>
	  <point x="292" y="7"/>
	  <point x="294" y="18" type="curve"/>
	  <point x="313" y="137" type="line"/>
	  <point x="379" y="137" type="line" smooth="yes"/>
	  <point x="393" y="137"/>
	  <point x="405" y="149"/>
	  <point x="405" y="163" type="curve" smooth="yes"/>
	  <point x="405" y="177"/>
	  <point x="393" y="189"/>
	  <point x="379" y="189" type="curve" smooth="yes"/>
	  <point x="321" y="189" type="line"/>
	  <point x="339" y="303" type="line"/>
	  <point x="405" y="303" type="line" smooth="yes"/>
	  <point x="419" y="303"/>
	  <point x="431" y="315"/>
	  <point x="431" y="329" type="curve" smooth="yes"/>
	  <point x="431" y="344"/>
	  <point x="419" y="356"/>
	  <point x="405" y="356" type="curve" smooth="yes"/>
	  <point x="347" y="356" type="line"/>
	  <point x="358" y="419" type="line" smooth="yes"/>
	  <point x="360" y="434"/>
	  <point x="362" y="445"/>
	  <point x="363" y="452" type="curve" smooth="yes"/>
	  <point x="364" y="459"/>
	  <point x="365" y="464"/>
	  <point x="365" y="466" type="curve"/>
	  <point x="365" y="467"/>
	  <point x="365" y="470"/>
	  <point x="365" y="474" type="curve" smooth="yes"/>
	  <point x="365" y="482"/>
	  <point x="355" y="495"/>
	  <point x="340" y="495" type="curve" smooth="yes"/>
	  <point x="325" y="495"/>
	  <point x="315" y="485"/>
	  <point x="313" y="474" type="curve"/>
	  <point x="294" y="356" type="line"/>
	  <point x="199" y="356" type="line"/>
	  <point x="209" y="419" type="line" smooth="yes"/>
	  <point x="212" y="434"/>
	  <point x="214" y="445"/>
	  <point x="215" y="452" type="curve" smooth="yes"/>
	  <point x="215" y="459"/>
	  <point x="216" y="464"/>
	  <point x="217" y="466" type="curve"/>
	  <point x="217" y="467"/>
	  <point x="217" y="470"/>
	  <point x="217" y="474" type="curve" smooth="yes"/>
	  <point x="217" y="482"/>
	  <point x="206" y="495"/>
	  <point x="191" y="495" type="curve" smooth="yes"/>
	  <point x="176" y="495"/>
	  <point x="167" y="485"/>
	  <point x="164" y="474" type="curve"/>
	  <point x="146" y="356" type="line"/>
	  <point x="80" y="356" type="line" smooth="yes"/>
	  <point x="65" y="356"/>
	  <point x="53" y="344"/>
	  <point x="53" y="329" type="curve" smooth="yes"/>
	  <point x="53" y="315"/>
	  <point x="65" y="303"/>
	  <point x="80" y="303" type="curve" smooth="yes"/>
	  <point x="137" y="303" type="line"/>
	  <point x="119" y="189" type="line"/>
	  <point x="53" y="189" type="line" smooth="yes"/>
	  <point x="39" y="189"/>
	  <point x="27" y="177"/>
	  <point x="27" y="163" type="curve" smooth="yes"/>
	  <point x="27" y="149"/>
	  <point x="39" y="137"/>
	  <point x="53" y="137" type="curve" smooth="yes"/>
	  <point x="111" y="137" type="line"/>
	  <point x="99" y="62"/>
	  <point x="93" y="23"/>
	  <point x="93" y="18" type="curve" smooth="yes"/>
	  <point x="93" y="9"/>
	  <point x="105" y="-4"/>
	  <point x="119" y="-4" type="curve" smooth="yes"/>
	</contour>
	<contour>
	  <point x="191" y="303" type="line"/>
	  <point x="286" y="303" type="line"/>
	  <point x="268" y="189" type="line"/>
	  <point x="173" y="189" type="line"/>
	</contour>
  </outline>
</glyph>
<glyph name="dollar" format="1">
  <advance width="459"/>
  <unicode hex="0024"/>
  <outline>
	<contour>
	  <point x="243" y="-83"/>
	  <point x="251" y="-76"/>
	  <point x="251" y="-66" type="curve" smooth="yes"/>
	  <point x="251" y="-8" type="line"/>
	  <point x="358" y="-2"/>
	  <point x="427" y="58"/>
	  <point x="427" y="139" type="curve" smooth="yes"/>
	  <point x="427" y="186"/>
	  <point x="408" y="222"/>
	  <point x="371" y="247" type="curve" smooth="yes"/>
	  <point x="337" y="269"/>
	  <point x="293" y="281"/>
	  <point x="251" y="290" type="curve"/>
	  <point x="251" y="469" type="line"/>
	  <point x="290" y="468"/>
	  <point x="324" y="462"/>
	  <point x="355" y="452" type="curve" smooth="yes"/>
	  <point x="365" y="448"/>
	  <point x="374" y="446"/>
	  <point x="380" y="446" type="curve" smooth="yes"/>
	  <point x="392" y="446"/>
	  <point x="405" y="461"/>
	  <point x="405" y="476" type="curve" smooth="yes"/>
	  <point x="405" y="491"/>
	  <point x="398" y="501"/>
	  <point x="384" y="506" type="curve" smooth="yes"/>
	  <point x="346" y="521"/>
	  <point x="301" y="529"/>
	  <point x="251" y="531" type="curve"/>
	  <point x="251" y="589" type="line" smooth="yes"/>
	  <point x="251" y="599"/>
	  <point x="243" y="606"/>
	  <point x="233" y="606" type="curve" smooth="yes"/>
	  <point x="224" y="606"/>
	  <point x="217" y="599"/>
	  <point x="217" y="589" type="curve" smooth="yes"/>
	  <point x="217" y="530" type="line"/>
	  <point x="161" y="527"/>
	  <point x="118" y="511"/>
	  <point x="86" y="482" type="curve" smooth="yes"/>
	  <point x="56" y="454"/>
	  <point x="41" y="419"/>
	  <point x="41" y="374" type="curve" smooth="yes"/>
	  <point x="41" y="329"/>
	  <point x="62" y="297"/>
	  <point x="103" y="270" type="curve" smooth="yes"/>
	  <point x="123" y="257"/>
	  <point x="161" y="242"/>
	  <point x="217" y="228" type="curve"/>
	  <point x="217" y="56" type="line"/>
	  <point x="167" y="58"/>
	  <point x="124" y="66"/>
	  <point x="89" y="82" type="curve" smooth="yes"/>
	  <point x="79" y="86"/>
	  <point x="70" y="89"/>
	  <point x="63" y="89" type="curve" smooth="yes"/>
	  <point x="48" y="89"/>
	  <point x="35" y="76"/>
	  <point x="35" y="55" type="curve" smooth="yes"/>
	  <point x="35" y="44"/>
	  <point x="42" y="35"/>
	  <point x="56" y="29" type="curve" smooth="yes"/>
	  <point x="107" y="7"/>
	  <point x="161" y="-5"/>
	  <point x="217" y="-8" type="curve"/>
	  <point x="217" y="-66" type="line" smooth="yes"/>
	  <point x="217" y="-77"/>
	  <point x="222" y="-83"/>
	  <point x="233" y="-83" type="curve" smooth="yes"/>
	</contour>
	<contour>
	  <point x="251" y="220" type="line"/>
	  <point x="287" y="210"/>
	  <point x="313" y="201"/>
	  <point x="327" y="192" type="curve" smooth="yes"/>
	  <point x="347" y="180"/>
	  <point x="359" y="167"/>
	  <point x="359" y="141" type="curve" smooth="yes"/>
	  <point x="359" y="128"/>
	  <point x="356" y="116"/>
	  <point x="351" y="106" type="curve" smooth="yes"/>
	  <point x="335" y="77"/>
	  <point x="302" y="61"/>
	  <point x="251" y="57" type="curve"/>
	</contour>
	<contour>
	  <point x="202" y="302"/>
	  <point x="188" y="306"/>
	  <point x="174" y="311" type="curve" smooth="yes"/>
	  <point x="130" y="326"/>
	  <point x="108" y="350"/>
	  <point x="108" y="383" type="curve" smooth="yes"/>
	  <point x="108" y="433"/>
	  <point x="154" y="461"/>
	  <point x="217" y="467" type="curve"/>
	  <point x="217" y="299" type="line"/>
	</contour>
  </outline>
</glyph>
<glyph name="percent" format="1">
  <advance width="611"/>
  <unicode hex="0025"/>
  <outline>
	<contour>
	  <point x="164" y="-8"/>
	  <point x="170" y="-3"/>
	  <point x="176" y="6" type="curve" smooth="yes"/>
	  <point x="479" y="491" type="line"/>
	  <point x="482" y="497"/>
	  <point x="484" y="503"/>
	  <point x="484" y="509" type="curve" smooth="yes"/>
	  <point x="484" y="521"/>
	  <point x="474" y="530"/>
	  <point x="458" y="530" type="curve" smooth="yes"/>
	  <point x="449" y="530"/>
	  <point x="443" y="527"/>
	  <point x="437" y="518" type="curve" smooth="yes"/>
	  <point x="132" y="30" type="line" smooth="yes"/>
	  <point x="130" y="26"/>
	  <point x="128" y="21"/>
	  <point x="128" y="16" type="curve" smooth="yes"/>
	  <point x="128" y="4"/>
	  <point x="140" y="-8"/>
	  <point x="155" y="-8" type="curve" smooth="yes"/>
	</contour>
	<contour>
	  <point x="230" y="268"/>
	  <point x="274" y="324"/>
	  <point x="274" y="402" type="curve" smooth="yes"/>
	  <point x="274" y="480"/>
	  <point x="230" y="536"/>
	  <point x="153" y="536" type="curve" smooth="yes"/>
	  <point x="133" y="536"/>
	  <point x="116" y="533"/>
	  <point x="101" y="526" type="curve" smooth="yes"/>
	  <point x="55" y="505"/>
	  <point x="32" y="464"/>
	  <point x="32" y="402" type="curve" smooth="yes"/>
	  <point x="32" y="322"/>
	  <point x="77" y="268"/>
	  <point x="153" y="268" type="curve" smooth="yes"/>
	</contour>
	<contour>
	  <point x="108" y="317"/>
	  <point x="85" y="354"/>
	  <point x="85" y="402" type="curve" smooth="yes"/>
	  <point x="85" y="450"/>
	  <point x="108" y="488"/>
	  <point x="153" y="488" type="curve" smooth="yes"/>
	  <point x="198" y="488"/>
	  <point x="221" y="450"/>
	  <point x="221" y="402" type="curve" smooth="yes"/>
	  <point x="221" y="354"/>
	  <point x="198" y="317"/>
	  <point x="153" y="317" type="curve" smooth="yes"/>
	</contour>
	<contour>
	  <point x="535" y="-14"/>
	  <point x="578" y="43"/>
	  <point x="578" y="121" type="curve" smooth="yes"/>
	  <point x="578" y="199"/>
	  <point x="535" y="255"/>
	  <point x="458" y="255" type="curve" smooth="yes"/>
	  <point x="437" y="255"/>
	  <point x="420" y="251"/>
	  <point x="405" y="245" type="curve" smooth="yes"/>
	  <point x="359" y="224"/>
	  <point x="337" y="182"/>
	  <point x="337" y="121" type="curve" smooth="yes"/>
	  <point x="337" y="41"/>
	  <point x="382" y="-14"/>
	  <point x="458" y="-14" type="curve" smooth="yes"/>
	</contour>
	<contour>
	  <point x="413" y="35"/>
	  <point x="389" y="73"/>
	  <point x="389" y="121" type="curve" smooth="yes"/>
	  <point x="389" y="169"/>
	  <point x="413" y="206"/>
	  <point x="458" y="206" type="curve" smooth="yes"/>
	  <point x="503" y="206"/>
	  <point x="526" y="169"/>
	  <point x="526" y="121" type="curve" smooth="yes"/>
	  <point x="526" y="73"/>
	  <point x="503" y="35"/>
	  <point x="458" y="35" type="curve" smooth="yes"/>
	</contour>
  </outline>
</glyph>
<glyph name="ampersand" format="1">
  <advance width="549"/>
  <unicode hex="0026"/>
  <outline>
	<contour>
	  <point x="294" y="-8"/>
	  <point x="345" y="12"/>
	  <point x="391" y="51" type="curve"/>
	  <point x="441" y="3" type="line"/>
	  <point x="448" y="-3"/>
	  <point x="455" y="-6"/>
	  <point x="465" y="-6" type="curve" smooth="yes"/>
	  <point x="484" y="-6"/>
	  <point x="495" y="8"/>
	  <point x="495" y="26" type="curve" smooth="yes"/>
	  <point x="495" y="34"/>
	  <point x="491" y="42"/>
	  <point x="483" y="49" type="curve"/>
	  <point x="433" y="97" type="line"/>
	  <point x="459" y="134"/>
	  <point x="473" y="161"/>
	  <point x="473" y="176" type="curve" smooth="yes"/>
	  <point x="473" y="191"/>
	  <point x="458" y="204"/>
	  <point x="443" y="204" type="curve" smooth="yes"/>
	  <point x="428" y="204"/>
	  <point x="419" y="200"/>
	  <point x="408" y="176" type="curve" smooth="yes"/>
	  <point x="403" y="165"/>
	  <point x="395" y="152"/>
	  <point x="387" y="140" type="curve"/>
	  <point x="230" y="287" type="line" smooth="yes"/>
	  <point x="200" y="315"/>
	  <point x="181" y="335"/>
	  <point x="173" y="348" type="curve" smooth="yes"/>
	  <point x="161" y="365"/>
	  <point x="155" y="379"/>
	  <point x="155" y="409" type="curve" smooth="yes"/>
	  <point x="155" y="424"/>
	  <point x="162" y="438"/>
	  <point x="176" y="451" type="curve" smooth="yes"/>
	  <point x="190" y="464"/>
	  <point x="207" y="473"/>
	  <point x="243" y="473" type="curve" smooth="yes"/>
	  <point x="261" y="473"/>
	  <point x="281" y="467"/>
	  <point x="302" y="455" type="curve" smooth="yes"/>
	  <point x="310" y="452"/>
	  <point x="317" y="449"/>
	  <point x="323" y="449" type="curve" smooth="yes"/>
	  <point x="334" y="449"/>
	  <point x="346" y="461"/>
	  <point x="346" y="478" type="curve" smooth="yes"/>
	  <point x="346" y="486"/>
	  <point x="341" y="493"/>
	  <point x="332" y="498" type="curve"/>
	  <point x="299" y="520"/>
	  <point x="266" y="531"/>
	  <point x="233" y="531" type="curve" smooth="yes"/>
	  <point x="190" y="531"/>
	  <point x="156" y="518"/>
	  <point x="130" y="492" type="curve" smooth="yes"/>
	  <point x="106" y="468"/>
	  <point x="92" y="437"/>
	  <point x="92" y="395" type="curve" smooth="yes"/>
	  <point x="92" y="353"/>
	  <point x="112" y="323"/>
	  <point x="138" y="291" type="curve"/>
	  <point x="98" y="267"/>
	  <point x="53" y="215"/>
	  <point x="53" y="147" type="curve" smooth="yes"/>
	  <point x="53" y="63"/>
	  <point x="114" y="-8"/>
	  <point x="237" y="-8" type="curve" smooth="yes"/>
	</contour>
	<contour>
	  <point x="197" y="50"/>
	  <point x="172" y="59"/>
	  <point x="151" y="77" type="curve" smooth="yes"/>
	  <point x="131" y="92"/>
	  <point x="118" y="117"/>
	  <point x="118" y="144" type="curve" smooth="yes"/>
	  <point x="118" y="158"/>
	  <point x="119" y="170"/>
	  <point x="123" y="180" type="curve" smooth="yes"/>
	  <point x="133" y="209"/>
	  <point x="152" y="232"/>
	  <point x="179" y="249" type="curve"/>
	  <point x="347" y="92" type="line"/>
	  <point x="317" y="69"/>
	  <point x="282" y="50"/>
	  <point x="225" y="50" type="curve" smooth="yes"/>
	</contour>
  </outline>
</glyph>
<glyph name="quotesingle" format="1">
  <advance width="179"/>
  <unicode hex="0027"/>
  <outline>
	<contour>
	  <point x="75" y="358"/>
	  <point x="80" y="359"/>
	  <point x="82" y="362" type="curve"/>
	  <point x="118" y="383"/>
	  <point x="143" y="418"/>
	  <point x="143" y="471" type="curve" smooth="yes"/>
	  <point x="143" y="515" type="line" smooth="yes"/>
	  <point x="143" y="539"/>
	  <point x="125" y="557"/>
	  <point x="101" y="557" type="curve" smooth="yes"/>
	  <point x="94" y="557" type="line" smooth="yes"/>
	  <point x="71" y="557"/>
	  <point x="52" y="539"/>
	  <point x="52" y="515" type="curve" smooth="yes"/>
	  <point x="52" y="511" type="line" smooth="yes"/>
	  <point x="52" y="488"/>
	  <point x="71" y="469"/>
	  <point x="94" y="469" type="curve" smooth="yes"/>
	  <point x="97" y="469" type="line"/>
	  <point x="97" y="428"/>
	  <point x="80" y="412"/>
	  <point x="59" y="399" type="curve" smooth="yes"/>
	  <point x="51" y="395"/>
	  <point x="47" y="389"/>
	  <point x="47" y="382" type="curve" smooth="yes"/>
	  <point x="47" y="368"/>
	  <point x="56" y="358"/>
	  <point x="69" y="358" type="curve" smooth="yes"/>
	</contour>
  </outline>
</glyph>
<glyph name="parenleft" format="1">
  <advance width="234"/>
  <unicode hex="0028"/>
  <outline>
	<contour>
	  <point x="185" y="-116"/>
	  <point x="199" y="-103"/>
	  <point x="199" y="-89" type="curve" smooth="yes"/>
	  <point x="199" y="-82"/>
	  <point x="197" y="-75"/>
	  <point x="194" y="-70" type="curve" smooth="yes"/>
	  <point x="136" y="29"/>
	  <point x="107" y="128"/>
	  <point x="107" y="230" type="curve" smooth="yes"/>
	  <point x="107" y="332"/>
	  <point x="136" y="432"/>
	  <point x="194" y="530" type="curve" smooth="yes"/>
	  <point x="197" y="536"/>
	  <point x="199" y="542"/>
	  <point x="199" y="549" type="curve" smooth="yes"/>
	  <point x="199" y="563"/>
	  <point x="185" y="576"/>
	  <point x="170" y="576" type="curve" smooth="yes"/>
	  <point x="155" y="576"/>
	  <point x="151" y="571"/>
	  <point x="144" y="563" type="curve" smooth="yes"/>
	  <point x="72" y="476"/>
	  <point x="38" y="356"/>
	  <point x="38" y="230" type="curve" smooth="yes"/>
	  <point x="38" y="104"/>
	  <point x="72" y="-16"/>
	  <point x="144" y="-102" type="curve" smooth="yes"/>
	  <point x="151" y="-110"/>
	  <point x="155" y="-116"/>
	  <point x="170" y="-116" type="curve" smooth="yes"/>
	</contour>
  </outline>
</glyph>
<glyph name="parenright" format="1">
  <advance width="234"/>
  <unicode hex="0029"/>
  <outline>
	<contour>
	  <point x="80" y="-116"/>
	  <point x="84" y="-110"/>
	  <point x="91" y="-102" type="curve" smooth="yes"/>
	  <point x="163" y="-16"/>
	  <point x="197" y="104"/>
	  <point x="197" y="230" type="curve" smooth="yes"/>
	  <point x="197" y="356"/>
	  <point x="163" y="476"/>
	  <point x="91" y="563" type="curve" smooth="yes"/>
	  <point x="84" y="571"/>
	  <point x="80" y="576"/>
	  <point x="65" y="576" type="curve" smooth="yes"/>
	  <point x="50" y="576"/>
	  <point x="36" y="563"/>
	  <point x="36" y="549" type="curve" smooth="yes"/>
	  <point x="36" y="542"/>
	  <point x="38" y="536"/>
	  <point x="41" y="530" type="curve" smooth="yes"/>
	  <point x="99" y="432"/>
	  <point x="128" y="332"/>
	  <point x="128" y="230" type="curve" smooth="yes"/>
	  <point x="128" y="128"/>
	  <point x="99" y="29"/>
	  <point x="41" y="-70" type="curve" smooth="yes"/>
	  <point x="38" y="-75"/>
	  <point x="36" y="-82"/>
	  <point x="36" y="-89" type="curve" smooth="yes"/>
	  <point x="36" y="-103"/>
	  <point x="50" y="-116"/>
	  <point x="65" y="-116" type="curve" smooth="yes"/>
	</contour>
  </outline>
</glyph>
<glyph name="asterisk" format="1">
  <advance width="313"/>
  <unicode hex="002A"/>
  <outline>
	<contour>
	  <point x="167" y="288"/>
	  <point x="179" y="299"/>
	  <point x="179" y="305" type="curve" smooth="yes"/>
	  <point x="179" y="309"/>
	  <point x="179" y="311"/>
	  <point x="179" y="312" type="curve"/>
	  <point x="178" y="313"/>
	  <point x="178" y="316"/>
	  <point x="177" y="321" type="curve" smooth="yes"/>
	  <point x="173" y="345" type="line" smooth="yes"/>
	  <point x="172" y="356"/>
	  <point x="170" y="371"/>
	  <point x="167" y="389" type="curve"/>
	  <point x="182" y="377"/>
	  <point x="195" y="367"/>
	  <point x="207" y="357" type="curve" smooth="yes"/>
	  <point x="219" y="347"/>
	  <point x="226" y="341"/>
	  <point x="227" y="341" type="curve"/>
	  <point x="239" y="332"/>
	  <point x="263" y="336"/>
	  <point x="263" y="363" type="curve" smooth="yes"/>
	  <point x="263" y="370"/>
	  <point x="259" y="374"/>
	  <point x="252" y="378" type="curve"/>
	  <point x="177" y="407" type="line"/>
	  <point x="195" y="414"/>
	  <point x="209" y="420"/>
	  <point x="219" y="424" type="curve" smooth="yes"/>
	  <point x="229" y="428"/>
	  <point x="236" y="430"/>
	  <point x="242" y="432" type="curve"/>
	  <point x="246" y="434"/>
	  <point x="249" y="435"/>
	  <point x="250" y="436" type="curve" smooth="yes"/>
	  <point x="251" y="437"/>
	  <point x="251" y="437"/>
	  <point x="252" y="437" type="curve"/>
	  <point x="259" y="441"/>
	  <point x="263" y="449"/>
	  <point x="263" y="458" type="curve" smooth="yes"/>
	  <point x="263" y="478"/>
	  <point x="241" y="482"/>
	  <point x="230" y="476" type="curve"/>
	  <point x="230" y="476"/>
	  <point x="209" y="459"/>
	  <point x="167" y="425" type="curve"/>
	  <point x="170" y="444"/>
	  <point x="172" y="459"/>
	  <point x="173" y="470" type="curve" smooth="yes"/>
	  <point x="177" y="494" type="line" smooth="yes"/>
	  <point x="178" y="499"/>
	  <point x="178" y="502"/>
	  <point x="179" y="503" type="curve"/>
	  <point x="179" y="503"/>
	  <point x="179" y="506"/>
	  <point x="179" y="509" type="curve" smooth="yes"/>
	  <point x="179" y="516"/>
	  <point x="167" y="527"/>
	  <point x="156" y="527" type="curve" smooth="yes"/>
	  <point x="145" y="527"/>
	  <point x="134" y="518"/>
	  <point x="134" y="505" type="curve" smooth="yes"/>
	  <point x="134" y="503" type="line" smooth="yes"/>
	  <point x="134" y="502"/>
	  <point x="137" y="476"/>
	  <point x="146" y="425" type="curve"/>
	  <point x="131" y="437"/>
	  <point x="116" y="449"/>
	  <point x="104" y="460" type="curve"/>
	  <point x="77" y="481"/>
	  <point x="77" y="482"/>
	  <point x="66" y="478" type="curve" smooth="yes"/>
	  <point x="55" y="474"/>
	  <point x="50" y="466"/>
	  <point x="50" y="452" type="curve" smooth="yes"/>
	  <point x="50" y="446"/>
	  <point x="53" y="441"/>
	  <point x="60" y="437" type="curve"/>
	  <point x="135" y="407" type="line"/>
	  <point x="117" y="401"/>
	  <point x="103" y="395"/>
	  <point x="93" y="392" type="curve" smooth="yes"/>
	  <point x="83" y="388"/>
	  <point x="76" y="385"/>
	  <point x="71" y="383" type="curve"/>
	  <point x="66" y="380"/>
	  <point x="63" y="380"/>
	  <point x="62" y="379" type="curve" smooth="yes"/>
	  <point x="62" y="378"/>
	  <point x="61" y="378"/>
	  <point x="60" y="378" type="curve"/>
	  <point x="53" y="374"/>
	  <point x="50" y="368"/>
	  <point x="50" y="358" type="curve" smooth="yes"/>
	  <point x="50" y="348"/>
	  <point x="55" y="341"/>
	  <point x="66" y="338" type="curve"/>
	  <point x="71" y="335"/>
	  <point x="76" y="335"/>
	  <point x="79" y="337" type="curve"/>
	  <point x="81" y="338"/>
	  <point x="104" y="356"/>
	  <point x="146" y="389" type="curve"/>
	  <point x="143" y="371"/>
	  <point x="140" y="353"/>
	  <point x="137" y="338" type="curve" smooth="yes"/>
	  <point x="135" y="323"/>
	  <point x="134" y="314"/>
	  <point x="134" y="312" type="curve" smooth="yes"/>
	  <point x="134" y="305" type="line" smooth="yes"/>
	  <point x="134" y="299"/>
	  <point x="145" y="288"/>
	  <point x="156" y="288" type="curve" smooth="yes"/>
	</contour>
  </outline>
</glyph>
<glyph name="plus" format="1">
  <advance width="422"/>
  <unicode hex="002B"/>
  <outline>
	<contour>
	  <point x="228" y="78"/>
	  <point x="240" y="90"/>
	  <point x="240" y="107" type="curve" smooth="yes"/>
	  <point x="240" y="230" type="line"/>
	  <point x="362" y="230" type="line" smooth="yes"/>
	  <point x="380" y="230"/>
	  <point x="392" y="242"/>
	  <point x="392" y="259" type="curve" smooth="yes"/>
	  <point x="392" y="276"/>
	  <point x="380" y="288"/>
	  <point x="362" y="288" type="curve" smooth="yes"/>
	  <point x="240" y="288" type="line"/>
	  <point x="240" y="411" type="line" smooth="yes"/>
	  <point x="240" y="428"/>
	  <point x="228" y="440"/>
	  <point x="211" y="440" type="curve" smooth="yes"/>
	  <point x="194" y="440"/>
	  <point x="182" y="428"/>
	  <point x="182" y="411" type="curve" smooth="yes"/>
	  <point x="182" y="288" type="line"/>
	  <point x="59" y="288" type="line" smooth="yes"/>
	  <point x="41" y="288"/>
	  <point x="30" y="276"/>
	  <point x="30" y="259" type="curve" smooth="yes"/>
	  <point x="30" y="242"/>
	  <point x="41" y="230"/>
	  <point x="59" y="230" type="curve" smooth="yes"/>
	  <point x="182" y="230" type="line"/>
	  <point x="182" y="107" type="line" smooth="yes"/>
	  <point x="182" y="90"/>
	  <point x="194" y="78"/>
	  <point x="211" y="78" type="curve" smooth="yes"/>
	</contour>
  </outline>
</glyph>
<glyph name="comma" format="1">
  <advance width="195"/>
  <unicode hex="002C"/>
  <outline>
	<contour>
	  <point x="75" y="-113"/>
	  <point x="80" y="-112"/>
	  <point x="82" y="-110" type="curve"/>
	  <point x="118" y="-88"/>
	  <point x="143" y="-53"/>
	  <point x="143" y="0" type="curve" smooth="yes"/>
	  <point x="143" y="44" type="line" smooth="yes"/>
	  <point x="143" y="68"/>
	  <point x="125" y="86"/>
	  <point x="101" y="86" type="curve" smooth="yes"/>
	  <point x="94" y="86" type="line" smooth="yes"/>
	  <point x="71" y="86"/>
	  <point x="52" y="68"/>
	  <point x="52" y="44" type="curve" smooth="yes"/>
	  <point x="52" y="40" type="line" smooth="yes"/>
	  <point x="52" y="17"/>
	  <point x="71" y="-2"/>
	  <point x="94" y="-2" type="curve" smooth="yes"/>
	  <point x="97" y="-2" type="line"/>
	  <point x="97" y="-44"/>
	  <point x="80" y="-59"/>
	  <point x="59" y="-72" type="curve" smooth="yes"/>
	  <point x="51" y="-77"/>
	  <point x="47" y="-83"/>
	  <point x="47" y="-89" type="curve" smooth="yes"/>
	  <point x="47" y="-104"/>
	  <point x="56" y="-113"/>
	  <point x="69" y="-113" type="curve" smooth="yes"/>
	</contour>
  </outline>
</glyph>
<glyph name="hyphen" format="1">
  <advance width="306"/>
  <unicode hex="002D"/>
  <outline>
	<contour>
	  <point x="224" y="180" type="line" smooth="yes"/>
	  <point x="241" y="180"/>
	  <point x="254" y="193"/>
	  <point x="254" y="210" type="curve" smooth="yes"/>
	  <point x="254" y="227"/>
	  <point x="241" y="241"/>
	  <point x="224" y="241" type="curve" smooth="yes"/>
	  <point x="82" y="241" type="line" smooth="yes"/>
	  <point x="65" y="241"/>
	  <point x="52" y="227"/>
	  <point x="52" y="210" type="curve" smooth="yes"/>
	  <point x="52" y="193"/>
	  <point x="65" y="180"/>
	  <point x="82" y="180" type="curve" smooth="yes"/>
	</contour>
  </outline>
</glyph>
<glyph name="period" format="1">
  <advance width="195"/>
  <unicode hex="002E"/>
  <outline>
	<contour>
	  <point x="101" y="-2" type="line" smooth="yes"/>
	  <point x="125" y="-2"/>
	  <point x="143" y="17"/>
	  <point x="143" y="40" type="curve" smooth="yes"/>
	  <point x="143" y="44" type="line" smooth="yes"/>
	  <point x="143" y="68"/>
	  <point x="125" y="86"/>
	  <point x="101" y="86" type="curve" smooth="yes"/>
	  <point x="94" y="86" type="line" smooth="yes"/>
	  <point x="71" y="86"/>
	  <point x="52" y="68"/>
	  <point x="52" y="44" type="curve" smooth="yes"/>
	  <point x="52" y="40" type="line" smooth="yes"/>
	  <point x="52" y="17"/>
	  <point x="71" y="-2"/>
	  <point x="94" y="-2" type="curve" smooth="yes"/>
	</contour>
  </outline>
</glyph>
<glyph name="slash" format="1">
  <advance width="332"/>
  <unicode hex="002F"/>
  <outline>
	<contour>
	  <point x="82" y="-71"/>
	  <point x="92" y="-65"/>
	  <point x="96" y="-50" type="curve" smooth="yes"/>
	  <point x="295" y="531" type="line"/>
	  <point x="296" y="534"/>
	  <point x="297" y="539"/>
	  <point x="297" y="548" type="curve" smooth="yes"/>
	  <point x="297" y="557"/>
	  <point x="284" y="573"/>
	  <point x="267" y="573" type="curve" smooth="yes"/>
	  <point x="251" y="573"/>
	  <point x="242" y="566"/>
	  <point x="237" y="552" type="curve" smooth="yes"/>
	  <point x="38" y="-29" type="line"/>
	  <point x="37" y="-32"/>
	  <point x="36" y="-38"/>
	  <point x="36" y="-45" type="curve" smooth="yes"/>
	  <point x="36" y="-56"/>
	  <point x="49" y="-71"/>
	  <point x="67" y="-71" type="curve" smooth="yes"/>
	</contour>
  </outline>
</glyph>
<glyph name="zero" format="1">
  <advance width="471"/>
  <unicode hex="0030"/>
  <outline>
	<contour>
	  <point x="367" y="-8"/>
	  <point x="439" y="96"/>
	  <point x="439" y="262" type="curve" smooth="yes"/>
	  <point x="439" y="344"/>
	  <point x="422" y="409"/>
	  <point x="388" y="456" type="curve" smooth="yes"/>
	  <point x="354" y="504"/>
	  <point x="302" y="531"/>
	  <point x="236" y="531" type="curve" smooth="yes"/>
	  <point x="104" y="531"/>
	  <point x="32" y="427"/>
	  <point x="32" y="262" type="curve" smooth="yes"/>
	  <point x="32" y="96"/>
	  <point x="104" y="-8"/>
	  <point x="236" y="-8" type="curve" smooth="yes"/>
	</contour>
	<contour>
	  <point x="148" y="56"/>
	  <point x="101" y="134"/>
	  <point x="101" y="262" type="curve" smooth="yes"/>
	  <point x="101" y="388"/>
	  <point x="147" y="467"/>
	  <point x="236" y="467" type="curve" smooth="yes"/>
	  <point x="324" y="467"/>
	  <point x="371" y="389"/>
	  <point x="371" y="262" type="curve" smooth="yes"/>
	  <point x="371" y="134"/>
	  <point x="323" y="56"/>
	  <point x="236" y="56" type="curve" smooth="yes"/>
	</contour>
  </outline>
</glyph>
<glyph name="one" format="1">
  <advance width="471"/>
  <unicode hex="0031"/>
  <outline>
	<contour>
	  <point x="365" y="0" type="line" smooth="yes"/>
	  <point x="383" y="0"/>
	  <point x="397" y="14"/>
	  <point x="397" y="32" type="curve" smooth="yes"/>
	  <point x="397" y="50"/>
	  <point x="383" y="64"/>
	  <point x="365" y="64" type="curve" smooth="yes"/>
	  <point x="290" y="64" type="line"/>
	  <point x="290" y="488" type="line" smooth="yes"/>
	  <point x="290" y="508"/>
	  <point x="275" y="524"/>
	  <point x="254" y="524" type="curve" smooth="yes"/>
	  <point x="239" y="524" type="line" smooth="yes"/>
	  <point x="232" y="524"/>
	  <point x="224" y="522"/>
	  <point x="218" y="518" type="curve" smooth="yes"/>
	  <point x="116" y="465" type="line" smooth="yes"/>
	  <point x="103" y="458"/>
	  <point x="96" y="449"/>
	  <point x="96" y="438" type="curve" smooth="yes"/>
	  <point x="96" y="414"/>
	  <point x="111" y="402"/>
	  <point x="125" y="402" type="curve" smooth="yes"/>
	  <point x="138" y="402"/>
	  <point x="140" y="404"/>
	  <point x="146" y="407" type="curve"/>
	  <point x="222" y="444" type="line"/>
	  <point x="222" y="64" type="line"/>
	  <point x="133" y="64" type="line" smooth="yes"/>
	  <point x="115" y="64"/>
	  <point x="101" y="50"/>
	  <point x="101" y="32" type="curve" smooth="yes"/>
	  <point x="101" y="14"/>
	  <point x="115" y="0"/>
	  <point x="133" y="0" type="curve" smooth="yes"/>
	</contour>
  </outline>
</glyph>
<glyph name="two" format="1">
  <advance width="471"/>
  <unicode hex="0032"/>
  <outline>
	<contour>
	  <point x="378" y="0" type="line" smooth="yes"/>
	  <point x="396" y="0"/>
	  <point x="410" y="14"/>
	  <point x="410" y="32" type="curve" smooth="yes"/>
	  <point x="410" y="50"/>
	  <point x="396" y="64"/>
	  <point x="378" y="64" type="curve" smooth="yes"/>
	  <point x="117" y="64" type="line"/>
	  <point x="130" y="93"/>
	  <point x="168" y="121"/>
	  <point x="212" y="151" type="curve" smooth="yes"/>
	  <point x="257" y="180"/>
	  <point x="307" y="212"/>
	  <point x="347" y="248" type="curve" smooth="yes"/>
	  <point x="392" y="290"/>
	  <point x="415" y="333"/>
	  <point x="415" y="379" type="curve" smooth="yes"/>
	  <point x="415" y="469"/>
	  <point x="341" y="531"/>
	  <point x="242" y="531" type="curve" smooth="yes"/>
	  <point x="182" y="531"/>
	  <point x="127" y="518"/>
	  <point x="76" y="493" type="curve" smooth="yes"/>
	  <point x="65" y="487"/>
	  <point x="59" y="479"/>
	  <point x="59" y="468" type="curve" smooth="yes"/>
	  <point x="59" y="447"/>
	  <point x="72" y="436"/>
	  <point x="85" y="436" type="curve" smooth="yes"/>
	  <point x="92" y="436"/>
	  <point x="97" y="437"/>
	  <point x="102" y="440" type="curve" smooth="yes"/>
	  <point x="143" y="458"/>
	  <point x="186" y="467"/>
	  <point x="230" y="467" type="curve" smooth="yes"/>
	  <point x="272" y="467"/>
	  <point x="302" y="458"/>
	  <point x="323" y="440" type="curve" smooth="yes"/>
	  <point x="341" y="424"/>
	  <point x="349" y="402"/>
	  <point x="349" y="368" type="curve" smooth="yes"/>
	  <point x="349" y="351"/>
	  <point x="341" y="335"/>
	  <point x="327" y="317" type="curve"/>
	  <point x="297" y="284"/>
	  <point x="251" y="252"/>
	  <point x="199" y="220" type="curve" smooth="yes"/>
	  <point x="173" y="204"/>
	  <point x="149" y="187"/>
	  <point x="127" y="169" type="curve" smooth="yes"/>
	  <point x="82" y="133"/>
	  <point x="49" y="92"/>
	  <point x="49" y="39" type="curve" smooth="yes"/>
	  <point x="49" y="16"/>
	  <point x="65" y="0"/>
	  <point x="89" y="0" type="curve" smooth="yes"/>
	</contour>
  </outline>
</glyph>
<glyph name="three" format="1">
  <advance width="471"/>
  <unicode hex="0033"/>
  <outline>
	<contour>
	  <point x="277" y="-8"/>
	  <point x="323" y="5"/>
	  <point x="359" y="29" type="curve" smooth="yes"/>
	  <point x="394" y="53"/>
	  <point x="415" y="89"/>
	  <point x="415" y="137" type="curve" smooth="yes"/>
	  <point x="415" y="160"/>
	  <point x="411" y="180"/>
	  <point x="404" y="196" type="curve" smooth="yes"/>
	  <point x="386" y="234"/>
	  <point x="353" y="260"/>
	  <point x="305" y="271" type="curve"/>
	  <point x="366" y="294"/>
	  <point x="396" y="335"/>
	  <point x="396" y="396" type="curve" smooth="yes"/>
	  <point x="396" y="482"/>
	  <point x="330" y="531"/>
	  <point x="220" y="531" type="curve" smooth="yes"/>
	  <point x="165" y="531"/>
	  <point x="114" y="518"/>
	  <point x="67" y="493" type="curve" smooth="yes"/>
	  <point x="57" y="488"/>
	  <point x="52" y="479"/>
	  <point x="52" y="470" type="curve" smooth="yes"/>
	  <point x="52" y="449"/>
	  <point x="65" y="440"/>
	  <point x="78" y="440" type="curve" smooth="yes"/>
	  <point x="84" y="440"/>
	  <point x="89" y="440"/>
	  <point x="93" y="443" type="curve"/>
	  <point x="130" y="459"/>
	  <point x="168" y="467"/>
	  <point x="209" y="467" type="curve" smooth="yes"/>
	  <point x="290" y="467"/>
	  <point x="328" y="437"/>
	  <point x="328" y="389" type="curve" smooth="yes"/>
	  <point x="328" y="329"/>
	  <point x="276" y="299"/>
	  <point x="173" y="299" type="curve" smooth="yes"/>
	  <point x="169" y="299" type="line" smooth="yes"/>
	  <point x="152" y="299"/>
	  <point x="137" y="284"/>
	  <point x="137" y="267" type="curve" smooth="yes"/>
	  <point x="137" y="250"/>
	  <point x="152" y="236"/>
	  <point x="169" y="236" type="curve" smooth="yes"/>
	  <point x="181" y="236" type="line" smooth="yes"/>
	  <point x="291" y="236"/>
	  <point x="347" y="204"/>
	  <point x="347" y="141" type="curve" smooth="yes"/>
	  <point x="347" y="125"/>
	  <point x="343" y="111"/>
	  <point x="335" y="101" type="curve" smooth="yes"/>
	  <point x="313" y="72"/>
	  <point x="270" y="58"/>
	  <point x="208" y="58" type="curve" smooth="yes"/>
	  <point x="164" y="58"/>
	  <point x="127" y="64"/>
	  <point x="96" y="77" type="curve" smooth="yes"/>
	  <point x="86" y="80"/>
	  <point x="78" y="83"/>
	  <point x="71" y="83" type="curve" smooth="yes"/>
	  <point x="58" y="83"/>
	  <point x="44" y="67"/>
	  <point x="44" y="51" type="curve" smooth="yes"/>
	  <point x="44" y="38"/>
	  <point x="51" y="29"/>
	  <point x="64" y="23" type="curve"/>
	  <point x="113" y="2"/>
	  <point x="166" y="-8"/>
	  <point x="221" y="-8" type="curve" smooth="yes"/>
	</contour>
  </outline>
</glyph>
<glyph name="four" format="1">
  <advance width="471"/>
  <unicode hex="0034"/>
  <outline>
	<contour>
	  <point x="344" y="-4"/>
	  <point x="359" y="11"/>
	  <point x="359" y="30" type="curve" smooth="yes"/>
	  <point x="359" y="132" type="line"/>
	  <point x="416" y="132" type="line" smooth="yes"/>
	  <point x="434" y="132"/>
	  <point x="447" y="145"/>
	  <point x="447" y="162" type="curve" smooth="yes"/>
	  <point x="447" y="179"/>
	  <point x="434" y="193"/>
	  <point x="416" y="193" type="curve" smooth="yes"/>
	  <point x="359" y="193" type="line"/>
	  <point x="359" y="484" type="line" smooth="yes"/>
	  <point x="359" y="508"/>
	  <point x="342" y="527"/>
	  <point x="316" y="527" type="curve" smooth="yes"/>
	  <point x="301" y="527" type="line" smooth="yes"/>
	  <point x="284" y="527"/>
	  <point x="272" y="521"/>
	  <point x="263" y="509" type="curve"/>
	  <point x="28" y="209" type="line" smooth="yes"/>
	  <point x="22" y="201"/>
	  <point x="19" y="192"/>
	  <point x="19" y="182" type="curve" smooth="yes"/>
	  <point x="19" y="175" type="line" smooth="yes"/>
	  <point x="19" y="151"/>
	  <point x="38" y="132"/>
	  <point x="62" y="132" type="curve" smooth="yes"/>
	  <point x="291" y="132" type="line"/>
	  <point x="291" y="30" type="line" smooth="yes"/>
	  <point x="291" y="11"/>
	  <point x="306" y="-4"/>
	  <point x="325" y="-4" type="curve" smooth="yes"/>
	</contour>
	<contour>
	  <point x="291" y="450" type="line"/>
	  <point x="291" y="193" type="line"/>
	  <point x="92" y="193" type="line"/>
	</contour>
  </outline>
</glyph>
<glyph name="five" format="1">
  <advance width="471"/>
  <unicode hex="0035"/>
  <outline>
	<contour>
	  <point x="259" y="-8"/>
	  <point x="289" y="-3"/>
	  <point x="315" y="6" type="curve" smooth="yes"/>
	  <point x="391" y="31"/>
	  <point x="428" y="83"/>
	  <point x="428" y="162" type="curve" smooth="yes"/>
	  <point x="428" y="263"/>
	  <point x="365" y="332"/>
	  <point x="254" y="332" type="curve" smooth="yes"/>
	  <point x="206" y="332"/>
	  <point x="164" y="321"/>
	  <point x="127" y="301" type="curve"/>
	  <point x="151" y="460" type="line"/>
	  <point x="368" y="460" type="line" smooth="yes"/>
	  <point x="386" y="460"/>
	  <point x="401" y="473"/>
	  <point x="401" y="491" type="curve" smooth="yes"/>
	  <point x="401" y="509"/>
	  <point x="386" y="524"/>
	  <point x="368" y="524" type="curve" smooth="yes"/>
	  <point x="128" y="524" type="line" smooth="yes"/>
	  <point x="107" y="524"/>
	  <point x="91" y="509"/>
	  <point x="88" y="486" type="curve"/>
	  <point x="54" y="287" type="line" smooth="yes"/>
	  <point x="53" y="281"/>
	  <point x="53" y="275"/>
	  <point x="53" y="269" type="curve" smooth="yes"/>
	  <point x="53" y="242"/>
	  <point x="76" y="225"/>
	  <point x="97" y="225" type="curve" smooth="yes"/>
	  <point x="107" y="225"/>
	  <point x="118" y="228"/>
	  <point x="128" y="234" type="curve" smooth="yes"/>
	  <point x="164" y="256"/>
	  <point x="206" y="266"/>
	  <point x="252" y="266" type="curve" smooth="yes"/>
	  <point x="313" y="266"/>
	  <point x="360" y="228"/>
	  <point x="360" y="166" type="curve" smooth="yes"/>
	  <point x="360" y="146"/>
	  <point x="356" y="128"/>
	  <point x="350" y="115" type="curve" smooth="yes"/>
	  <point x="331" y="78"/>
	  <point x="285" y="60"/>
	  <point x="214" y="60" type="curve" smooth="yes"/>
	  <point x="174" y="60"/>
	  <point x="137" y="69"/>
	  <point x="102" y="87" type="curve" smooth="yes"/>
	  <point x="92" y="92"/>
	  <point x="83" y="95"/>
	  <point x="76" y="95" type="curve" smooth="yes"/>
	  <point x="61" y="95"/>
	  <point x="48" y="81"/>
	  <point x="48" y="61" type="curve" smooth="yes"/>
	  <point x="48" y="50"/>
	  <point x="53" y="42"/>
	  <point x="63" y="36" type="curve" smooth="yes"/>
	  <point x="109" y="7"/>
	  <point x="163" y="-8"/>
	  <point x="224" y="-8" type="curve" smooth="yes"/>
	</contour>
  </outline>
</glyph>
<glyph name="six" format="1">
  <advance width="471"/>
  <unicode hex="0036"/>
  <outline>
	<contour>
	  <point x="363" y="-8"/>
	  <point x="435" y="66"/>
	  <point x="435" y="163" type="curve" smooth="yes"/>
	  <point x="435" y="216"/>
	  <point x="419" y="259"/>
	  <point x="387" y="291" type="curve" smooth="yes"/>
	  <point x="357" y="322"/>
	  <point x="313" y="339"/>
	  <point x="267" y="339" type="curve" smooth="yes"/>
	  <point x="244" y="339"/>
	  <point x="224" y="337"/>
	  <point x="209" y="333" type="curve" smooth="yes"/>
	  <point x="164" y="322"/>
	  <point x="131" y="302"/>
	  <point x="110" y="273" type="curve"/>
	  <point x="113" y="322"/>
	  <point x="123" y="362"/>
	  <point x="141" y="395" type="curve" smooth="yes"/>
	  <point x="164" y="434"/>
	  <point x="202" y="465"/>
	  <point x="269" y="465" type="curve" smooth="yes"/>
	  <point x="303" y="465"/>
	  <point x="333" y="459"/>
	  <point x="360" y="447" type="curve" smooth="yes"/>
	  <point x="368" y="443"/>
	  <point x="376" y="441"/>
	  <point x="383" y="441" type="curve" smooth="yes"/>
	  <point x="398" y="441"/>
	  <point x="410" y="455"/>
	  <point x="410" y="475" type="curve" smooth="yes"/>
	  <point x="410" y="485"/>
	  <point x="405" y="493"/>
	  <point x="395" y="499" type="curve"/>
	  <point x="365" y="515"/>
	  <point x="327" y="531"/>
	  <point x="254" y="531" type="curve" smooth="yes"/>
	  <point x="182" y="531"/>
	  <point x="125" y="493"/>
	  <point x="92" y="440" type="curve" smooth="yes"/>
	  <point x="58" y="388"/>
	  <point x="44" y="316"/>
	  <point x="44" y="270" type="curve" smooth="yes"/>
	  <point x="44" y="247"/>
	  <point x="45" y="226"/>
	  <point x="47" y="206" type="curve" smooth="yes"/>
	  <point x="58" y="59"/>
	  <point x="136" y="-8"/>
	  <point x="250" y="-8" type="curve" smooth="yes"/>
	</contour>
	<contour>
	  <point x="226" y="56"/>
	  <point x="207" y="60"/>
	  <point x="191" y="68" type="curve" smooth="yes"/>
	  <point x="148" y="87"/>
	  <point x="122" y="129"/>
	  <point x="113" y="194" type="curve"/>
	  <point x="137" y="237"/>
	  <point x="177" y="277"/>
	  <point x="255" y="277" type="curve" smooth="yes"/>
	  <point x="330" y="277"/>
	  <point x="367" y="230"/>
	  <point x="367" y="167" type="curve" smooth="yes"/>
	  <point x="367" y="136"/>
	  <point x="356" y="110"/>
	  <point x="335" y="89" type="curve" smooth="yes"/>
	  <point x="315" y="68"/>
	  <point x="288" y="56"/>
	  <point x="247" y="56" type="curve" smooth="yes"/>
	</contour>
  </outline>
</glyph>
<glyph name="seven" format="1">
  <advance width="471"/>
  <unicode hex="0037"/>
  <outline>
	<contour>
	  <point x="188" y="-4"/>
	  <point x="198" y="2"/>
	  <point x="205" y="15" type="curve" smooth="yes"/>
	  <point x="418" y="451" type="line" smooth="yes"/>
	  <point x="423" y="462"/>
	  <point x="425" y="473"/>
	  <point x="425" y="485" type="curve" smooth="yes"/>
	  <point x="425" y="507"/>
	  <point x="407" y="524"/>
	  <point x="383" y="524" type="curve" smooth="yes"/>
	  <point x="77" y="524" type="line" smooth="yes"/>
	  <point x="59" y="524"/>
	  <point x="45" y="509"/>
	  <point x="45" y="491" type="curve" smooth="yes"/>
	  <point x="45" y="473"/>
	  <point x="59" y="458"/>
	  <point x="77" y="458" type="curve" smooth="yes"/>
	  <point x="350" y="458" type="line"/>
	  <point x="143" y="48" type="line" smooth="yes"/>
	  <point x="140" y="42"/>
	  <point x="139" y="35"/>
	  <point x="139" y="27" type="curve" smooth="yes"/>
	  <point x="139" y="11"/>
	  <point x="152" y="-4"/>
	  <point x="176" y="-4" type="curve" smooth="yes"/>
	</contour>
  </outline>
</glyph>
<glyph name="eight" format="1">
  <advance width="471"/>
  <unicode hex="0038"/>
  <outline>
	<contour>
	  <point x="371" y="-8"/>
	  <point x="436" y="60"/>
	  <point x="436" y="139" type="curve" smooth="yes"/>
	  <point x="436" y="216"/>
	  <point x="391" y="257"/>
	  <point x="324" y="281" type="curve"/>
	  <point x="350" y="290"/>
	  <point x="370" y="303"/>
	  <point x="385" y="320" type="curve" smooth="yes"/>
	  <point x="401" y="339"/>
	  <point x="411" y="364"/>
	  <point x="411" y="394" type="curve" smooth="yes"/>
	  <point x="411" y="464"/>
	  <point x="355" y="531"/>
	  <point x="236" y="531" type="curve" smooth="yes"/>
	  <point x="176" y="531"/>
	  <point x="131" y="515"/>
	  <point x="99" y="485" type="curve" smooth="yes"/>
	  <point x="71" y="458"/>
	  <point x="60" y="424"/>
	  <point x="60" y="394" type="curve" smooth="yes"/>
	  <point x="60" y="379"/>
	  <point x="62" y="365"/>
	  <point x="68" y="353" type="curve" smooth="yes"/>
	  <point x="80" y="319"/>
	  <point x="107" y="295"/>
	  <point x="147" y="281" type="curve"/>
	  <point x="80" y="257"/>
	  <point x="35" y="216"/>
	  <point x="35" y="138" type="curve" smooth="yes"/>
	  <point x="35" y="60"/>
	  <point x="100" y="-8"/>
	  <point x="236" y="-8" type="curve" smooth="yes"/>
	</contour>
	<contour>
	  <point x="145" y="53"/>
	  <point x="104" y="102"/>
	  <point x="104" y="146" type="curve" smooth="yes"/>
	  <point x="104" y="210"/>
	  <point x="163" y="248"/>
	  <point x="236" y="248" type="curve" smooth="yes"/>
	  <point x="273" y="248"/>
	  <point x="303" y="239"/>
	  <point x="327" y="222" type="curve" smooth="yes"/>
	  <point x="352" y="205"/>
	  <point x="368" y="182"/>
	  <point x="368" y="143" type="curve" smooth="yes"/>
	  <point x="368" y="123"/>
	  <point x="358" y="104"/>
	  <point x="339" y="87" type="curve"/>
	  <point x="316" y="64"/>
	  <point x="281" y="53"/>
	  <point x="236" y="53" type="curve" smooth="yes"/>
	</contour>
	<contour>
	  <point x="161" y="309"/>
	  <point x="128" y="349"/>
	  <point x="128" y="392" type="curve" smooth="yes"/>
	  <point x="128" y="434"/>
	  <point x="163" y="471"/>
	  <point x="236" y="471" type="curve" smooth="yes"/>
	  <point x="308" y="471"/>
	  <point x="343" y="434"/>
	  <point x="343" y="392" type="curve" smooth="yes"/>
	  <point x="343" y="349"/>
	  <point x="310" y="309"/>
	  <point x="236" y="309" type="curve" smooth="yes"/>
	</contour>
  </outline>
</glyph>
<glyph name="nine" format="1">
  <advance width="471"/>
  <unicode hex="0039"/>
  <outline>
	<contour>
	  <point x="289" y="-8"/>
	  <point x="347" y="32"/>
	  <point x="380" y="84" type="curve" smooth="yes"/>
	  <point x="413" y="137"/>
	  <point x="427" y="207"/>
	  <point x="427" y="254" type="curve" smooth="yes"/>
	  <point x="427" y="277"/>
	  <point x="426" y="298"/>
	  <point x="425" y="318" type="curve" smooth="yes"/>
	  <point x="413" y="465"/>
	  <point x="335" y="531"/>
	  <point x="221" y="531" type="curve" smooth="yes"/>
	  <point x="110" y="531"/>
	  <point x="36" y="459"/>
	  <point x="36" y="361" type="curve" smooth="yes"/>
	  <point x="36" y="308"/>
	  <point x="52" y="265"/>
	  <point x="84" y="233" type="curve" smooth="yes"/>
	  <point x="114" y="202"/>
	  <point x="158" y="185"/>
	  <point x="204" y="185" type="curve" smooth="yes"/>
	  <point x="227" y="185"/>
	  <point x="247" y="187"/>
	  <point x="263" y="191" type="curve" smooth="yes"/>
	  <point x="307" y="202"/>
	  <point x="340" y="221"/>
	  <point x="362" y="251" type="curve"/>
	  <point x="359" y="202"/>
	  <point x="348" y="161"/>
	  <point x="330" y="129" type="curve" smooth="yes"/>
	  <point x="307" y="90"/>
	  <point x="269" y="59"/>
	  <point x="203" y="59" type="curve" smooth="yes"/>
	  <point x="170" y="59"/>
	  <point x="139" y="65"/>
	  <point x="111" y="77" type="curve" smooth="yes"/>
	  <point x="103" y="80"/>
	  <point x="95" y="83"/>
	  <point x="88" y="83" type="curve" smooth="yes"/>
	  <point x="74" y="83"/>
	  <point x="61" y="69"/>
	  <point x="61" y="49" type="curve" smooth="yes"/>
	  <point x="61" y="39"/>
	  <point x="66" y="31"/>
	  <point x="77" y="25" type="curve"/>
	  <point x="107" y="9"/>
	  <point x="144" y="-8"/>
	  <point x="217" y="-8" type="curve" smooth="yes"/>
	</contour>
	<contour>
	  <point x="141" y="247"/>
	  <point x="104" y="294"/>
	  <point x="104" y="357" type="curve" smooth="yes"/>
	  <point x="104" y="388"/>
	  <point x="115" y="414"/>
	  <point x="136" y="435" type="curve" smooth="yes"/>
	  <point x="156" y="455"/>
	  <point x="183" y="467"/>
	  <point x="225" y="467" type="curve" smooth="yes"/>
	  <point x="245" y="467"/>
	  <point x="264" y="464"/>
	  <point x="281" y="456" type="curve" smooth="yes"/>
	  <point x="323" y="437"/>
	  <point x="349" y="395"/>
	  <point x="358" y="329" type="curve"/>
	  <point x="335" y="287"/>
	  <point x="294" y="247"/>
	  <point x="216" y="247" type="curve" smooth="yes"/>
	</contour>
  </outline>
</glyph>
<glyph name="colon" format="1">
  <advance width="195"/>
  <unicode hex="003A"/>
  <outline>
	<contour>
	  <point x="101" y="296" type="line" smooth="yes"/>
	  <point x="125" y="296"/>
	  <point x="143" y="315"/>
	  <point x="143" y="338" type="curve" smooth="yes"/>
	  <point x="143" y="343" type="line" smooth="yes"/>
	  <point x="143" y="366"/>
	  <point x="125" y="385"/>
	  <point x="101" y="385" type="curve" smooth="yes"/>
	  <point x="94" y="385" type="line" smooth="yes"/>
	  <point x="71" y="385"/>
	  <point x="52" y="366"/>
	  <point x="52" y="343" type="curve" smooth="yes"/>
	  <point x="52" y="338" type="line" smooth="yes"/>
	  <point x="52" y="315"/>
	  <point x="71" y="296"/>
	  <point x="94" y="296" type="curve" smooth="yes"/>
	</contour>
	<contour>
	  <point x="101" y="-2" type="line" smooth="yes"/>
	  <point x="125" y="-2"/>
	  <point x="143" y="17"/>
	  <point x="143" y="40" type="curve" smooth="yes"/>
	  <point x="143" y="44" type="line" smooth="yes"/>
	  <point x="143" y="68"/>
	  <point x="125" y="86"/>
	  <point x="101" y="86" type="curve" smooth="yes"/>
	  <point x="94" y="86" type="line" smooth="yes"/>
	  <point x="71" y="86"/>
	  <point x="52" y="68"/>
	  <point x="52" y="44" type="curve" smooth="yes"/>
	  <point x="52" y="40" type="line" smooth="yes"/>
	  <point x="52" y="17"/>
	  <point x="71" y="-2"/>
	  <point x="94" y="-2" type="curve" smooth="yes"/>
	</contour>
  </outline>
</glyph>
<glyph name="less" format="1">
  <advance width="435"/>
  <unicode hex="003C"/>
  <outline>
	<contour>
	  <point x="380" y="44"/>
	  <point x="395" y="57"/>
	  <point x="395" y="72" type="curve" smooth="yes"/>
	  <point x="395" y="86"/>
	  <point x="386" y="97"/>
	  <point x="374" y="102" type="curve" smooth="yes"/>
	  <point x="104" y="222" type="line"/>
	  <point x="374" y="342" type="line"/>
	  <point x="388" y="347"/>
	  <point x="395" y="358"/>
	  <point x="395" y="372" type="curve" smooth="yes"/>
	  <point x="395" y="387"/>
	  <point x="380" y="401"/>
	  <point x="368" y="401" type="curve" smooth="yes"/>
	  <point x="361" y="401"/>
	  <point x="356" y="400"/>
	  <point x="353" y="398" type="curve"/>
	  <point x="53" y="264" type="line" smooth="yes"/>
	  <point x="35" y="256"/>
	  <point x="26" y="242"/>
	  <point x="26" y="225" type="curve" smooth="yes"/>
	  <point x="26" y="219" type="line" smooth="yes"/>
	  <point x="26" y="202"/>
	  <point x="35" y="188"/>
	  <point x="53" y="180" type="curve" smooth="yes"/>
	  <point x="353" y="46" type="line"/>
	  <point x="356" y="44"/>
	  <point x="361" y="44"/>
	  <point x="368" y="44" type="curve" smooth="yes"/>
	</contour>
  </outline>
</glyph>
<glyph name="equal" format="1">
  <advance width="534"/>
  <unicode hex="003D"/>
  <outline>
	<contour>
	  <point x="450" y="303" type="line" smooth="yes"/>
	  <point x="467" y="303"/>
	  <point x="479" y="315"/>
	  <point x="479" y="332" type="curve" smooth="yes"/>
	  <point x="479" y="350"/>
	  <point x="467" y="362"/>
	  <point x="450" y="362" type="curve" smooth="yes"/>
	  <point x="84" y="362" type="line" smooth="yes"/>
	  <point x="67" y="362"/>
	  <point x="55" y="350"/>
	  <point x="55" y="332" type="curve" smooth="yes"/>
	  <point x="55" y="315"/>
	  <point x="67" y="303"/>
	  <point x="84" y="303" type="curve" smooth="yes"/>
	</contour>
	<contour>
	  <point x="450" y="135" type="line" smooth="yes"/>
	  <point x="467" y="135"/>
	  <point x="479" y="147"/>
	  <point x="479" y="164" type="curve" smooth="yes"/>
	  <point x="479" y="182"/>
	  <point x="467" y="194"/>
	  <point x="450" y="194" type="curve" smooth="yes"/>
	  <point x="84" y="194" type="line" smooth="yes"/>
	  <point x="67" y="194"/>
	  <point x="55" y="182"/>
	  <point x="55" y="164" type="curve" smooth="yes"/>
	  <point x="55" y="147"/>
	  <point x="67" y="135"/>
	  <point x="84" y="135" type="curve" smooth="yes"/>
	</contour>
  </outline>
</glyph>
<glyph name="greater" format="1">
  <advance width="435"/>
  <unicode hex="003E"/>
  <outline>
	<contour>
	  <point x="74" y="44"/>
	  <point x="79" y="44"/>
	  <point x="83" y="46" type="curve"/>
	  <point x="382" y="180" type="line" smooth="yes"/>
	  <point x="400" y="188"/>
	  <point x="409" y="202"/>
	  <point x="409" y="219" type="curve" smooth="yes"/>
	  <point x="409" y="225" type="line" smooth="yes"/>
	  <point x="409" y="242"/>
	  <point x="400" y="256"/>
	  <point x="382" y="264" type="curve" smooth="yes"/>
	  <point x="83" y="398" type="line"/>
	  <point x="79" y="400"/>
	  <point x="74" y="401"/>
	  <point x="68" y="401" type="curve" smooth="yes"/>
	  <point x="55" y="401"/>
	  <point x="41" y="387"/>
	  <point x="41" y="373" type="curve" smooth="yes"/>
	  <point x="41" y="358"/>
	  <point x="49" y="347"/>
	  <point x="61" y="342" type="curve" smooth="yes"/>
	  <point x="331" y="222" type="line"/>
	  <point x="61" y="102" type="line"/>
	  <point x="47" y="97"/>
	  <point x="41" y="86"/>
	  <point x="41" y="72" type="curve" smooth="yes"/>
	  <point x="41" y="57"/>
	  <point x="55" y="44"/>
	  <point x="68" y="44" type="curve" smooth="yes"/>
	</contour>
  </outline>
</glyph>
<glyph name="question" format="1">
  <advance width="373"/>
  <unicode hex="003F"/>
  <outline>
	<contour>
	  <point x="183" y="140"/>
	  <point x="199" y="150"/>
	  <point x="199" y="175" type="curve" smooth="yes"/>
	  <point x="199" y="187"/>
	  <point x="203" y="199"/>
	  <point x="209" y="210" type="curve" smooth="yes"/>
	  <point x="221" y="230"/>
	  <point x="241" y="250"/>
	  <point x="269" y="270" type="curve" smooth="yes"/>
	  <point x="316" y="305"/>
	  <point x="339" y="344"/>
	  <point x="339" y="389" type="curve" smooth="yes"/>
	  <point x="339" y="476"/>
	  <point x="273" y="531"/>
	  <point x="170" y="531" type="curve" smooth="yes"/>
	  <point x="122" y="531"/>
	  <point x="77" y="519"/>
	  <point x="38" y="495" type="curve" smooth="yes"/>
	  <point x="26" y="488"/>
	  <point x="20" y="478"/>
	  <point x="20" y="465" type="curve" smooth="yes"/>
	  <point x="20" y="450"/>
	  <point x="33" y="437"/>
	  <point x="48" y="437" type="curve" smooth="yes"/>
	  <point x="55" y="437"/>
	  <point x="62" y="439"/>
	  <point x="68" y="443" type="curve"/>
	  <point x="93" y="459"/>
	  <point x="125" y="467"/>
	  <point x="164" y="467" type="curve" smooth="yes"/>
	  <point x="236" y="467"/>
	  <point x="272" y="440"/>
	  <point x="272" y="386" type="curve" smooth="yes"/>
	  <point x="272" y="373"/>
	  <point x="268" y="362"/>
	  <point x="260" y="350" type="curve" smooth="yes"/>
	  <point x="251" y="339"/>
	  <point x="233" y="321"/>
	  <point x="203" y="297" type="curve" smooth="yes"/>
	  <point x="156" y="261"/>
	  <point x="133" y="218"/>
	  <point x="133" y="169" type="curve" smooth="yes"/>
	  <point x="133" y="153"/>
	  <point x="147" y="140"/>
	  <point x="165" y="140" type="curve" smooth="yes"/>
	</contour>
	<contour>
	  <point x="189" y="-3"/>
	  <point x="209" y="17"/>
	  <point x="209" y="42" type="curve" smooth="yes"/>
	  <point x="209" y="66"/>
	  <point x="189" y="86"/>
	  <point x="165" y="86" type="curve" smooth="yes"/>
	  <point x="140" y="86"/>
	  <point x="120" y="66"/>
	  <point x="120" y="42" type="curve" smooth="yes"/>
	  <point x="120" y="17"/>
	  <point x="140" y="-3"/>
	  <point x="165" y="-3" type="curve" smooth="yes"/>
	</contour>
  </outline>
</glyph>
<glyph name="at" format="1">
  <advance width="674"/>
  <unicode hex="0040"/>
  <outline>
	<contour>
	  <point x="362" y="-62"/>
	  <point x="420" y="-49"/>
	  <point x="473" y="-23" type="curve"/>
	  <point x="480" y="-19"/>
	  <point x="484" y="-14"/>
	  <point x="484" y="-7" type="curve" smooth="yes"/>
	  <point x="484" y="7"/>
	  <point x="476" y="13"/>
	  <point x="467" y="13" type="curve" smooth="yes"/>
	  <point x="464" y="13"/>
	  <point x="453" y="10"/>
	  <point x="437" y="3" type="curve" smooth="yes"/>
	  <point x="403" y="-10"/>
	  <point x="365" y="-23"/>
	  <point x="300" y="-23" type="curve" smooth="yes"/>
	  <point x="232" y="-23"/>
	  <point x="176" y="0"/>
	  <point x="134" y="47" type="curve" smooth="yes"/>
	  <point x="95" y="88"/>
	  <point x="76" y="140"/>
	  <point x="76" y="205" type="curve" smooth="yes"/>
	  <point x="76" y="270"/>
	  <point x="107" y="342"/>
	  <point x="158" y="393" type="curve" smooth="yes"/>
	  <point x="209" y="444"/>
	  <point x="279" y="476"/>
	  <point x="355" y="476" type="curve" smooth="yes"/>
	  <point x="420" y="476"/>
	  <point x="476" y="458"/>
	  <point x="522" y="421" type="curve" smooth="yes"/>
	  <point x="569" y="384"/>
	  <point x="600" y="331"/>
	  <point x="600" y="250" type="curve" smooth="yes"/>
	  <point x="600" y="169"/>
	  <point x="566" y="107"/>
	  <point x="503" y="107" type="curve" smooth="yes"/>
	  <point x="476" y="107"/>
	  <point x="466" y="130"/>
	  <point x="466" y="155" type="curve" smooth="yes"/>
	  <point x="466" y="167"/>
	  <point x="467" y="183"/>
	  <point x="471" y="204" type="curve" smooth="yes"/>
	  <point x="496" y="347" type="line"/>
	  <point x="497" y="349"/>
	  <point x="497" y="351"/>
	  <point x="497" y="352" type="curve" smooth="yes"/>
	  <point x="497" y="360" type="line" smooth="yes"/>
	  <point x="497" y="369"/>
	  <point x="485" y="383"/>
	  <point x="470" y="383" type="curve" smooth="yes"/>
	  <point x="455" y="383"/>
	  <point x="444" y="374"/>
	  <point x="442" y="359" type="curve" smooth="yes"/>
	  <point x="440" y="347" type="line"/>
	  <point x="413" y="372"/>
	  <point x="380" y="385"/>
	  <point x="344" y="385" type="curve" smooth="yes"/>
	  <point x="296" y="385"/>
	  <point x="255" y="369"/>
	  <point x="221" y="338" type="curve" smooth="yes"/>
	  <point x="188" y="307"/>
	  <point x="166" y="263"/>
	  <point x="166" y="195" type="curve" smooth="yes"/>
	  <point x="166" y="127"/>
	  <point x="213" y="71"/>
	  <point x="293" y="71" type="curve" smooth="yes"/>
	  <point x="345" y="71"/>
	  <point x="386" y="89"/>
	  <point x="417" y="127" type="curve"/>
	  <point x="419" y="120"/>
	  <point x="421" y="113"/>
	  <point x="425" y="107" type="curve" smooth="yes"/>
	  <point x="438" y="83"/>
	  <point x="464" y="71"/>
	  <point x="501" y="71" type="curve" smooth="yes"/>
	  <point x="594" y="71"/>
	  <point x="641" y="157"/>
	  <point x="641" y="257" type="curve" smooth="yes"/>
	  <point x="641" y="334"/>
	  <point x="608" y="398"/>
	  <point x="556" y="444" type="curve" smooth="yes"/>
	  <point x="504" y="489"/>
	  <point x="433" y="516"/>
	  <point x="351" y="516" type="curve" smooth="yes"/>
	  <point x="269" y="516"/>
	  <point x="188" y="479"/>
	  <point x="131" y="421" type="curve" smooth="yes"/>
	  <point x="74" y="362"/>
	  <point x="37" y="281"/>
	  <point x="37" y="203" type="curve" smooth="yes"/>
	  <point x="37" y="126"/>
	  <point x="62" y="64"/>
	  <point x="108" y="17" type="curve" smooth="yes"/>
	  <point x="154" y="-32"/>
	  <point x="220" y="-62"/>
	  <point x="300" y="-62" type="curve" smooth="yes"/>
	</contour>
	<contour>
	  <point x="259" y="122"/>
	  <point x="224" y="151"/>
	  <point x="224" y="210" type="curve" smooth="yes"/>
	  <point x="224" y="284"/>
	  <point x="278" y="332"/>
	  <point x="347" y="332" type="curve" smooth="yes"/>
	  <point x="382" y="332"/>
	  <point x="410" y="320"/>
	  <point x="431" y="297" type="curve"/>
	  <point x="419" y="227" type="line" smooth="yes"/>
	  <point x="416" y="206"/>
	  <point x="410" y="189"/>
	  <point x="403" y="176" type="curve" smooth="yes"/>
	  <point x="383" y="140"/>
	  <point x="353" y="122"/>
	  <point x="310" y="122" type="curve" smooth="yes"/>
	</contour>
  </outline>
</glyph>
<glyph name="B" format="1">
  <advance width="520"/>
  <unicode hex="0042"/>
  <outline>
	<contour>
	  <point x="288" y="0" type="line" smooth="yes"/>
	  <point x="355" y="0"/>
	  <point x="404" y="14"/>
	  <point x="437" y="41" type="curve" smooth="yes"/>
	  <point x="467" y="67"/>
	  <point x="481" y="104"/>
	  <point x="481" y="143" type="curve" smooth="yes"/>
	  <point x="481" y="163"/>
	  <point x="478" y="179"/>
	  <point x="473" y="194" type="curve"/>
	  <point x="457" y="230"/>
	  <point x="425" y="257"/>
	  <point x="378" y="272" type="curve"/>
	  <point x="427" y="296"/>
	  <point x="452" y="334"/>
	  <point x="452" y="388" type="curve" smooth="yes"/>
	  <point x="452" y="469"/>
	  <point x="394" y="524"/>
	  <point x="284" y="524" type="curve" smooth="yes"/>
	  <point x="107" y="524" type="line" smooth="yes"/>
	  <point x="88" y="524"/>
	  <point x="73" y="508"/>
	  <point x="73" y="489" type="curve" smooth="yes"/>
	  <point x="73" y="34" type="line" smooth="yes"/>
	  <point x="73" y="15"/>
	  <point x="88" y="0"/>
	  <point x="107" y="0" type="curve" smooth="yes"/>
	</contour>
	<contour>
	  <point x="141" y="236" type="line"/>
	  <point x="282" y="236" type="line" smooth="yes"/>
	  <point x="369" y="236"/>
	  <point x="415" y="210"/>
	  <point x="415" y="150" type="curve" smooth="yes"/>
	  <point x="415" y="137"/>
	  <point x="413" y="125"/>
	  <point x="408" y="115" type="curve" smooth="yes"/>
	  <point x="395" y="81"/>
	  <point x="353" y="64"/>
	  <point x="281" y="64" type="curve" smooth="yes"/>
	  <point x="141" y="64" type="line"/>
	</contour>
	<contour>
	  <point x="141" y="460" type="line"/>
	  <point x="278" y="460" type="line" smooth="yes"/>
	  <point x="347" y="460"/>
	  <point x="386" y="430"/>
	  <point x="386" y="383" type="curve" smooth="yes"/>
	  <point x="386" y="371"/>
	  <point x="385" y="359"/>
	  <point x="381" y="349" type="curve" smooth="yes"/>
	  <point x="368" y="314"/>
	  <point x="330" y="297"/>
	  <point x="266" y="297" type="curve" smooth="yes"/>
	  <point x="141" y="297" type="line"/>
	</contour>
  </outline>
</glyph>
<glyph name="C" format="1">
  <advance width="524"/>
  <unicode hex="0043"/>
  <outline>
	<contour>
	  <point x="379" y="-8"/>
	  <point x="428" y="13"/>
	  <point x="476" y="39" type="curve"/>
	  <point x="487" y="44"/>
	  <point x="492" y="54"/>
	  <point x="492" y="68" type="curve" smooth="yes"/>
	  <point x="492" y="83"/>
	  <point x="480" y="96"/>
	  <point x="466" y="96" type="curve" smooth="yes"/>
	  <point x="458" y="96"/>
	  <point x="452" y="95"/>
	  <point x="449" y="93" type="curve"/>
	  <point x="409" y="72"/>
	  <point x="371" y="58"/>
	  <point x="311" y="58" type="curve" smooth="yes"/>
	  <point x="183" y="58"/>
	  <point x="110" y="142"/>
	  <point x="110" y="262" type="curve" smooth="yes"/>
	  <point x="110" y="322"/>
	  <point x="127" y="370"/>
	  <point x="161" y="407" type="curve" smooth="yes"/>
	  <point x="194" y="443"/>
	  <point x="246" y="466"/>
	  <point x="309" y="466" type="curve" smooth="yes"/>
	  <point x="371" y="466"/>
	  <point x="409" y="452"/>
	  <point x="449" y="431" type="curve"/>
	  <point x="452" y="428"/>
	  <point x="458" y="428"/>
	  <point x="466" y="428" type="curve" smooth="yes"/>
	  <point x="480" y="428"/>
	  <point x="492" y="441"/>
	  <point x="492" y="456" type="curve" smooth="yes"/>
	  <point x="492" y="470"/>
	  <point x="491" y="477"/>
	  <point x="462" y="493" type="curve" smooth="yes"/>
	  <point x="434" y="508"/>
	  <point x="379" y="531"/>
	  <point x="305" y="531" type="curve" smooth="yes"/>
	  <point x="152" y="531"/>
	  <point x="42" y="427"/>
	  <point x="42" y="262" type="curve" smooth="yes"/>
	  <point x="42" y="179"/>
	  <point x="67" y="113"/>
	  <point x="117" y="65" type="curve" smooth="yes"/>
	  <point x="164" y="17"/>
	  <point x="230" y="-8"/>
	  <point x="305" y="-8" type="curve" smooth="yes"/>
	</contour>
  </outline>
</glyph>
<glyph name="D" format="1">
  <advance width="563"/>
  <unicode hex="0044"/>
  <outline>
	<contour>
	  <point x="257" y="0" type="line" smooth="yes"/>
	  <point x="341" y="0"/>
	  <point x="407" y="28"/>
	  <point x="457" y="84" type="curve" smooth="yes"/>
	  <point x="501" y="133"/>
	  <point x="522" y="199"/>
	  <point x="522" y="262" type="curve" smooth="yes"/>
	  <point x="522" y="325"/>
	  <point x="501" y="391"/>
	  <point x="457" y="440" type="curve" smooth="yes"/>
	  <point x="407" y="496"/>
	  <point x="341" y="524"/>
	  <point x="257" y="524" type="curve" smooth="yes"/>
	  <point x="107" y="524" type="line" smooth="yes"/>
	  <point x="88" y="524"/>
	  <point x="73" y="508"/>
	  <point x="73" y="489" type="curve" smooth="yes"/>
	  <point x="73" y="34" type="line" smooth="yes"/>
	  <point x="73" y="15"/>
	  <point x="88" y="0"/>
	  <point x="107" y="0" type="curve" smooth="yes"/>
	</contour>
	<contour>
	  <point x="141" y="460" type="line"/>
	  <point x="249" y="460" type="line" smooth="yes"/>
	  <point x="373" y="460"/>
	  <point x="455" y="380"/>
	  <point x="455" y="262" type="curve" smooth="yes"/>
	  <point x="455" y="144"/>
	  <point x="373" y="64"/>
	  <point x="249" y="64" type="curve" smooth="yes"/>
	  <point x="141" y="64" type="line"/>
	</contour>
  </outline>
</glyph>
<glyph name="E" format="1">
  <advance width="479"/>
  <unicode hex="0045"/>
  <outline>
	<contour>
	  <point x="407" y="0" type="line" smooth="yes"/>
	  <point x="425" y="0"/>
	  <point x="440" y="14"/>
	  <point x="440" y="32" type="curve" smooth="yes"/>
	  <point x="440" y="50"/>
	  <point x="425" y="64"/>
	  <point x="407" y="64" type="curve" smooth="yes"/>
	  <point x="141" y="64" type="line"/>
	  <point x="141" y="230" type="line"/>
	  <point x="380" y="230" type="line" smooth="yes"/>
	  <point x="398" y="230"/>
	  <point x="413" y="244"/>
	  <point x="413" y="262" type="curve" smooth="yes"/>
	  <point x="413" y="280"/>
	  <point x="398" y="294"/>
	  <point x="380" y="294" type="curve" smooth="yes"/>
	  <point x="141" y="294" type="line"/>
	  <point x="141" y="460" type="line"/>
	  <point x="407" y="460" type="line" smooth="yes"/>
	  <point x="425" y="460"/>
	  <point x="440" y="473"/>
	  <point x="440" y="491" type="curve" smooth="yes"/>
	  <point x="440" y="509"/>
	  <point x="425" y="524"/>
	  <point x="407" y="524" type="curve" smooth="yes"/>
	  <point x="107" y="524" type="line" smooth="yes"/>
	  <point x="88" y="524"/>
	  <point x="73" y="508"/>
	  <point x="73" y="489" type="curve" smooth="yes"/>
	  <point x="73" y="34" type="line" smooth="yes"/>
	  <point x="73" y="15"/>
	  <point x="88" y="0"/>
	  <point x="107" y="0" type="curve" smooth="yes"/>
	</contour>
  </outline>
</glyph>
<glyph name="F" format="1">
  <advance width="458"/>
  <unicode hex="0046"/>
  <outline>
	<contour>
	  <point x="125" y="-4"/>
	  <point x="141" y="11"/>
	  <point x="141" y="30" type="curve" smooth="yes"/>
	  <point x="141" y="230" type="line"/>
	  <point x="372" y="230" type="line" smooth="yes"/>
	  <point x="390" y="230"/>
	  <point x="404" y="244"/>
	  <point x="404" y="262" type="curve" smooth="yes"/>
	  <point x="404" y="280"/>
	  <point x="390" y="294"/>
	  <point x="372" y="294" type="curve" smooth="yes"/>
	  <point x="141" y="294" type="line"/>
	  <point x="141" y="460" type="line"/>
	  <point x="398" y="460" type="line" smooth="yes"/>
	  <point x="416" y="460"/>
	  <point x="431" y="473"/>
	  <point x="431" y="491" type="curve" smooth="yes"/>
	  <point x="431" y="509"/>
	  <point x="416" y="524"/>
	  <point x="398" y="524" type="curve" smooth="yes"/>
	  <point x="107" y="524" type="line" smooth="yes"/>
	  <point x="88" y="524"/>
	  <point x="73" y="508"/>
	  <point x="73" y="489" type="curve" smooth="yes"/>
	  <point x="73" y="30" type="line" smooth="yes"/>
	  <point x="73" y="11"/>
	  <point x="88" y="-4"/>
	  <point x="107" y="-4" type="curve" smooth="yes"/>
	</contour>
  </outline>
</glyph>
<glyph name="G" format="1">
  <advance width="558"/>
  <unicode hex="0047"/>
  <outline>
	<contour>
	  <point x="363" y="-8"/>
	  <point x="420" y="7"/>
	  <point x="476" y="35" type="curve" smooth="yes"/>
	  <point x="494" y="43"/>
	  <point x="505" y="60"/>
	  <point x="505" y="81" type="curve" smooth="yes"/>
	  <point x="505" y="251" type="line" smooth="yes"/>
	  <point x="505" y="272"/>
	  <point x="489" y="287"/>
	  <point x="469" y="287" type="curve" smooth="yes"/>
	  <point x="321" y="287" type="line" smooth="yes"/>
	  <point x="304" y="287"/>
	  <point x="290" y="274"/>
	  <point x="290" y="257" type="curve" smooth="yes"/>
	  <point x="290" y="239"/>
	  <point x="304" y="226"/>
	  <point x="321" y="226" type="curve" smooth="yes"/>
	  <point x="445" y="226" type="line"/>
	  <point x="445" y="90" type="line"/>
	  <point x="404" y="68"/>
	  <point x="361" y="57"/>
	  <point x="314" y="57" type="curve" smooth="yes"/>
	  <point x="188" y="57"/>
	  <point x="110" y="143"/>
	  <point x="110" y="261" type="curve" smooth="yes"/>
	  <point x="110" y="389"/>
	  <point x="194" y="465"/>
	  <point x="310" y="465" type="curve" smooth="yes"/>
	  <point x="359" y="465"/>
	  <point x="408" y="451"/>
	  <point x="457" y="423" type="curve"/>
	  <point x="462" y="421"/>
	  <point x="468" y="419"/>
	  <point x="476" y="419" type="curve" smooth="yes"/>
	  <point x="491" y="419"/>
	  <point x="504" y="433"/>
	  <point x="504" y="454" type="curve" smooth="yes"/>
	  <point x="504" y="464"/>
	  <point x="499" y="472"/>
	  <point x="489" y="477" type="curve"/>
	  <point x="442" y="507"/>
	  <point x="387" y="531"/>
	  <point x="302" y="531" type="curve" smooth="yes"/>
	  <point x="152" y="531"/>
	  <point x="41" y="420"/>
	  <point x="41" y="261" type="curve" smooth="yes"/>
	  <point x="41" y="104"/>
	  <point x="148" y="-8"/>
	  <point x="305" y="-8" type="curve" smooth="yes"/>
	</contour>
  </outline>
</glyph>
<glyph name="H" format="1">
  <advance width="566"/>
  <unicode hex="0048"/>
  <outline>
	<contour>
	  <point x="125" y="-4"/>
	  <point x="141" y="11"/>
	  <point x="141" y="30" type="curve" smooth="yes"/>
	  <point x="141" y="230" type="line"/>
	  <point x="425" y="230" type="line"/>
	  <point x="425" y="30" type="line" smooth="yes"/>
	  <point x="425" y="11"/>
	  <point x="440" y="-4"/>
	  <point x="459" y="-4" type="curve" smooth="yes"/>
	  <point x="478" y="-4"/>
	  <point x="494" y="11"/>
	  <point x="494" y="30" type="curve" smooth="yes"/>
	  <point x="494" y="493" type="line" smooth="yes"/>
	  <point x="494" y="512"/>
	  <point x="478" y="527"/>
	  <point x="459" y="527" type="curve" smooth="yes"/>
	  <point x="440" y="527"/>
	  <point x="425" y="512"/>
	  <point x="425" y="493" type="curve" smooth="yes"/>
	  <point x="425" y="293" type="line"/>
	  <point x="141" y="293" type="line"/>
	  <point x="141" y="493" type="line" smooth="yes"/>
	  <point x="141" y="512"/>
	  <point x="125" y="527"/>
	  <point x="107" y="527" type="curve" smooth="yes"/>
	  <point x="88" y="527"/>
	  <point x="73" y="512"/>
	  <point x="73" y="493" type="curve" smooth="yes"/>
	  <point x="73" y="30" type="line" smooth="yes"/>
	  <point x="73" y="11"/>
	  <point x="88" y="-4"/>
	  <point x="107" y="-4" type="curve" smooth="yes"/>
	</contour>
  </outline>
</glyph>
<glyph name="I" format="1">
  <advance width="214"/>
  <unicode hex="0049"/>
  <outline>
	<contour>
	  <point x="125" y="-4"/>
	  <point x="141" y="11"/>
	  <point x="141" y="30" type="curve" smooth="yes"/>
	  <point x="141" y="493" type="line" smooth="yes"/>
	  <point x="141" y="512"/>
	  <point x="125" y="527"/>
	  <point x="107" y="527" type="curve" smooth="yes"/>
	  <point x="88" y="527"/>
	  <point x="73" y="512"/>
	  <point x="73" y="493" type="curve" smooth="yes"/>
	  <point x="73" y="30" type="line" smooth="yes"/>
	  <point x="73" y="11"/>
	  <point x="88" y="-4"/>
	  <point x="107" y="-4" type="curve" smooth="yes"/>
	</contour>
  </outline>
</glyph>
<glyph name="J" format="1">
  <advance width="350"/>
  <unicode hex="004A"/>
  <outline>
	<contour>
	  <point x="215" y="-8"/>
	  <point x="280" y="41"/>
	  <point x="280" y="173" type="curve" smooth="yes"/>
	  <point x="280" y="493" type="line" smooth="yes"/>
	  <point x="280" y="512"/>
	  <point x="264" y="527"/>
	  <point x="245" y="527" type="curve" smooth="yes"/>
	  <point x="227" y="527"/>
	  <point x="212" y="512"/>
	  <point x="212" y="493" type="curve" smooth="yes"/>
	  <point x="212" y="168" type="line" smooth="yes"/>
	  <point x="212" y="125"/>
	  <point x="202" y="95"/>
	  <point x="183" y="77" type="curve" smooth="yes"/>
	  <point x="166" y="62"/>
	  <point x="146" y="57"/>
	  <point x="111" y="57" type="curve" smooth="yes"/>
	  <point x="93" y="57"/>
	  <point x="74" y="62"/>
	  <point x="56" y="71" type="curve" smooth="yes"/>
	  <point x="49" y="75"/>
	  <point x="42" y="77"/>
	  <point x="35" y="77" type="curve" smooth="yes"/>
	  <point x="22" y="77"/>
	  <point x="9" y="63"/>
	  <point x="9" y="43" type="curve" smooth="yes"/>
	  <point x="9" y="32"/>
	  <point x="14" y="24"/>
	  <point x="26" y="18" type="curve" smooth="yes"/>
	  <point x="56" y="1"/>
	  <point x="89" y="-8"/>
	  <point x="125" y="-8" type="curve" smooth="yes"/>
	</contour>
  </outline>
</glyph>
<glyph name="K" format="1">
  <advance width="503"/>
  <unicode hex="004B"/>
  <outline>
	<contour>
	  <point x="125" y="-4"/>
	  <point x="141" y="11"/>
	  <point x="141" y="30" type="curve" smooth="yes"/>
	  <point x="141" y="170" type="line"/>
	  <point x="227" y="257" type="line"/>
	  <point x="420" y="10" type="line" smooth="yes"/>
	  <point x="427" y="1"/>
	  <point x="435" y="-4"/>
	  <point x="446" y="-4" type="curve" smooth="yes"/>
	  <point x="467" y="-4"/>
	  <point x="480" y="11"/>
	  <point x="480" y="28" type="curve" smooth="yes"/>
	  <point x="480" y="36"/>
	  <point x="477" y="44"/>
	  <point x="472" y="51" type="curve" smooth="yes"/>
	  <point x="273" y="302" type="line"/>
	  <point x="446" y="474" type="line" smooth="yes"/>
	  <point x="452" y="479"/>
	  <point x="455" y="487"/>
	  <point x="455" y="497" type="curve" smooth="yes"/>
	  <point x="455" y="515"/>
	  <point x="442" y="527"/>
	  <point x="422" y="527" type="curve" smooth="yes"/>
	  <point x="413" y="527"/>
	  <point x="404" y="524"/>
	  <point x="398" y="515" type="curve"/>
	  <point x="141" y="254" type="line"/>
	  <point x="141" y="493" type="line" smooth="yes"/>
	  <point x="141" y="512"/>
	  <point x="125" y="527"/>
	  <point x="107" y="527" type="curve" smooth="yes"/>
	  <point x="88" y="527"/>
	  <point x="73" y="512"/>
	  <point x="73" y="493" type="curve" smooth="yes"/>
	  <point x="73" y="30" type="line" smooth="yes"/>
	  <point x="73" y="11"/>
	  <point x="88" y="-4"/>
	  <point x="107" y="-4" type="curve" smooth="yes"/>
	</contour>
  </outline>
</glyph>
<glyph name="L" format="1">
  <advance width="432"/>
  <unicode hex="004C"/>
  <outline>
	<contour>
	  <point x="386" y="0" type="line" smooth="yes"/>
	  <point x="405" y="0"/>
	  <point x="421" y="15"/>
	  <point x="421" y="34" type="curve" smooth="yes"/>
	  <point x="421" y="53"/>
	  <point x="405" y="68"/>
	  <point x="386" y="68" type="curve" smooth="yes"/>
	  <point x="141" y="68" type="line"/>
	  <point x="141" y="493" type="line" smooth="yes"/>
	  <point x="141" y="512"/>
	  <point x="125" y="527"/>
	  <point x="107" y="527" type="curve" smooth="yes"/>
	  <point x="88" y="527"/>
	  <point x="73" y="512"/>
	  <point x="73" y="493" type="curve" smooth="yes"/>
	  <point x="73" y="47" type="line" smooth="yes"/>
	  <point x="73" y="21"/>
	  <point x="94" y="0"/>
	  <point x="120" y="0" type="curve" smooth="yes"/>
	</contour>
  </outline>
</glyph>
<glyph name="M" format="1">
  <advance width="725"/>
  <unicode hex="004D"/>
  <outline>
	<contour>
	  <point x="125" y="-4"/>
	  <point x="141" y="11"/>
	  <point x="141" y="30" type="curve" smooth="yes"/>
	  <point x="141" y="456" type="line"/>
	  <point x="314" y="28" type="line" smooth="yes"/>
	  <point x="323" y="9"/>
	  <point x="341" y="-4"/>
	  <point x="362" y="-4" type="curve" smooth="yes"/>
	  <point x="384" y="-4"/>
	  <point x="402" y="9"/>
	  <point x="410" y="28" type="curve" smooth="yes"/>
	  <point x="584" y="456" type="line"/>
	  <point x="584" y="30" type="line" smooth="yes"/>
	  <point x="584" y="11"/>
	  <point x="599" y="-4"/>
	  <point x="618" y="-4" type="curve" smooth="yes"/>
	  <point x="637" y="-4"/>
	  <point x="652" y="11"/>
	  <point x="652" y="30" type="curve" smooth="yes"/>
	  <point x="652" y="478" type="line" smooth="yes"/>
	  <point x="652" y="505"/>
	  <point x="630" y="527"/>
	  <point x="603" y="527" type="curve" smooth="yes"/>
	  <point x="578" y="527" type="line" smooth="yes"/>
	  <point x="558" y="527"/>
	  <point x="541" y="514"/>
	  <point x="533" y="496" type="curve"/>
	  <point x="362" y="71" type="line"/>
	  <point x="192" y="496" type="line"/>
	  <point x="184" y="514"/>
	  <point x="167" y="527"/>
	  <point x="146" y="527" type="curve" smooth="yes"/>
	  <point x="122" y="527" type="line" smooth="yes"/>
	  <point x="95" y="527"/>
	  <point x="73" y="505"/>
	  <point x="73" y="478" type="curve" smooth="yes"/>
	  <point x="73" y="30" type="line" smooth="yes"/>
	  <point x="73" y="11"/>
	  <point x="88" y="-4"/>
	  <point x="107" y="-4" type="curve" smooth="yes"/>
	</contour>
  </outline>
</glyph>
<glyph name="N" format="1">
  <advance width="602"/>
  <unicode hex="004E"/>
  <outline>
	<contour>
	  <point x="125" y="-4"/>
	  <point x="141" y="11"/>
	  <point x="141" y="30" type="curve" smooth="yes"/>
	  <point x="141" y="436" type="line"/>
	  <point x="431" y="17" type="line" smooth="yes"/>
	  <point x="441" y="3"/>
	  <point x="455" y="-4"/>
	  <point x="471" y="-4" type="curve" smooth="yes"/>
	  <point x="480" y="-4" type="line" smooth="yes"/>
	  <point x="507" y="-4"/>
	  <point x="530" y="18"/>
	  <point x="530" y="45" type="curve" smooth="yes"/>
	  <point x="530" y="493" type="line" smooth="yes"/>
	  <point x="530" y="512"/>
	  <point x="514" y="527"/>
	  <point x="495" y="527" type="curve" smooth="yes"/>
	  <point x="476" y="527"/>
	  <point x="461" y="512"/>
	  <point x="461" y="493" type="curve" smooth="yes"/>
	  <point x="461" y="88" type="line"/>
	  <point x="173" y="505" type="line"/>
	  <point x="161" y="520"/>
	  <point x="147" y="527"/>
	  <point x="131" y="527" type="curve" smooth="yes"/>
	  <point x="122" y="527" type="line" smooth="yes"/>
	  <point x="95" y="527"/>
	  <point x="73" y="505"/>
	  <point x="73" y="478" type="curve" smooth="yes"/>
	  <point x="73" y="30" type="line" smooth="yes"/>
	  <point x="73" y="11"/>
	  <point x="88" y="-4"/>
	  <point x="107" y="-4" type="curve" smooth="yes"/>
	</contour>
  </outline>
</glyph>
<glyph name="O" format="1">
  <advance width="608"/>
  <unicode hex="004F"/>
  <outline>
	<contour>
	  <point x="463" y="-8"/>
	  <point x="564" y="103"/>
	  <point x="568" y="262" type="curve"/>
	  <point x="564" y="421"/>
	  <point x="463" y="531"/>
	  <point x="305" y="531" type="curve" smooth="yes"/>
	  <point x="146" y="531"/>
	  <point x="44" y="420"/>
	  <point x="41" y="262" type="curve"/>
	  <point x="44" y="104"/>
	  <point x="146" y="-8"/>
	  <point x="305" y="-8" type="curve" smooth="yes"/>
	</contour>
	<contour>
	  <point x="182" y="56"/>
	  <point x="110" y="143"/>
	  <point x="110" y="262" type="curve" smooth="yes"/>
	  <point x="110" y="381"/>
	  <point x="182" y="467"/>
	  <point x="305" y="467" type="curve" smooth="yes"/>
	  <point x="427" y="467"/>
	  <point x="500" y="381"/>
	  <point x="500" y="262" type="curve" smooth="yes"/>
	  <point x="500" y="143"/>
	  <point x="427" y="56"/>
	  <point x="305" y="56" type="curve" smooth="yes"/>
	</contour>
  </outline>
</glyph>
<glyph name="P" format="1">
  <advance width="502"/>
  <unicode hex="0050"/>
  <outline>
	<contour>
	  <point x="125" y="-4"/>
	  <point x="141" y="11"/>
	  <point x="141" y="30" type="curve" smooth="yes"/>
	  <point x="141" y="191" type="line"/>
	  <point x="278" y="191" type="line" smooth="yes"/>
	  <point x="416" y="191"/>
	  <point x="478" y="265"/>
	  <point x="478" y="357" type="curve" smooth="yes"/>
	  <point x="478" y="449"/>
	  <point x="416" y="524"/>
	  <point x="278" y="524" type="curve" smooth="yes"/>
	  <point x="107" y="524" type="line" smooth="yes"/>
	  <point x="88" y="524"/>
	  <point x="73" y="508"/>
	  <point x="73" y="489" type="curve" smooth="yes"/>
	  <point x="73" y="30" type="line" smooth="yes"/>
	  <point x="73" y="11"/>
	  <point x="88" y="-4"/>
	  <point x="107" y="-4" type="curve" smooth="yes"/>
	</contour>
	<contour>
	  <point x="141" y="459" type="line"/>
	  <point x="271" y="459" type="line" smooth="yes"/>
	  <point x="327" y="459"/>
	  <point x="410" y="450"/>
	  <point x="410" y="357" type="curve" smooth="yes"/>
	  <point x="410" y="299"/>
	  <point x="374" y="255"/>
	  <point x="271" y="255" type="curve" smooth="yes"/>
	  <point x="141" y="255" type="line"/>
	</contour>
  </outline>
</glyph>
<glyph name="Q" format="1">
  <advance width="609"/>
  <unicode hex="0051"/>
  <outline>
	<contour>
	  <point x="473" y="-114"/>
	  <point x="488" y="-100"/>
	  <point x="488" y="-82" type="curve" smooth="yes"/>
	  <point x="488" y="-74"/>
	  <point x="485" y="-66"/>
	  <point x="479" y="-60" type="curve"/>
	  <point x="413" y="13" type="line"/>
	  <point x="509" y="53"/>
	  <point x="566" y="144"/>
	  <point x="568" y="262" type="curve"/>
	  <point x="564" y="421"/>
	  <point x="463" y="531"/>
	  <point x="305" y="531" type="curve" smooth="yes"/>
	  <point x="146" y="531"/>
	  <point x="44" y="420"/>
	  <point x="41" y="262" type="curve"/>
	  <point x="44" y="104"/>
	  <point x="146" y="-8"/>
	  <point x="305" y="-8" type="curve" smooth="yes"/>
	  <point x="320" y="-8"/>
	  <point x="335" y="-7"/>
	  <point x="350" y="-5" type="curve"/>
	  <point x="431" y="-102" type="line" smooth="yes"/>
	  <point x="438" y="-110"/>
	  <point x="446" y="-114"/>
	  <point x="455" y="-114" type="curve" smooth="yes"/>
	</contour>
	<contour>
	  <point x="182" y="56"/>
	  <point x="110" y="143"/>
	  <point x="110" y="262" type="curve" smooth="yes"/>
	  <point x="110" y="381"/>
	  <point x="182" y="467"/>
	  <point x="305" y="467" type="curve" smooth="yes"/>
	  <point x="427" y="467"/>
	  <point x="500" y="381"/>
	  <point x="500" y="262" type="curve" smooth="yes"/>
	  <point x="500" y="143"/>
	  <point x="427" y="56"/>
	  <point x="305" y="56" type="curve" smooth="yes"/>
	</contour>
  </outline>
</glyph>
<glyph name="R" format="1">
  <advance width="534"/>
  <unicode hex="0052"/>
  <outline>
	<contour>
	  <point x="125" y="-4"/>
	  <point x="141" y="11"/>
	  <point x="141" y="30" type="curve" smooth="yes"/>
	  <point x="141" y="204" type="line"/>
	  <point x="296" y="204" type="line" smooth="yes"/>
	  <point x="325" y="204"/>
	  <point x="347" y="199"/>
	  <point x="362" y="188" type="curve" smooth="yes"/>
	  <point x="393" y="165"/>
	  <point x="413" y="134"/>
	  <point x="413" y="53" type="curve" smooth="yes"/>
	  <point x="413" y="30" type="line" smooth="yes"/>
	  <point x="413" y="10"/>
	  <point x="426" y="-4"/>
	  <point x="446" y="-4" type="curve" smooth="yes"/>
	  <point x="467" y="-4"/>
	  <point x="481" y="11"/>
	  <point x="481" y="30" type="curve" smooth="yes"/>
	  <point x="481" y="65" type="line" smooth="yes"/>
	  <point x="481" y="131"/>
	  <point x="459" y="217"/>
	  <point x="387" y="236" type="curve"/>
	  <point x="453" y="259"/>
	  <point x="485" y="314"/>
	  <point x="485" y="371" type="curve" smooth="yes"/>
	  <point x="485" y="461"/>
	  <point x="419" y="524"/>
	  <point x="281" y="524" type="curve" smooth="yes"/>
	  <point x="107" y="524" type="line" smooth="yes"/>
	  <point x="88" y="524"/>
	  <point x="73" y="508"/>
	  <point x="73" y="489" type="curve" smooth="yes"/>
	  <point x="73" y="30" type="line" smooth="yes"/>
	  <point x="73" y="11"/>
	  <point x="88" y="-4"/>
	  <point x="107" y="-4" type="curve" smooth="yes"/>
	</contour>
	<contour>
	  <point x="141" y="459" type="line"/>
	  <point x="273" y="459" type="line" smooth="yes"/>
	  <point x="377" y="459"/>
	  <point x="417" y="426"/>
	  <point x="417" y="366" type="curve" smooth="yes"/>
	  <point x="417" y="302"/>
	  <point x="361" y="269"/>
	  <point x="277" y="269" type="curve" smooth="yes"/>
	  <point x="141" y="269" type="line"/>
	</contour>
  </outline>
</glyph>
<glyph name="S" format="1">
  <advance width="462"/>
  <unicode hex="0053"/>
  <outline>
	<contour>
	  <point x="354" y="-8"/>
	  <point x="430" y="53"/>
	  <point x="430" y="139" type="curve" smooth="yes"/>
	  <point x="430" y="184"/>
	  <point x="413" y="218"/>
	  <point x="380" y="242" type="curve" smooth="yes"/>
	  <point x="365" y="254"/>
	  <point x="348" y="263"/>
	  <point x="329" y="269" type="curve" smooth="yes"/>
	  <point x="291" y="283"/>
	  <point x="251" y="292"/>
	  <point x="212" y="301" type="curve" smooth="yes"/>
	  <point x="174" y="310"/>
	  <point x="112" y="326"/>
	  <point x="112" y="383" type="curve" smooth="yes"/>
	  <point x="112" y="437"/>
	  <point x="168" y="468"/>
	  <point x="245" y="468" type="curve" smooth="yes"/>
	  <point x="287" y="468"/>
	  <point x="325" y="462"/>
	  <point x="357" y="451" type="curve" smooth="yes"/>
	  <point x="368" y="447"/>
	  <point x="377" y="445"/>
	  <point x="383" y="445" type="curve" smooth="yes"/>
	  <point x="395" y="445"/>
	  <point x="408" y="461"/>
	  <point x="408" y="476" type="curve" smooth="yes"/>
	  <point x="408" y="491"/>
	  <point x="401" y="501"/>
	  <point x="387" y="506" type="curve" smooth="yes"/>
	  <point x="342" y="523"/>
	  <point x="293" y="531"/>
	  <point x="238" y="531" type="curve" smooth="yes"/>
	  <point x="117" y="531"/>
	  <point x="44" y="465"/>
	  <point x="44" y="377" type="curve" smooth="yes"/>
	  <point x="44" y="336"/>
	  <point x="60" y="303"/>
	  <point x="93" y="278" type="curve" smooth="yes"/>
	  <point x="108" y="267"/>
	  <point x="125" y="258"/>
	  <point x="145" y="251" type="curve" smooth="yes"/>
	  <point x="183" y="237"/>
	  <point x="223" y="227"/>
	  <point x="262" y="218" type="curve" smooth="yes"/>
	  <point x="300" y="208"/>
	  <point x="362" y="191"/>
	  <point x="362" y="143" type="curve" smooth="yes"/>
	  <point x="362" y="86"/>
	  <point x="319" y="57"/>
	  <point x="231" y="57" type="curve" smooth="yes"/>
	  <point x="166" y="57"/>
	  <point x="114" y="74"/>
	  <point x="93" y="84" type="curve"/>
	  <point x="82" y="89"/>
	  <point x="73" y="91"/>
	  <point x="66" y="91" type="curve" smooth="yes"/>
	  <point x="51" y="91"/>
	  <point x="38" y="76"/>
	  <point x="38" y="61" type="curve" smooth="yes"/>
	  <point x="38" y="45"/>
	  <point x="48" y="34"/>
	  <point x="59" y="29" type="curve" smooth="yes"/>
	  <point x="115" y="5"/>
	  <point x="174" y="-8"/>
	  <point x="238" y="-8" type="curve" smooth="yes"/>
	</contour>
  </outline>
</glyph>
<glyph name="T" format="1">
  <advance width="458"/>
  <unicode hex="0054"/>
  <outline>
	<contour>
	  <point x="248" y="-4"/>
	  <point x="263" y="11"/>
	  <point x="263" y="30" type="curve" smooth="yes"/>
	  <point x="263" y="460" type="line"/>
	  <point x="416" y="460" type="line" smooth="yes"/>
	  <point x="434" y="460"/>
	  <point x="448" y="473"/>
	  <point x="448" y="491" type="curve" smooth="yes"/>
	  <point x="448" y="509"/>
	  <point x="434" y="524"/>
	  <point x="416" y="524" type="curve" smooth="yes"/>
	  <point x="42" y="524" type="line" smooth="yes"/>
	  <point x="24" y="524"/>
	  <point x="11" y="509"/>
	  <point x="11" y="491" type="curve" smooth="yes"/>
	  <point x="11" y="473"/>
	  <point x="24" y="460"/>
	  <point x="42" y="460" type="curve" smooth="yes"/>
	  <point x="195" y="460" type="line"/>
	  <point x="195" y="30" type="line" smooth="yes"/>
	  <point x="195" y="11"/>
	  <point x="210" y="-4"/>
	  <point x="229" y="-4" type="curve" smooth="yes"/>
	</contour>
  </outline>
</glyph>
<glyph name="U" format="1">
  <advance width="569"/>
  <unicode hex="0055"/>
  <outline>
	<contour>
	  <point x="396" y="-8"/>
	  <point x="500" y="65"/>
	  <point x="500" y="197" type="curve" smooth="yes"/>
	  <point x="500" y="493" type="line" smooth="yes"/>
	  <point x="500" y="512"/>
	  <point x="484" y="527"/>
	  <point x="465" y="527" type="curve" smooth="yes"/>
	  <point x="446" y="527"/>
	  <point x="431" y="512"/>
	  <point x="431" y="493" type="curve" smooth="yes"/>
	  <point x="431" y="194" type="line" smooth="yes"/>
	  <point x="431" y="105"/>
	  <point x="363" y="55"/>
	  <point x="284" y="55" type="curve" smooth="yes"/>
	  <point x="206" y="55"/>
	  <point x="137" y="105"/>
	  <point x="137" y="194" type="curve" smooth="yes"/>
	  <point x="137" y="493" type="line" smooth="yes"/>
	  <point x="137" y="512"/>
	  <point x="122" y="527"/>
	  <point x="103" y="527" type="curve" smooth="yes"/>
	  <point x="84" y="527"/>
	  <point x="69" y="512"/>
	  <point x="69" y="493" type="curve" smooth="yes"/>
	  <point x="69" y="197" type="line" smooth="yes"/>
	  <point x="69" y="65"/>
	  <point x="170" y="-8"/>
	  <point x="284" y="-8" type="curve" smooth="yes"/>
	</contour>
  </outline>
</glyph>
<glyph name="V" format="1">
  <advance width="521"/>
  <unicode hex="0056"/>
  <outline>
	<contour>
	  <point x="269" y="-4" type="line" smooth="yes"/>
	  <point x="289" y="-4"/>
	  <point x="305" y="8"/>
	  <point x="315" y="31" type="curve" smooth="yes"/>
	  <point x="500" y="480" type="line" smooth="yes"/>
	  <point x="502" y="484"/>
	  <point x="503" y="489"/>
	  <point x="503" y="497" type="curve" smooth="yes"/>
	  <point x="503" y="512"/>
	  <point x="491" y="527"/>
	  <point x="466" y="527" type="curve" smooth="yes"/>
	  <point x="453" y="527"/>
	  <point x="443" y="520"/>
	  <point x="437" y="504" type="curve" smooth="yes"/>
	  <point x="260" y="65" type="line"/>
	  <point x="84" y="504" type="line" smooth="yes"/>
	  <point x="77" y="520"/>
	  <point x="66" y="527"/>
	  <point x="50" y="527" type="curve" smooth="yes"/>
	  <point x="32" y="527"/>
	  <point x="18" y="512"/>
	  <point x="18" y="497" type="curve" smooth="yes"/>
	  <point x="18" y="489"/>
	  <point x="19" y="484"/>
	  <point x="20" y="480" type="curve" smooth="yes"/>
	  <point x="206" y="31" type="line" smooth="yes"/>
	  <point x="216" y="8"/>
	  <point x="232" y="-4"/>
	  <point x="252" y="-4" type="curve" smooth="yes"/>
	</contour>
  </outline>
</glyph>
<glyph name="W" format="1">
  <advance width="755"/>
  <unicode hex="0057"/>
  <outline>
	<contour>
	  <point x="233" y="-4"/>
	  <point x="251" y="10"/>
	  <point x="257" y="30" type="curve" smooth="yes"/>
	  <point x="378" y="413" type="line"/>
	  <point x="499" y="30" type="line" smooth="yes"/>
	  <point x="505" y="10"/>
	  <point x="523" y="-4"/>
	  <point x="543" y="-4" type="curve" smooth="yes"/>
	  <point x="565" y="-4"/>
	  <point x="579" y="8"/>
	  <point x="587" y="30" type="curve"/>
	  <point x="734" y="482" type="line"/>
	  <point x="736" y="487"/>
	  <point x="737" y="494"/>
	  <point x="737" y="500" type="curve" smooth="yes"/>
	  <point x="737" y="514"/>
	  <point x="724" y="527"/>
	  <point x="704" y="527" type="curve" smooth="yes"/>
	  <point x="686" y="527"/>
	  <point x="675" y="518"/>
	  <point x="670" y="500" type="curve" smooth="yes"/>
	  <point x="544" y="86" type="line"/>
	  <point x="417" y="499" type="line" smooth="yes"/>
	  <point x="412" y="516"/>
	  <point x="396" y="527"/>
	  <point x="378" y="527" type="curve" smooth="yes"/>
	  <point x="360" y="527"/>
	  <point x="344" y="516"/>
	  <point x="339" y="499" type="curve" smooth="yes"/>
	  <point x="212" y="86" type="line"/>
	  <point x="86" y="500" type="line" smooth="yes"/>
	  <point x="81" y="518"/>
	  <point x="69" y="527"/>
	  <point x="51" y="527" type="curve" smooth="yes"/>
	  <point x="33" y="527"/>
	  <point x="20" y="514"/>
	  <point x="20" y="500" type="curve" smooth="yes"/>
	  <point x="20" y="494"/>
	  <point x="20" y="487"/>
	  <point x="22" y="482" type="curve"/>
	  <point x="169" y="30" type="line"/>
	  <point x="177" y="8"/>
	  <point x="191" y="-4"/>
	  <point x="213" y="-4" type="curve" smooth="yes"/>
	</contour>
  </outline>
</glyph>
<glyph name="X" format="1">
  <advance width="502"/>
  <unicode hex="0058"/>
  <outline>
	<contour>
	  <point x="74" y="-4"/>
	  <point x="83" y="1"/>
	  <point x="90" y="10" type="curve" smooth="yes"/>
	  <point x="248" y="212" type="line"/>
	  <point x="409" y="11" type="line"/>
	  <point x="416" y="1"/>
	  <point x="426" y="-4"/>
	  <point x="440" y="-4" type="curve" smooth="yes"/>
	  <point x="455" y="-4"/>
	  <point x="470" y="13"/>
	  <point x="470" y="29" type="curve" smooth="yes"/>
	  <point x="470" y="38"/>
	  <point x="467" y="44"/>
	  <point x="463" y="50" type="curve" smooth="yes"/>
	  <point x="290" y="263" type="line"/>
	  <point x="463" y="476" type="line"/>
	  <point x="467" y="482"/>
	  <point x="469" y="488"/>
	  <point x="469" y="497" type="curve" smooth="yes"/>
	  <point x="469" y="512"/>
	  <point x="455" y="527"/>
	  <point x="434" y="527" type="curve" smooth="yes"/>
	  <point x="425" y="527"/>
	  <point x="416" y="524"/>
	  <point x="411" y="515" type="curve"/>
	  <point x="253" y="313" type="line"/>
	  <point x="95" y="514" type="line" smooth="yes"/>
	  <point x="88" y="523"/>
	  <point x="80" y="527"/>
	  <point x="69" y="527" type="curve" smooth="yes"/>
	  <point x="47" y="527"/>
	  <point x="34" y="513"/>
	  <point x="34" y="496" type="curve" smooth="yes"/>
	  <point x="34" y="487"/>
	  <point x="36" y="479"/>
	  <point x="41" y="473" type="curve"/>
	  <point x="212" y="262" type="line"/>
	  <point x="39" y="49" type="line"/>
	  <point x="35" y="43"/>
	  <point x="32" y="36"/>
	  <point x="32" y="28" type="curve" smooth="yes"/>
	  <point x="32" y="11"/>
	  <point x="47" y="-4"/>
	  <point x="65" y="-4" type="curve" smooth="yes"/>
	</contour>
  </outline>
</glyph>
<glyph name="Y" format="1">
  <advance width="484"/>
  <unicode hex="0059"/>
  <outline>
	<contour>
	  <point x="261" y="-4"/>
	  <point x="276" y="11"/>
	  <point x="276" y="30" type="curve" smooth="yes"/>
	  <point x="276" y="221" type="line"/>
	  <point x="456" y="473" type="line"/>
	  <point x="460" y="479"/>
	  <point x="462" y="487"/>
	  <point x="462" y="495" type="curve" smooth="yes"/>
	  <point x="462" y="512"/>
	  <point x="450" y="527"/>
	  <point x="428" y="527" type="curve" smooth="yes"/>
	  <point x="416" y="527"/>
	  <point x="407" y="521"/>
	  <point x="399" y="510" type="curve" smooth="yes"/>
	  <point x="242" y="282" type="line"/>
	  <point x="86" y="510" type="line" smooth="yes"/>
	  <point x="78" y="521"/>
	  <point x="69" y="527"/>
	  <point x="58" y="527" type="curve" smooth="yes"/>
	  <point x="35" y="527"/>
	  <point x="23" y="512"/>
	  <point x="23" y="495" type="curve" smooth="yes"/>
	  <point x="23" y="487"/>
	  <point x="25" y="479"/>
	  <point x="29" y="473" type="curve"/>
	  <point x="208" y="221" type="line"/>
	  <point x="208" y="30" type="line" smooth="yes"/>
	  <point x="208" y="11"/>
	  <point x="224" y="-4"/>
	  <point x="242" y="-4" type="curve" smooth="yes"/>
	</contour>
  </outline>
</glyph>
<glyph name="Z" format="1">
  <advance width="479"/>
  <unicode hex="005A"/>
  <outline>
	<contour>
	  <point x="413" y="0" type="line" smooth="yes"/>
	  <point x="431" y="0"/>
	  <point x="445" y="14"/>
	  <point x="445" y="32" type="curve" smooth="yes"/>
	  <point x="445" y="50"/>
	  <point x="431" y="64"/>
	  <point x="413" y="64" type="curve" smooth="yes"/>
	  <point x="119" y="64" type="line"/>
	  <point x="428" y="447" type="line"/>
	  <point x="437" y="456"/>
	  <point x="440" y="467"/>
	  <point x="440" y="479" type="curve" smooth="yes"/>
	  <point x="440" y="502"/>
	  <point x="424" y="524"/>
	  <point x="395" y="524" type="curve" smooth="yes"/>
	  <point x="69" y="524" type="line" smooth="yes"/>
	  <point x="51" y="524"/>
	  <point x="37" y="509"/>
	  <point x="37" y="491" type="curve" smooth="yes"/>
	  <point x="37" y="473"/>
	  <point x="51" y="458"/>
	  <point x="69" y="458" type="curve" smooth="yes"/>
	  <point x="358" y="458" type="line"/>
	  <point x="44" y="71" type="line" smooth="yes"/>
	  <point x="38" y="64"/>
	  <point x="35" y="54"/>
	  <point x="35" y="43" type="curve" smooth="yes"/>
	  <point x="35" y="20"/>
	  <point x="55" y="0"/>
	  <point x="79" y="0" type="curve" smooth="yes"/>
	</contour>
  </outline>
</glyph>
<glyph name="bracketleft" format="1">
  <advance width="242"/>
  <unicode hex="005B"/>
  <outline>
	<contour>
	  <point x="194" y="-99" type="line" smooth="yes"/>
	  <point x="209" y="-99"/>
	  <point x="221" y="-86"/>
	  <point x="221" y="-72" type="curve" smooth="yes"/>
	  <point x="221" y="-58"/>
	  <point x="209" y="-46"/>
	  <point x="194" y="-46" type="curve" smooth="yes"/>
	  <point x="125" y="-46" type="line"/>
	  <point x="125" y="495" type="line"/>
	  <point x="194" y="495" type="line" smooth="yes"/>
	  <point x="209" y="495"/>
	  <point x="221" y="507"/>
	  <point x="221" y="522" type="curve" smooth="yes"/>
	  <point x="221" y="537"/>
	  <point x="209" y="549"/>
	  <point x="194" y="549" type="curve" smooth="yes"/>
	  <point x="98" y="549" type="line" smooth="yes"/>
	  <point x="80" y="549"/>
	  <point x="65" y="534"/>
	  <point x="65" y="516" type="curve" smooth="yes"/>
	  <point x="65" y="-66" type="line" smooth="yes"/>
	  <point x="65" y="-84"/>
	  <point x="80" y="-99"/>
	  <point x="98" y="-99" type="curve" smooth="yes"/>
	</contour>
  </outline>
</glyph>
<glyph name="backslash" format="1">
  <advance width="332"/>
  <unicode hex="005C"/>
  <outline>
	<contour>
	  <point x="283" y="-71"/>
	  <point x="296" y="-56"/>
	  <point x="296" y="-44" type="curve" smooth="yes"/>
	  <point x="296" y="-37"/>
	  <point x="296" y="-32"/>
	  <point x="294" y="-29" type="curve"/>
	  <point x="95" y="552" type="line" smooth="yes"/>
	  <point x="91" y="566"/>
	  <point x="80" y="573"/>
	  <point x="65" y="573" type="curve" smooth="yes"/>
	  <point x="49" y="573"/>
	  <point x="35" y="558"/>
	  <point x="35" y="545" type="curve" smooth="yes"/>
	  <point x="35" y="539"/>
	  <point x="36" y="534"/>
	  <point x="38" y="531" type="curve"/>
	  <point x="236" y="-50" type="line" smooth="yes"/>
	  <point x="241" y="-65"/>
	  <point x="251" y="-71"/>
	  <point x="267" y="-71" type="curve" smooth="yes"/>
	</contour>
  </outline>
</glyph>
<glyph name="bracketright" format="1">
  <advance width="242"/>
  <unicode hex="005D"/>
  <outline>
	<contour>
	  <point x="143" y="-99" type="line" smooth="yes"/>
	  <point x="161" y="-99"/>
	  <point x="176" y="-84"/>
	  <point x="176" y="-66" type="curve" smooth="yes"/>
	  <point x="176" y="516" type="line" smooth="yes"/>
	  <point x="176" y="534"/>
	  <point x="161" y="549"/>
	  <point x="143" y="549" type="curve" smooth="yes"/>
	  <point x="48" y="549" type="line" smooth="yes"/>
	  <point x="33" y="549"/>
	  <point x="21" y="537"/>
	  <point x="21" y="522" type="curve" smooth="yes"/>
	  <point x="21" y="507"/>
	  <point x="33" y="495"/>
	  <point x="48" y="495" type="curve" smooth="yes"/>
	  <point x="117" y="495" type="line"/>
	  <point x="117" y="-46" type="line"/>
	  <point x="48" y="-46" type="line" smooth="yes"/>
	  <point x="33" y="-46"/>
	  <point x="21" y="-58"/>
	  <point x="21" y="-72" type="curve" smooth="yes"/>
	  <point x="21" y="-86"/>
	  <point x="33" y="-99"/>
	  <point x="48" y="-99" type="curve" smooth="yes"/>
	</contour>
  </outline>
</glyph>
<glyph name="asciicircum" format="1">
  <advance width="393"/>
  <unicode hex="005E"/>
  <outline>
	<contour>
	  <point x="99" y="311"/>
	  <point x="106" y="316"/>
	  <point x="111" y="324" type="curve"/>
	  <point x="112" y="326"/>
	  <point x="116" y="332"/>
	  <point x="122" y="341" type="curve" smooth="yes"/>
	  <point x="127" y="350"/>
	  <point x="136" y="365"/>
	  <point x="147" y="383" type="curve" smooth="yes"/>
	  <point x="158" y="402"/>
	  <point x="175" y="428"/>
	  <point x="196" y="462" type="curve"/>
	  <point x="217" y="428"/>
	  <point x="233" y="401"/>
	  <point x="245" y="383" type="curve" smooth="yes"/>
	  <point x="257" y="364"/>
	  <point x="266" y="350"/>
	  <point x="271" y="341" type="curve" smooth="yes"/>
	  <point x="282" y="322"/>
	  <point x="283" y="311"/>
	  <point x="303" y="311" type="curve" smooth="yes"/>
	  <point x="319" y="311"/>
	  <point x="330" y="326"/>
	  <point x="330" y="335" type="curve" smooth="yes"/>
	  <point x="330" y="340"/>
	  <point x="329" y="343"/>
	  <point x="329" y="345" type="curve" smooth="yes"/>
	  <point x="328" y="347"/>
	  <point x="326" y="350"/>
	  <point x="326" y="352" type="curve"/>
	  <point x="247" y="501" type="line"/>
	  <point x="239" y="515"/>
	  <point x="230" y="527"/>
	  <point x="210" y="527" type="curve" smooth="yes"/>
	  <point x="182" y="527" type="line" smooth="yes"/>
	  <point x="161" y="527"/>
	  <point x="153" y="515"/>
	  <point x="145" y="501" type="curve"/>
	  <point x="66" y="352" type="line"/>
	  <point x="65" y="350"/>
	  <point x="64" y="347"/>
	  <point x="63" y="345" type="curve" smooth="yes"/>
	  <point x="62" y="343"/>
	  <point x="62" y="340"/>
	  <point x="62" y="335" type="curve" smooth="yes"/>
	  <point x="62" y="326"/>
	  <point x="72" y="311"/>
	  <point x="90" y="311" type="curve" smooth="yes"/>
	</contour>
  </outline>
</glyph>
<glyph name="underscore" format="1">
  <advance width="497"/>
  <unicode hex="005F"/>
  <outline>
	<contour>
	  <point x="434" y="-110" type="line" smooth="yes"/>
	  <point x="448" y="-110"/>
	  <point x="458" y="-100"/>
	  <point x="458" y="-86" type="curve" smooth="yes"/>
	  <point x="458" y="-71"/>
	  <point x="448" y="-61"/>
	  <point x="434" y="-61" type="curve" smooth="yes"/>
	  <point x="64" y="-61" type="line" smooth="yes"/>
	  <point x="50" y="-61"/>
	  <point x="39" y="-71"/>
	  <point x="39" y="-86" type="curve" smooth="yes"/>
	  <point x="39" y="-100"/>
	  <point x="50" y="-110"/>
	  <point x="64" y="-110" type="curve" smooth="yes"/>
	</contour>
  </outline>
</glyph>
<glyph name="grave" format="1">
  <advance width="185"/>
  <unicode hex="0060"/>
  <outline>
	<contour>
	  <point x="140" y="425"/>
	  <point x="148" y="434"/>
	  <point x="148" y="446" type="curve" smooth="yes"/>
	  <point x="148" y="452"/>
	  <point x="146" y="456"/>
	  <point x="143" y="460" type="curve"/>
	  <point x="104" y="527" type="line" smooth="yes"/>
	  <point x="99" y="537"/>
	  <point x="92" y="542"/>
	  <point x="82" y="542" type="curve" smooth="yes"/>
	  <point x="62" y="542"/>
	  <point x="52" y="533"/>
	  <point x="52" y="514" type="curve" smooth="yes"/>
	  <point x="52" y="507"/>
	  <point x="54" y="500"/>
	  <point x="59" y="495" type="curve"/>
	  <point x="111" y="434" type="line" smooth="yes"/>
	  <point x="116" y="428"/>
	  <point x="121" y="425"/>
	  <point x="128" y="425" type="curve" smooth="yes"/>
	</contour>
  </outline>
</glyph>
<glyph name="b" format="1">
  <advance width="473"/>
  <unicode hex="0062"/>
  <outline>
	<contour>
	  <point x="352" y="-8"/>
	  <point x="437" y="69"/>
	  <point x="437" y="191" type="curve" smooth="yes"/>
	  <point x="437" y="311"/>
	  <point x="353" y="390"/>
	  <point x="256" y="390" type="curve" smooth="yes"/>
	  <point x="207" y="390"/>
	  <point x="164" y="371"/>
	  <point x="128" y="333" type="curve"/>
	  <point x="128" y="517" type="line" smooth="yes"/>
	  <point x="128" y="537"/>
	  <point x="113" y="551"/>
	  <point x="94" y="551" type="curve" smooth="yes"/>
	  <point x="74" y="551"/>
	  <point x="59" y="537"/>
	  <point x="59" y="517" type="curve" smooth="yes"/>
	  <point x="59" y="30" type="line" smooth="yes"/>
	  <point x="59" y="11"/>
	  <point x="74" y="-4"/>
	  <point x="94" y="-4" type="curve" smooth="yes"/>
	  <point x="113" y="-4"/>
	  <point x="128" y="11"/>
	  <point x="128" y="30" type="curve" smooth="yes"/>
	  <point x="128" y="50" type="line"/>
	  <point x="164" y="11"/>
	  <point x="207" y="-8"/>
	  <point x="256" y="-8" type="curve" smooth="yes"/>
	</contour>
	<contour>
	  <point x="201" y="56"/>
	  <point x="161" y="75"/>
	  <point x="128" y="113" type="curve"/>
	  <point x="128" y="270" type="line"/>
	  <point x="161" y="308"/>
	  <point x="201" y="326"/>
	  <point x="246" y="326" type="curve" smooth="yes"/>
	  <point x="320" y="326"/>
	  <point x="369" y="278"/>
	  <point x="369" y="191" type="curve" smooth="yes"/>
	  <point x="369" y="170"/>
	  <point x="366" y="150"/>
	  <point x="360" y="133" type="curve" smooth="yes"/>
	  <point x="341" y="82"/>
	  <point x="303" y="56"/>
	  <point x="246" y="56" type="curve" smooth="yes"/>
	</contour>
  </outline>
</glyph>
<glyph name="c" format="1">
  <advance width="402"/>
  <unicode hex="0063"/>
  <outline>
	<contour>
	  <point x="279" y="-8"/>
	  <point x="320" y="4"/>
	  <point x="355" y="27" type="curve" smooth="yes"/>
	  <point x="366" y="35"/>
	  <point x="372" y="43"/>
	  <point x="372" y="52" type="curve" smooth="yes"/>
	  <point x="372" y="70"/>
	  <point x="359" y="85"/>
	  <point x="345" y="85" type="curve" smooth="yes"/>
	  <point x="338" y="85"/>
	  <point x="330" y="83"/>
	  <point x="321" y="77" type="curve" smooth="yes"/>
	  <point x="296" y="63"/>
	  <point x="269" y="56"/>
	  <point x="241" y="56" type="curve" smooth="yes"/>
	  <point x="153" y="56"/>
	  <point x="103" y="110"/>
	  <point x="103" y="191" type="curve" smooth="yes"/>
	  <point x="103" y="272"/>
	  <point x="153" y="326"/>
	  <point x="241" y="326" type="curve" smooth="yes"/>
	  <point x="269" y="326"/>
	  <point x="296" y="320"/>
	  <point x="321" y="305" type="curve" smooth="yes"/>
	  <point x="330" y="300"/>
	  <point x="339" y="298"/>
	  <point x="347" y="298" type="curve" smooth="yes"/>
	  <point x="359" y="298"/>
	  <point x="372" y="313"/>
	  <point x="372" y="331" type="curve" smooth="yes"/>
	  <point x="372" y="340"/>
	  <point x="366" y="348"/>
	  <point x="355" y="356" type="curve" smooth="yes"/>
	  <point x="332" y="371"/>
	  <point x="295" y="390"/>
	  <point x="235" y="390" type="curve" smooth="yes"/>
	  <point x="124" y="390"/>
	  <point x="35" y="312"/>
	  <point x="35" y="191" type="curve" smooth="yes"/>
	  <point x="35" y="71"/>
	  <point x="124" y="-8"/>
	  <point x="235" y="-8" type="curve" smooth="yes"/>
	</contour>
  </outline>
</glyph>
<glyph name="d" format="1">
  <advance width="473"/>
  <unicode hex="0064"/>
  <outline>
	<contour>
	  <point x="266" y="-8"/>
	  <point x="309" y="11"/>
	  <point x="346" y="50" type="curve"/>
	  <point x="346" y="30" type="line" smooth="yes"/>
	  <point x="346" y="11"/>
	  <point x="361" y="-4"/>
	  <point x="380" y="-4" type="curve" smooth="yes"/>
	  <point x="400" y="-4"/>
	  <point x="414" y="11"/>
	  <point x="414" y="30" type="curve" smooth="yes"/>
	  <point x="414" y="517" type="line" smooth="yes"/>
	  <point x="414" y="537"/>
	  <point x="400" y="551"/>
	  <point x="380" y="551" type="curve" smooth="yes"/>
	  <point x="361" y="551"/>
	  <point x="346" y="537"/>
	  <point x="346" y="517" type="curve" smooth="yes"/>
	  <point x="346" y="333" type="line"/>
	  <point x="309" y="371"/>
	  <point x="266" y="390"/>
	  <point x="218" y="390" type="curve" smooth="yes"/>
	  <point x="121" y="390"/>
	  <point x="36" y="311"/>
	  <point x="36" y="191" type="curve" smooth="yes"/>
	  <point x="36" y="69"/>
	  <point x="122" y="-8"/>
	  <point x="218" y="-8" type="curve" smooth="yes"/>
	</contour>
	<contour>
	  <point x="153" y="56"/>
	  <point x="104" y="105"/>
	  <point x="104" y="191" type="curve" smooth="yes"/>
	  <point x="104" y="269"/>
	  <point x="146" y="326"/>
	  <point x="227" y="326" type="curve" smooth="yes"/>
	  <point x="272" y="326"/>
	  <point x="312" y="308"/>
	  <point x="346" y="270" type="curve"/>
	  <point x="346" y="113" type="line"/>
	  <point x="312" y="75"/>
	  <point x="272" y="56"/>
	  <point x="227" y="56" type="curve" smooth="yes"/>
	</contour>
  </outline>
</glyph>
<glyph name="f" format="1">
  <advance width="285"/>
  <unicode hex="0066"/>
  <outline>
	<contour>
	  <point x="142" y="-4"/>
	  <point x="156" y="11"/>
	  <point x="156" y="30" type="curve" smooth="yes"/>
	  <point x="156" y="324" type="line"/>
	  <point x="250" y="324" type="line" smooth="yes"/>
	  <point x="267" y="324"/>
	  <point x="279" y="336"/>
	  <point x="279" y="353" type="curve" smooth="yes"/>
	  <point x="279" y="371"/>
	  <point x="267" y="383"/>
	  <point x="250" y="383" type="curve" smooth="yes"/>
	  <point x="156" y="383" type="line"/>
	  <point x="156" y="424" type="line" smooth="yes"/>
	  <point x="156" y="477"/>
	  <point x="179" y="490"/>
	  <point x="218" y="490" type="curve"/>
	  <point x="255" y="485" type="line"/>
	  <point x="271" y="485"/>
	  <point x="283" y="499"/>
	  <point x="283" y="517" type="curve" smooth="yes"/>
	  <point x="283" y="526"/>
	  <point x="277" y="533"/>
	  <point x="266" y="540" type="curve"/>
	  <point x="245" y="550"/>
	  <point x="224" y="555"/>
	  <point x="200" y="555" type="curve" smooth="yes"/>
	  <point x="140" y="555"/>
	  <point x="88" y="513"/>
	  <point x="88" y="426" type="curve" smooth="yes"/>
	  <point x="88" y="383" type="line"/>
	  <point x="44" y="383" type="line" smooth="yes"/>
	  <point x="26" y="383"/>
	  <point x="14" y="371"/>
	  <point x="14" y="353" type="curve" smooth="yes"/>
	  <point x="14" y="336"/>
	  <point x="26" y="324"/>
	  <point x="44" y="324" type="curve" smooth="yes"/>
	  <point x="88" y="324" type="line"/>
	  <point x="88" y="30" type="line" smooth="yes"/>
	  <point x="88" y="11"/>
	  <point x="103" y="-4"/>
	  <point x="122" y="-4" type="curve" smooth="yes"/>
	</contour>
  </outline>
</glyph>
<glyph name="g" format="1">
  <advance width="473"/>
  <unicode hex="0067"/>
  <outline>
	<contour>
	  <point x="351" y="-180"/>
	  <point x="414" y="-110"/>
	  <point x="414" y="17" type="curve" smooth="yes"/>
	  <point x="414" y="352" type="line" smooth="yes"/>
	  <point x="414" y="371"/>
	  <point x="398" y="386"/>
	  <point x="380" y="386" type="curve" smooth="yes"/>
	  <point x="361" y="386"/>
	  <point x="346" y="371"/>
	  <point x="346" y="352" type="curve" smooth="yes"/>
	  <point x="346" y="333" type="line"/>
	  <point x="311" y="371"/>
	  <point x="269" y="390"/>
	  <point x="220" y="390" type="curve" smooth="yes"/>
	  <point x="122" y="390"/>
	  <point x="36" y="318"/>
	  <point x="36" y="195" type="curve" smooth="yes"/>
	  <point x="36" y="72"/>
	  <point x="122" y="0"/>
	  <point x="218" y="0" type="curve" smooth="yes"/>
	  <point x="268" y="0"/>
	  <point x="311" y="19"/>
	  <point x="346" y="57" type="curve"/>
	  <point x="346" y="7" type="line" smooth="yes"/>
	  <point x="346" y="-75"/>
	  <point x="308" y="-116"/>
	  <point x="231" y="-116" type="curve" smooth="yes"/>
	  <point x="187" y="-116"/>
	  <point x="146" y="-106"/>
	  <point x="107" y="-87" type="curve"/>
	  <point x="102" y="-85"/>
	  <point x="97" y="-84"/>
	  <point x="91" y="-84" type="curve" smooth="yes"/>
	  <point x="78" y="-84"/>
	  <point x="64" y="-98"/>
	  <point x="64" y="-118" type="curve" smooth="yes"/>
	  <point x="64" y="-128"/>
	  <point x="68" y="-136"/>
	  <point x="77" y="-141" type="curve" smooth="yes"/>
	  <point x="125" y="-167"/>
	  <point x="178" y="-180"/>
	  <point x="238" y="-180" type="curve" smooth="yes"/>
	</contour>
	<contour>
	  <point x="152" y="62"/>
	  <point x="104" y="109"/>
	  <point x="104" y="195" type="curve" smooth="yes"/>
	  <point x="104" y="281"/>
	  <point x="152" y="328"/>
	  <point x="238" y="328" type="curve" smooth="yes"/>
	  <point x="282" y="328"/>
	  <point x="318" y="302"/>
	  <point x="346" y="272" type="curve"/>
	  <point x="346" y="118" type="line"/>
	  <point x="311" y="81"/>
	  <point x="275" y="62"/>
	  <point x="238" y="62" type="curve" smooth="yes"/>
	</contour>
  </outline>
</glyph>
<glyph name="i" format="1">
  <advance width="193"/>
  <unicode hex="0069"/>
  <outline>
	<contour>
	  <point x="116" y="-4"/>
	  <point x="131" y="11"/>
	  <point x="131" y="30" type="curve" smooth="yes"/>
	  <point x="131" y="352" type="line" smooth="yes"/>
	  <point x="131" y="372"/>
	  <point x="116" y="386"/>
	  <point x="97" y="386" type="curve" smooth="yes"/>
	  <point x="77" y="386"/>
	  <point x="62" y="372"/>
	  <point x="62" y="352" type="curve" smooth="yes"/>
	  <point x="62" y="30" type="line" smooth="yes"/>
	  <point x="62" y="11"/>
	  <point x="77" y="-4"/>
	  <point x="97" y="-4" type="curve" smooth="yes"/>
	</contour>
	<contour>
	  <point x="99" y="461" type="line" smooth="yes"/>
	  <point x="120" y="461"/>
	  <point x="137" y="478"/>
	  <point x="137" y="499" type="curve" smooth="yes"/>
	  <point x="137" y="502" type="line" smooth="yes"/>
	  <point x="137" y="523"/>
	  <point x="120" y="540"/>
	  <point x="99" y="540" type="curve" smooth="yes"/>
	  <point x="95" y="540" type="line" smooth="yes"/>
	  <point x="74" y="540"/>
	  <point x="56" y="523"/>
	  <point x="56" y="502" type="curve" smooth="yes"/>
	  <point x="56" y="499" type="line" smooth="yes"/>
	  <point x="56" y="478"/>
	  <point x="74" y="461"/>
	  <point x="95" y="461" type="curve" smooth="yes"/>
	</contour>
  </outline>
</glyph>
<glyph name="j" format="1">
  <advance width="193"/>
  <unicode hex="006A"/>
  <outline>
	<contour>
	  <point x="50" y="-180"/>
	  <point x="65" y="-178"/>
	  <point x="78" y="-173" type="curve" smooth="yes"/>
	  <point x="113" y="-158"/>
	  <point x="131" y="-126"/>
	  <point x="131" y="-77" type="curve" smooth="yes"/>
	  <point x="131" y="351" type="line" smooth="yes"/>
	  <point x="131" y="371"/>
	  <point x="116" y="386"/>
	  <point x="97" y="386" type="curve" smooth="yes"/>
	  <point x="77" y="386"/>
	  <point x="62" y="371"/>
	  <point x="62" y="351" type="curve" smooth="yes"/>
	  <point x="62" y="-76" type="line" smooth="yes"/>
	  <point x="62" y="-114"/>
	  <point x="47" y="-120"/>
	  <point x="17" y="-120" type="curve"/>
	  <point x="-6" y="-118" type="line"/>
	  <point x="-23" y="-118"/>
	  <point x="-35" y="-131"/>
	  <point x="-35" y="-146" type="curve" smooth="yes"/>
	  <point x="-35" y="-174"/>
	  <point x="-4" y="-180"/>
	  <point x="32" y="-180" type="curve" smooth="yes"/>
	</contour>
	<contour>
	  <point x="99" y="461" type="line" smooth="yes"/>
	  <point x="120" y="461"/>
	  <point x="137" y="478"/>
	  <point x="137" y="499" type="curve" smooth="yes"/>
	  <point x="137" y="502" type="line" smooth="yes"/>
	  <point x="137" y="523"/>
	  <point x="120" y="540"/>
	  <point x="99" y="540" type="curve" smooth="yes"/>
	  <point x="95" y="540" type="line" smooth="yes"/>
	  <point x="74" y="540"/>
	  <point x="56" y="523"/>
	  <point x="56" y="502" type="curve" smooth="yes"/>
	  <point x="56" y="499" type="line" smooth="yes"/>
	  <point x="56" y="478"/>
	  <point x="74" y="461"/>
	  <point x="95" y="461" type="curve" smooth="yes"/>
	</contour>
  </outline>
</glyph>
<glyph name="k" format="1">
  <advance width="410"/>
  <unicode hex="006B"/>
  <outline>
	<contour>
	  <point x="112" y="-4"/>
	  <point x="128" y="11"/>
	  <point x="128" y="30" type="curve" smooth="yes"/>
	  <point x="128" y="127" type="line"/>
	  <point x="193" y="186" type="line"/>
	  <point x="322" y="11" type="line"/>
	  <point x="330" y="1"/>
	  <point x="341" y="-4"/>
	  <point x="353" y="-4" type="curve" smooth="yes"/>
	  <point x="368" y="-4"/>
	  <point x="384" y="10"/>
	  <point x="384" y="27" type="curve" smooth="yes"/>
	  <point x="384" y="35"/>
	  <point x="382" y="43"/>
	  <point x="377" y="50" type="curve" smooth="yes"/>
	  <point x="241" y="230" type="line"/>
	  <point x="349" y="326" type="line"/>
	  <point x="357" y="335"/>
	  <point x="362" y="344"/>
	  <point x="362" y="356" type="curve" smooth="yes"/>
	  <point x="362" y="365"/>
	  <point x="353" y="385"/>
	  <point x="333" y="385" type="curve" smooth="yes"/>
	  <point x="323" y="385"/>
	  <point x="314" y="382"/>
	  <point x="306" y="375" type="curve"/>
	  <point x="128" y="210" type="line"/>
	  <point x="128" y="517" type="line" smooth="yes"/>
	  <point x="128" y="536"/>
	  <point x="112" y="551"/>
	  <point x="93" y="551" type="curve" smooth="yes"/>
	  <point x="74" y="551"/>
	  <point x="59" y="536"/>
	  <point x="59" y="517" type="curve" smooth="yes"/>
	  <point x="59" y="30" type="line" smooth="yes"/>
	  <point x="59" y="11"/>
	  <point x="74" y="-4"/>
	  <point x="93" y="-4" type="curve" smooth="yes"/>
	</contour>
  </outline>
</glyph>
<glyph name="l" format="1">
  <advance width="199"/>
  <unicode hex="006C"/>
  <outline>
	<contour>
	  <point x="119" y="-4"/>
	  <point x="134" y="11"/>
	  <point x="134" y="30" type="curve" smooth="yes"/>
	  <point x="134" y="517" type="line" smooth="yes"/>
	  <point x="134" y="537"/>
	  <point x="119" y="551"/>
	  <point x="100" y="551" type="curve" smooth="yes"/>
	  <point x="80" y="551"/>
	  <point x="65" y="537"/>
	  <point x="65" y="517" type="curve" smooth="yes"/>
	  <point x="65" y="30" type="line" smooth="yes"/>
	  <point x="65" y="11"/>
	  <point x="80" y="-4"/>
	  <point x="100" y="-4" type="curve" smooth="yes"/>
	</contour>
  </outline>
</glyph>
<glyph name="m" format="1">
  <advance width="689"/>
  <unicode hex="006D"/>
  <outline>
	<contour>
	  <point x="112" y="-4"/>
	  <point x="128" y="11"/>
	  <point x="128" y="30" type="curve" smooth="yes"/>
	  <point x="128" y="255" type="line"/>
	  <point x="155" y="303"/>
	  <point x="191" y="327"/>
	  <point x="236" y="327" type="curve" smooth="yes"/>
	  <point x="293" y="327"/>
	  <point x="312" y="296"/>
	  <point x="312" y="233" type="curve" smooth="yes"/>
	  <point x="312" y="30" type="line" smooth="yes"/>
	  <point x="312" y="11"/>
	  <point x="327" y="-4"/>
	  <point x="346" y="-4" type="curve" smooth="yes"/>
	  <point x="365" y="-4"/>
	  <point x="380" y="11"/>
	  <point x="380" y="30" type="curve" smooth="yes"/>
	  <point x="380" y="255" type="line"/>
	  <point x="408" y="303"/>
	  <point x="444" y="327"/>
	  <point x="488" y="327" type="curve" smooth="yes"/>
	  <point x="545" y="327"/>
	  <point x="565" y="296"/>
	  <point x="565" y="233" type="curve" smooth="yes"/>
	  <point x="565" y="30" type="line" smooth="yes"/>
	  <point x="565" y="11"/>
	  <point x="580" y="-4"/>
	  <point x="599" y="-4" type="curve" smooth="yes"/>
	  <point x="617" y="-4"/>
	  <point x="633" y="11"/>
	  <point x="633" y="30" type="curve" smooth="yes"/>
	  <point x="633" y="246" type="line" smooth="yes"/>
	  <point x="633" y="323"/>
	  <point x="589" y="390"/>
	  <point x="508" y="390" type="curve" smooth="yes"/>
	  <point x="436" y="390"/>
	  <point x="398" y="357"/>
	  <point x="370" y="313" type="curve"/>
	  <point x="351" y="359"/>
	  <point x="309" y="390"/>
	  <point x="255" y="390" type="curve" smooth="yes"/>
	  <point x="200" y="390"/>
	  <point x="158" y="367"/>
	  <point x="128" y="321" type="curve"/>
	  <point x="128" y="352" type="line" smooth="yes"/>
	  <point x="128" y="371"/>
	  <point x="112" y="386"/>
	  <point x="93" y="386" type="curve" smooth="yes"/>
	  <point x="74" y="386"/>
	  <point x="59" y="371"/>
	  <point x="59" y="352" type="curve" smooth="yes"/>
	  <point x="59" y="30" type="line" smooth="yes"/>
	  <point x="59" y="11"/>
	  <point x="74" y="-4"/>
	  <point x="93" y="-4" type="curve" smooth="yes"/>
	</contour>
  </outline>
</glyph>
<glyph name="n" format="1">
  <advance width="457"/>
  <unicode hex="006E"/>
  <outline>
	<contour>
	  <point x="112" y="-4"/>
	  <point x="128" y="11"/>
	  <point x="128" y="30" type="curve" smooth="yes"/>
	  <point x="128" y="255" type="line"/>
	  <point x="166" y="303"/>
	  <point x="206" y="327"/>
	  <point x="251" y="327" type="curve" smooth="yes"/>
	  <point x="310" y="327"/>
	  <point x="333" y="293"/>
	  <point x="333" y="236" type="curve" smooth="yes"/>
	  <point x="333" y="30" type="line" smooth="yes"/>
	  <point x="333" y="11"/>
	  <point x="348" y="-4"/>
	  <point x="367" y="-4" type="curve" smooth="yes"/>
	  <point x="386" y="-4"/>
	  <point x="401" y="11"/>
	  <point x="401" y="30" type="curve" smooth="yes"/>
	  <point x="401" y="243" type="line" smooth="yes"/>
	  <point x="401" y="284"/>
	  <point x="389" y="319"/>
	  <point x="366" y="347" type="curve" smooth="yes"/>
	  <point x="343" y="374"/>
	  <point x="312" y="390"/>
	  <point x="261" y="390" type="curve" smooth="yes"/>
	  <point x="209" y="390"/>
	  <point x="167" y="363"/>
	  <point x="128" y="321" type="curve"/>
	  <point x="128" y="352" type="line" smooth="yes"/>
	  <point x="128" y="372"/>
	  <point x="112" y="386"/>
	  <point x="93" y="386" type="curve" smooth="yes"/>
	  <point x="74" y="386"/>
	  <point x="59" y="372"/>
	  <point x="59" y="352" type="curve" smooth="yes"/>
	  <point x="59" y="30" type="line" smooth="yes"/>
	  <point x="59" y="11"/>
	  <point x="74" y="-4"/>
	  <point x="93" y="-4" type="curve" smooth="yes"/>
	</contour>
  </outline>
</glyph>
<glyph name="o" format="1">
  <advance width="456"/>
  <unicode hex="006F"/>
  <outline>
	<contour>
	  <point x="344" y="-8"/>
	  <point x="420" y="74"/>
	  <point x="420" y="191" type="curve" smooth="yes"/>
	  <point x="420" y="309"/>
	  <point x="344" y="390"/>
	  <point x="228" y="390" type="curve" smooth="yes"/>
	  <point x="111" y="390"/>
	  <point x="36" y="311"/>
	  <point x="36" y="191" type="curve" smooth="yes"/>
	  <point x="36" y="72"/>
	  <point x="111" y="-8"/>
	  <point x="228" y="-8" type="curve" smooth="yes"/>
	</contour>
	<contour>
	  <point x="200" y="55"/>
	  <point x="168" y="65"/>
	  <point x="145" y="86" type="curve" smooth="yes"/>
	  <point x="121" y="107"/>
	  <point x="104" y="143"/>
	  <point x="104" y="192" type="curve" smooth="yes"/>
	  <point x="104" y="217"/>
	  <point x="108" y="238"/>
	  <point x="116" y="255" type="curve" smooth="yes"/>
	  <point x="137" y="304"/>
	  <point x="174" y="328"/>
	  <point x="228" y="328" type="curve" smooth="yes"/>
	  <point x="294" y="328"/>
	  <point x="352" y="282"/>
	  <point x="352" y="192" type="curve" smooth="yes"/>
	  <point x="352" y="146"/>
	  <point x="338" y="110"/>
	  <point x="311" y="86" type="curve" smooth="yes"/>
	  <point x="287" y="65"/>
	  <point x="257" y="55"/>
	  <point x="228" y="55" type="curve" smooth="yes"/>
	</contour>
  </outline>
</glyph>
<glyph name="p" format="1">
  <advance width="473"/>
  <unicode hex="0070"/>
  <outline>
	<contour>
	  <point x="113" y="-176"/>
	  <point x="128" y="-162"/>
	  <point x="128" y="-142" type="curve" smooth="yes"/>
	  <point x="128" y="50" type="line"/>
	  <point x="164" y="11"/>
	  <point x="207" y="-8"/>
	  <point x="256" y="-8" type="curve" smooth="yes"/>
	  <point x="352" y="-8"/>
	  <point x="437" y="69"/>
	  <point x="437" y="191" type="curve" smooth="yes"/>
	  <point x="437" y="311"/>
	  <point x="353" y="390"/>
	  <point x="256" y="390" type="curve" smooth="yes"/>
	  <point x="207" y="390"/>
	  <point x="164" y="371"/>
	  <point x="128" y="333" type="curve"/>
	  <point x="128" y="353" type="line" smooth="yes"/>
	  <point x="128" y="371"/>
	  <point x="113" y="386"/>
	  <point x="94" y="386" type="curve" smooth="yes"/>
	  <point x="74" y="386"/>
	  <point x="59" y="371"/>
	  <point x="59" y="353" type="curve" smooth="yes"/>
	  <point x="59" y="-142" type="line" smooth="yes"/>
	  <point x="59" y="-162"/>
	  <point x="74" y="-176"/>
	  <point x="94" y="-176" type="curve" smooth="yes"/>
	</contour>
	<contour>
	  <point x="201" y="56"/>
	  <point x="161" y="75"/>
	  <point x="128" y="113" type="curve"/>
	  <point x="128" y="270" type="line"/>
	  <point x="161" y="308"/>
	  <point x="201" y="326"/>
	  <point x="246" y="326" type="curve" smooth="yes"/>
	  <point x="320" y="326"/>
	  <point x="369" y="278"/>
	  <point x="369" y="191" type="curve" smooth="yes"/>
	  <point x="369" y="170"/>
	  <point x="366" y="150"/>
	  <point x="360" y="133" type="curve" smooth="yes"/>
	  <point x="341" y="82"/>
	  <point x="303" y="56"/>
	  <point x="246" y="56" type="curve" smooth="yes"/>
	</contour>
  </outline>
</glyph>
<glyph name="q" format="1">
  <advance width="473"/>
  <unicode hex="0071"/>
  <outline>
	<contour>
	  <point x="400" y="-176"/>
	  <point x="414" y="-162"/>
	  <point x="414" y="-142" type="curve" smooth="yes"/>
	  <point x="414" y="353" type="line" smooth="yes"/>
	  <point x="414" y="371"/>
	  <point x="400" y="386"/>
	  <point x="380" y="386" type="curve" smooth="yes"/>
	  <point x="361" y="386"/>
	  <point x="346" y="371"/>
	  <point x="346" y="353" type="curve" smooth="yes"/>
	  <point x="346" y="333" type="line"/>
	  <point x="309" y="371"/>
	  <point x="266" y="390"/>
	  <point x="218" y="390" type="curve" smooth="yes"/>
	  <point x="121" y="390"/>
	  <point x="36" y="311"/>
	  <point x="36" y="191" type="curve" smooth="yes"/>
	  <point x="36" y="69"/>
	  <point x="122" y="-8"/>
	  <point x="218" y="-8" type="curve" smooth="yes"/>
	  <point x="266" y="-8"/>
	  <point x="309" y="11"/>
	  <point x="346" y="50" type="curve"/>
	  <point x="346" y="-142" type="line" smooth="yes"/>
	  <point x="346" y="-162"/>
	  <point x="361" y="-176"/>
	  <point x="380" y="-176" type="curve" smooth="yes"/>
	</contour>
	<contour>
	  <point x="153" y="56"/>
	  <point x="104" y="105"/>
	  <point x="104" y="191" type="curve" smooth="yes"/>
	  <point x="104" y="213"/>
	  <point x="107" y="233"/>
	  <point x="114" y="250" type="curve" smooth="yes"/>
	  <point x="133" y="301"/>
	  <point x="170" y="326"/>
	  <point x="227" y="326" type="curve" smooth="yes"/>
	  <point x="272" y="326"/>
	  <point x="312" y="308"/>
	  <point x="346" y="270" type="curve"/>
	  <point x="346" y="113" type="line"/>
	  <point x="312" y="75"/>
	  <point x="272" y="56"/>
	  <point x="227" y="56" type="curve" smooth="yes"/>
	</contour>
  </outline>
</glyph>
<glyph name="r" format="1">
  <advance width="290"/>
  <unicode hex="0072"/>
  <outline>
	<contour>
	  <point x="112" y="-4"/>
	  <point x="128" y="11"/>
	  <point x="128" y="30" type="curve" smooth="yes"/>
	  <point x="128" y="258" type="line"/>
	  <point x="154" y="297"/>
	  <point x="194" y="324"/>
	  <point x="244" y="324" type="curve" smooth="yes"/>
	  <point x="248" y="324" type="line" smooth="yes"/>
	  <point x="268" y="324"/>
	  <point x="282" y="337"/>
	  <point x="282" y="356" type="curve" smooth="yes"/>
	  <point x="282" y="376"/>
	  <point x="268" y="390"/>
	  <point x="249" y="390" type="curve" smooth="yes"/>
	  <point x="245" y="390" type="line" smooth="yes"/>
	  <point x="202" y="390"/>
	  <point x="163" y="367"/>
	  <point x="128" y="320" type="curve"/>
	  <point x="128" y="352" type="line" smooth="yes"/>
	  <point x="128" y="371"/>
	  <point x="112" y="386"/>
	  <point x="93" y="386" type="curve" smooth="yes"/>
	  <point x="74" y="386"/>
	  <point x="59" y="371"/>
	  <point x="59" y="352" type="curve" smooth="yes"/>
	  <point x="59" y="30" type="line" smooth="yes"/>
	  <point x="59" y="11"/>
	  <point x="74" y="-4"/>
	  <point x="93" y="-4" type="curve" smooth="yes"/>
	</contour>
  </outline>
</glyph>
<glyph name="t" format="1">
  <advance width="288"/>
  <unicode hex="0074"/>
  <outline>
	<contour>
	  <point x="218" y="-8"/>
	  <point x="236" y="-2"/>
	  <point x="258" y="8" type="curve" smooth="yes"/>
	  <point x="268" y="12"/>
	  <point x="273" y="20"/>
	  <point x="273" y="29" type="curve" smooth="yes"/>
	  <point x="273" y="50"/>
	  <point x="260" y="59"/>
	  <point x="247" y="59" type="curve" smooth="yes"/>
	  <point x="240" y="59"/>
	  <point x="233" y="59"/>
	  <point x="228" y="56" type="curve"/>
	  <point x="222" y="54"/>
	  <point x="212" y="53"/>
	  <point x="200" y="53" type="curve" smooth="yes"/>
	  <point x="173" y="53"/>
	  <point x="152" y="59"/>
	  <point x="152" y="98" type="curve" smooth="yes"/>
	  <point x="152" y="324" type="line"/>
	  <point x="237" y="324" type="line" smooth="yes"/>
	  <point x="254" y="324"/>
	  <point x="266" y="336"/>
	  <point x="266" y="353" type="curve" smooth="yes"/>
	  <point x="266" y="371"/>
	  <point x="254" y="383"/>
	  <point x="237" y="383" type="curve" smooth="yes"/>
	  <point x="152" y="383" type="line"/>
	  <point x="152" y="443" type="line" smooth="yes"/>
	  <point x="152" y="451"/>
	  <point x="146" y="458"/>
	  <point x="138" y="458" type="curve" smooth="yes"/>
	  <point x="134" y="458"/>
	  <point x="130" y="455"/>
	  <point x="125" y="451" type="curve" smooth="yes"/>
	  <point x="23" y="351" type="line"/>
	  <point x="19" y="347"/>
	  <point x="17" y="343"/>
	  <point x="17" y="338" type="curve" smooth="yes"/>
	  <point x="17" y="329"/>
	  <point x="21" y="324"/>
	  <point x="31" y="324" type="curve" smooth="yes"/>
	  <point x="84" y="324" type="line"/>
	  <point x="84" y="92" type="line" smooth="yes"/>
	  <point x="84" y="52"/>
	  <point x="98" y="23"/>
	  <point x="125" y="8" type="curve" smooth="yes"/>
	  <point x="149" y="-7"/>
	  <point x="173" y="-8"/>
	  <point x="203" y="-8" type="curve" smooth="yes"/>
	</contour>
  </outline>
</glyph>
<glyph name="u" format="1">
  <advance width="458"/>
  <unicode hex="0075"/>
  <outline>
	<contour>
	  <point x="248" y="-8"/>
	  <point x="290" y="20"/>
	  <point x="330" y="62" type="curve"/>
	  <point x="330" y="31" type="line" smooth="yes"/>
	  <point x="330" y="11"/>
	  <point x="346" y="-4"/>
	  <point x="365" y="-4" type="curve" smooth="yes"/>
	  <point x="383" y="-4"/>
	  <point x="398" y="11"/>
	  <point x="398" y="31" type="curve" smooth="yes"/>
	  <point x="398" y="353" type="line" smooth="yes"/>
	  <point x="398" y="371"/>
	  <point x="383" y="386"/>
	  <point x="365" y="386" type="curve" smooth="yes"/>
	  <point x="346" y="386"/>
	  <point x="330" y="371"/>
	  <point x="330" y="353" type="curve" smooth="yes"/>
	  <point x="330" y="128" type="line"/>
	  <point x="292" y="80"/>
	  <point x="251" y="56"/>
	  <point x="207" y="56" type="curve" smooth="yes"/>
	  <point x="148" y="56"/>
	  <point x="125" y="90"/>
	  <point x="125" y="147" type="curve" smooth="yes"/>
	  <point x="125" y="353" type="line" smooth="yes"/>
	  <point x="125" y="371"/>
	  <point x="110" y="386"/>
	  <point x="91" y="386" type="curve" smooth="yes"/>
	  <point x="72" y="386"/>
	  <point x="56" y="371"/>
	  <point x="56" y="353" type="curve" smooth="yes"/>
	  <point x="56" y="140" type="line" smooth="yes"/>
	  <point x="56" y="98"/>
	  <point x="68" y="64"/>
	  <point x="92" y="36" type="curve" smooth="yes"/>
	  <point x="115" y="9"/>
	  <point x="146" y="-8"/>
	  <point x="197" y="-8" type="curve" smooth="yes"/>
	</contour>
  </outline>
</glyph>
<glyph name="v" format="1">
  <advance width="398"/>
  <unicode hex="0076"/>
  <outline>
	<contour>
	  <point x="203" y="-4" type="line" smooth="yes"/>
	  <point x="221" y="-4"/>
	  <point x="237" y="9"/>
	  <point x="244" y="24" type="curve" smooth="yes"/>
	  <point x="374" y="336" type="line"/>
	  <point x="377" y="342"/>
	  <point x="378" y="349"/>
	  <point x="378" y="357" type="curve" smooth="yes"/>
	  <point x="378" y="369"/>
	  <point x="362" y="386"/>
	  <point x="347" y="386" type="curve" smooth="yes"/>
	  <point x="331" y="386"/>
	  <point x="320" y="380"/>
	  <point x="314" y="367" type="curve"/>
	  <point x="199" y="76" type="line"/>
	  <point x="84" y="367" type="line"/>
	  <point x="78" y="380"/>
	  <point x="67" y="386"/>
	  <point x="51" y="386" type="curve" smooth="yes"/>
	  <point x="35" y="386"/>
	  <point x="20" y="370"/>
	  <point x="20" y="356" type="curve" smooth="yes"/>
	  <point x="20" y="349"/>
	  <point x="21" y="342"/>
	  <point x="23" y="336" type="curve"/>
	  <point x="154" y="24" type="line" smooth="yes"/>
	  <point x="161" y="9"/>
	  <point x="176" y="-4"/>
	  <point x="195" y="-4" type="curve" smooth="yes"/>
	</contour>
  </outline>
</glyph>
<glyph name="w" format="1">
  <advance width="589"/>
  <unicode hex="0077"/>
  <outline>
	<contour>
	  <point x="191" y="-4"/>
	  <point x="209" y="11"/>
	  <point x="215" y="29" type="curve"/>
	  <point x="295" y="277" type="line"/>
	  <point x="374" y="29" type="line"/>
	  <point x="381" y="11"/>
	  <point x="398" y="-4"/>
	  <point x="419" y="-4" type="curve" smooth="yes"/>
	  <point x="439" y="-4"/>
	  <point x="456" y="11"/>
	  <point x="462" y="28" type="curve" smooth="yes"/>
	  <point x="569" y="340" type="line" smooth="yes"/>
	  <point x="570" y="344"/>
	  <point x="571" y="350"/>
	  <point x="571" y="357" type="curve" smooth="yes"/>
	  <point x="571" y="371"/>
	  <point x="556" y="386"/>
	  <point x="539" y="386" type="curve" smooth="yes"/>
	  <point x="521" y="386"/>
	  <point x="510" y="380"/>
	  <point x="506" y="366" type="curve" smooth="yes"/>
	  <point x="419" y="77" type="line"/>
	  <point x="332" y="359" type="line" smooth="yes"/>
	  <point x="326" y="375"/>
	  <point x="312" y="386"/>
	  <point x="295" y="386" type="curve" smooth="yes"/>
	  <point x="278" y="386"/>
	  <point x="263" y="375"/>
	  <point x="258" y="359" type="curve" smooth="yes"/>
	  <point x="171" y="77" type="line"/>
	  <point x="83" y="366" type="line" smooth="yes"/>
	  <point x="80" y="380"/>
	  <point x="68" y="386"/>
	  <point x="51" y="386" type="curve" smooth="yes"/>
	  <point x="34" y="386"/>
	  <point x="19" y="371"/>
	  <point x="19" y="357" type="curve" smooth="yes"/>
	  <point x="19" y="350"/>
	  <point x="20" y="344"/>
	  <point x="21" y="340" type="curve" smooth="yes"/>
	  <point x="128" y="28" type="line" smooth="yes"/>
	  <point x="134" y="11"/>
	  <point x="151" y="-4"/>
	  <point x="171" y="-4" type="curve" smooth="yes"/>
	</contour>
  </outline>
</glyph>
<glyph name="x" format="1">
  <advance width="407"/>
  <unicode hex="0078"/>
  <outline>
	<contour>
	  <point x="84" y="-4"/>
	  <point x="93" y="2"/>
	  <point x="101" y="11" type="curve" smooth="yes"/>
	  <point x="201" y="137" type="line"/>
	  <point x="308" y="10" type="line"/>
	  <point x="314" y="1"/>
	  <point x="323" y="-4"/>
	  <point x="335" y="-4" type="curve" smooth="yes"/>
	  <point x="357" y="-4"/>
	  <point x="368" y="14"/>
	  <point x="368" y="31" type="curve" smooth="yes"/>
	  <point x="368" y="39"/>
	  <point x="365" y="46"/>
	  <point x="360" y="53" type="curve" smooth="yes"/>
	  <point x="243" y="194" type="line"/>
	  <point x="362" y="333" type="line"/>
	  <point x="367" y="340"/>
	  <point x="369" y="347"/>
	  <point x="369" y="356" type="curve" smooth="yes"/>
	  <point x="369" y="372"/>
	  <point x="355" y="386"/>
	  <point x="334" y="386" type="curve" smooth="yes"/>
	  <point x="323" y="386"/>
	  <point x="314" y="382"/>
	  <point x="308" y="374" type="curve"/>
	  <point x="204" y="244" type="line"/>
	  <point x="99" y="374" type="line"/>
	  <point x="93" y="382"/>
	  <point x="85" y="386"/>
	  <point x="74" y="386" type="curve" smooth="yes"/>
	  <point x="53" y="386"/>
	  <point x="38" y="373"/>
	  <point x="38" y="355" type="curve" smooth="yes"/>
	  <point x="38" y="346"/>
	  <point x="41" y="338"/>
	  <point x="47" y="331" type="curve" smooth="yes"/>
	  <point x="163" y="189" type="line"/>
	  <point x="47" y="52" type="line"/>
	  <point x="41" y="45"/>
	  <point x="39" y="38"/>
	  <point x="39" y="29" type="curve" smooth="yes"/>
	  <point x="39" y="11"/>
	  <point x="51" y="-4"/>
	  <point x="73" y="-4" type="curve" smooth="yes"/>
	</contour>
  </outline>
</glyph>
<glyph name="z" format="1">
  <advance width="374"/>
  <unicode hex="007A"/>
  <outline>
	<contour>
	  <point x="311" y="0" type="line" smooth="yes"/>
	  <point x="329" y="0"/>
	  <point x="343" y="14"/>
	  <point x="343" y="32" type="curve" smooth="yes"/>
	  <point x="343" y="50"/>
	  <point x="329" y="64"/>
	  <point x="311" y="64" type="curve" smooth="yes"/>
	  <point x="118" y="64" type="line"/>
	  <point x="328" y="310" type="line" smooth="yes"/>
	  <point x="335" y="318"/>
	  <point x="338" y="329"/>
	  <point x="338" y="341" type="curve" smooth="yes"/>
	  <point x="338" y="365"/>
	  <point x="321" y="383"/>
	  <point x="295" y="383" type="curve" smooth="yes"/>
	  <point x="68" y="383" type="line" smooth="yes"/>
	  <point x="50" y="383"/>
	  <point x="36" y="368"/>
	  <point x="36" y="350" type="curve" smooth="yes"/>
	  <point x="36" y="332"/>
	  <point x="50" y="319"/>
	  <point x="68" y="319" type="curve" smooth="yes"/>
	  <point x="257" y="319" type="line"/>
	  <point x="41" y="71" type="line" smooth="yes"/>
	  <point x="33" y="62"/>
	  <point x="29" y="51"/>
	  <point x="29" y="39" type="curve" smooth="yes"/>
	  <point x="29" y="14"/>
	  <point x="50" y="0"/>
	  <point x="77" y="0" type="curve" smooth="yes"/>
	</contour>
  </outline>
</glyph>
<glyph name="braceleft" format="1">
  <advance width="258"/>
  <unicode hex="007B"/>
  <outline>
	<contour>
	  <point x="211" y="-109" type="line" smooth="yes"/>
	  <point x="225" y="-109"/>
	  <point x="237" y="-97"/>
	  <point x="237" y="-83" type="curve" smooth="yes"/>
	  <point x="237" y="-68"/>
	  <point x="225" y="-56"/>
	  <point x="211" y="-56" type="curve" smooth="yes"/>
	  <point x="200" y="-56" type="line" smooth="yes"/>
	  <point x="181" y="-56"/>
	  <point x="167" y="-53"/>
	  <point x="161" y="-44" type="curve"/>
	  <point x="157" y="-41"/>
	  <point x="155" y="-35"/>
	  <point x="155" y="-25" type="curve" smooth="yes"/>
	  <point x="155" y="142" type="line" smooth="yes"/>
	  <point x="155" y="185"/>
	  <point x="133" y="214"/>
	  <point x="88" y="230" type="curve"/>
	  <point x="133" y="247"/>
	  <point x="155" y="276"/>
	  <point x="155" y="319" type="curve" smooth="yes"/>
	  <point x="155" y="485" type="line" smooth="yes"/>
	  <point x="155" y="488"/>
	  <point x="155" y="491"/>
	  <point x="156" y="495" type="curve"/>
	  <point x="158" y="509"/>
	  <point x="173" y="517"/>
	  <point x="200" y="517" type="curve" smooth="yes"/>
	  <point x="211" y="517" type="line" smooth="yes"/>
	  <point x="225" y="517"/>
	  <point x="237" y="529"/>
	  <point x="237" y="543" type="curve" smooth="yes"/>
	  <point x="237" y="557"/>
	  <point x="225" y="569"/>
	  <point x="211" y="569" type="curve" smooth="yes"/>
	  <point x="202" y="569" type="line" smooth="yes"/>
	  <point x="187" y="569"/>
	  <point x="173" y="568"/>
	  <point x="161" y="566" type="curve" smooth="yes"/>
	  <point x="118" y="557"/>
	  <point x="97" y="528"/>
	  <point x="97" y="479" type="curve" smooth="yes"/>
	  <point x="97" y="321" type="line" smooth="yes"/>
	  <point x="97" y="305"/>
	  <point x="94" y="293"/>
	  <point x="87" y="285" type="curve"/>
	  <point x="78" y="275"/>
	  <point x="61" y="266"/>
	  <point x="28" y="260" type="curve" smooth="yes"/>
	  <point x="11" y="257"/>
	  <point x="2" y="248"/>
	  <point x="2" y="230" type="curve" smooth="yes"/>
	  <point x="2" y="213"/>
	  <point x="11" y="203"/>
	  <point x="28" y="200" type="curve" smooth="yes"/>
	  <point x="58" y="195"/>
	  <point x="78" y="186"/>
	  <point x="89" y="173" type="curve" smooth="yes"/>
	  <point x="94" y="167"/>
	  <point x="97" y="155"/>
	  <point x="97" y="140" type="curve" smooth="yes"/>
	  <point x="97" y="-19" type="line" smooth="yes"/>
	  <point x="97" y="-87"/>
	  <point x="135" y="-109"/>
	  <point x="202" y="-109" type="curve" smooth="yes"/>
	</contour>
  </outline>
</glyph>
<glyph name="braceright" format="1">
  <advance width="258"/>
  <unicode hex="007D"/>
  <outline>
	<contour>
	  <point x="56" y="-109" type="line" smooth="yes"/>
	  <point x="71" y="-109"/>
	  <point x="85" y="-107"/>
	  <point x="98" y="-105" type="curve" smooth="yes"/>
	  <point x="140" y="-97"/>
	  <point x="161" y="-68"/>
	  <point x="161" y="-19" type="curve" smooth="yes"/>
	  <point x="161" y="140" type="line" smooth="yes"/>
	  <point x="161" y="155"/>
	  <point x="164" y="167"/>
	  <point x="171" y="176" type="curve"/>
	  <point x="180" y="185"/>
	  <point x="197" y="194"/>
	  <point x="231" y="200" type="curve" smooth="yes"/>
	  <point x="248" y="203"/>
	  <point x="256" y="213"/>
	  <point x="256" y="230" type="curve" smooth="yes"/>
	  <point x="256" y="248"/>
	  <point x="248" y="257"/>
	  <point x="230" y="260" type="curve" smooth="yes"/>
	  <point x="200" y="266"/>
	  <point x="180" y="275"/>
	  <point x="170" y="287" type="curve" smooth="yes"/>
	  <point x="164" y="294"/>
	  <point x="161" y="305"/>
	  <point x="161" y="321" type="curve" smooth="yes"/>
	  <point x="161" y="479" type="line" smooth="yes"/>
	  <point x="161" y="548"/>
	  <point x="123" y="569"/>
	  <point x="56" y="569" type="curve" smooth="yes"/>
	  <point x="47" y="569" type="line" smooth="yes"/>
	  <point x="33" y="569"/>
	  <point x="21" y="557"/>
	  <point x="21" y="543" type="curve" smooth="yes"/>
	  <point x="21" y="529"/>
	  <point x="33" y="517"/>
	  <point x="47" y="517" type="curve" smooth="yes"/>
	  <point x="59" y="517" type="line" smooth="yes"/>
	  <point x="77" y="517"/>
	  <point x="91" y="513"/>
	  <point x="98" y="505" type="curve"/>
	  <point x="101" y="501"/>
	  <point x="103" y="495"/>
	  <point x="103" y="485" type="curve" smooth="yes"/>
	  <point x="103" y="319" type="line" smooth="yes"/>
	  <point x="103" y="276"/>
	  <point x="125" y="247"/>
	  <point x="170" y="230" type="curve"/>
	  <point x="125" y="214"/>
	  <point x="103" y="185"/>
	  <point x="103" y="142" type="curve" smooth="yes"/>
	  <point x="103" y="-25" type="line" smooth="yes"/>
	  <point x="103" y="-28"/>
	  <point x="103" y="-31"/>
	  <point x="102" y="-35" type="curve"/>
	  <point x="100" y="-49"/>
	  <point x="86" y="-56"/>
	  <point x="59" y="-56" type="curve" smooth="yes"/>
	  <point x="47" y="-56" type="line" smooth="yes"/>
	  <point x="33" y="-56"/>
	  <point x="21" y="-68"/>
	  <point x="21" y="-83" type="curve" smooth="yes"/>
	  <point x="21" y="-97"/>
	  <point x="33" y="-109"/>
	  <point x="47" y="-109" type="curve" smooth="yes"/>
	</contour>
  </outline>
</glyph>
<glyph name="asciitilde" format="1">
  <advance width="479"/>
  <unicode hex="007E"/>
  <outline>
	<contour>
	  <point x="375" y="155"/>
	  <point x="413" y="185"/>
	  <point x="425" y="251" type="curve"/>
	  <point x="426" y="254"/>
	  <point x="426" y="255"/>
	  <point x="426" y="257" type="curve" smooth="yes"/>
	  <point x="426" y="269"/>
	  <point x="419" y="275"/>
	  <point x="405" y="275" type="curve" smooth="yes"/>
	  <point x="391" y="275"/>
	  <point x="385" y="256"/>
	  <point x="380" y="245" type="curve" smooth="yes"/>
	  <point x="378" y="239"/>
	  <point x="375" y="235"/>
	  <point x="371" y="231" type="curve"/>
	  <point x="365" y="224"/>
	  <point x="356" y="218"/>
	  <point x="333" y="218" type="curve" smooth="yes"/>
	  <point x="310" y="218"/>
	  <point x="283" y="233"/>
	  <point x="254" y="247" type="curve" smooth="yes"/>
	  <point x="224" y="261"/>
	  <point x="192" y="275"/>
	  <point x="148" y="275" type="curve" smooth="yes"/>
	  <point x="125" y="275"/>
	  <point x="104" y="265"/>
	  <point x="84" y="243" type="curve"/>
	  <point x="66" y="225"/>
	  <point x="56" y="199"/>
	  <point x="56" y="182" type="curve" smooth="yes"/>
	  <point x="56" y="164"/>
	  <point x="63" y="157"/>
	  <point x="78" y="157" type="curve" smooth="yes"/>
	  <point x="86" y="157"/>
	  <point x="91" y="161"/>
	  <point x="93" y="171" type="curve"/>
	  <point x="101" y="198"/>
	  <point x="118" y="212"/>
	  <point x="144" y="212" type="curve" smooth="yes"/>
	  <point x="173" y="212"/>
	  <point x="199" y="197"/>
	  <point x="229" y="183" type="curve" smooth="yes"/>
	  <point x="258" y="169"/>
	  <point x="290" y="155"/>
	  <point x="332" y="155" type="curve" smooth="yes"/>
	</contour>
  </outline>
</glyph>
<glyph name="exclamdown" format="1">
  <advance width="194"/>
  <unicode hex="00A1"/>
  <outline>
	<contour>
	  <point x="120" y="-145"/>
	  <point x="137" y="-128"/>
	  <point x="137" y="-106" type="curve" smooth="yes"/>
	  <point x="137" y="-32" type="line"/>
	  <point x="123" y="216" type="line" smooth="yes"/>
	  <point x="122" y="230"/>
	  <point x="114" y="238"/>
	  <point x="98" y="238" type="curve" smooth="yes"/>
	  <point x="83" y="238"/>
	  <point x="74" y="230"/>
	  <point x="73" y="216" type="curve" smooth="yes"/>
	  <point x="59" y="-32" type="line"/>
	  <point x="59" y="-106" type="line" smooth="yes"/>
	  <point x="59" y="-128"/>
	  <point x="77" y="-145"/>
	  <point x="98" y="-145" type="curve" smooth="yes"/>
	</contour>
	<contour>
	  <point x="123" y="296"/>
	  <point x="143" y="317"/>
	  <point x="143" y="341" type="curve" smooth="yes"/>
	  <point x="143" y="365"/>
	  <point x="123" y="386"/>
	  <point x="99" y="386" type="curve" smooth="yes"/>
	  <point x="74" y="386"/>
	  <point x="54" y="365"/>
	  <point x="54" y="341" type="curve" smooth="yes"/>
	  <point x="54" y="317"/>
	  <point x="74" y="296"/>
	  <point x="99" y="296" type="curve" smooth="yes"/>
	</contour>
  </outline>
</glyph>
<glyph name="cent" format="1">
  <advance width="413"/>
  <unicode hex="00A2"/>
  <outline>
	<contour>
	  <point x="149" y="-92"/>
	  <point x="155" y="-88"/>
	  <point x="158" y="-79" type="curve" smooth="yes"/>
	  <point x="184" y="-2" type="line"/>
	  <point x="201" y="-5"/>
	  <point x="218" y="-8"/>
	  <point x="233" y="-8" type="curve" smooth="yes"/>
	  <point x="278" y="-8"/>
	  <point x="318" y="4"/>
	  <point x="353" y="27" type="curve" smooth="yes"/>
	  <point x="365" y="35"/>
	  <point x="371" y="43"/>
	  <point x="371" y="52" type="curve" smooth="yes"/>
	  <point x="371" y="70"/>
	  <point x="358" y="85"/>
	  <point x="344" y="85" type="curve" smooth="yes"/>
	  <point x="338" y="85"/>
	  <point x="329" y="82"/>
	  <point x="318" y="77" type="curve"/>
	  <point x="302" y="68"/>
	  <point x="277" y="56"/>
	  <point x="244" y="56" type="curve" smooth="yes"/>
	  <point x="227" y="56"/>
	  <point x="215" y="57"/>
	  <point x="205" y="59" type="curve"/>
	  <point x="293" y="317" type="line"/>
	  <point x="326" y="302" type="line"/>
	  <point x="331" y="299"/>
	  <point x="338" y="298"/>
	  <point x="346" y="298" type="curve" smooth="yes"/>
	  <point x="357" y="298"/>
	  <point x="371" y="313"/>
	  <point x="371" y="331" type="curve" smooth="yes"/>
	  <point x="371" y="349"/>
	  <point x="344" y="365"/>
	  <point x="314" y="376" type="curve"/>
	  <point x="334" y="436" type="line"/>
	  <point x="335" y="439"/>
	  <point x="335" y="443"/>
	  <point x="335" y="446" type="curve" smooth="yes"/>
	  <point x="335" y="454"/>
	  <point x="329" y="465"/>
	  <point x="312" y="465" type="curve" smooth="yes"/>
	  <point x="304" y="465"/>
	  <point x="298" y="461"/>
	  <point x="294" y="451" type="curve"/>
	  <point x="272" y="387" type="line"/>
	  <point x="260" y="389"/>
	  <point x="245" y="390"/>
	  <point x="224" y="390" type="curve" smooth="yes"/>
	  <point x="184" y="390"/>
	  <point x="130" y="371"/>
	  <point x="93" y="338" type="curve" smooth="yes"/>
	  <point x="53" y="301"/>
	  <point x="33" y="252"/>
	  <point x="33" y="191" type="curve" smooth="yes"/>
	  <point x="33" y="102"/>
	  <point x="78" y="41"/>
	  <point x="143" y="11" type="curve"/>
	  <point x="119" y="-62" type="line"/>
	  <point x="117" y="-65"/>
	  <point x="116" y="-69"/>
	  <point x="116" y="-74" type="curve" smooth="yes"/>
	  <point x="116" y="-81"/>
	  <point x="125" y="-92"/>
	  <point x="141" y="-92" type="curve" smooth="yes"/>
	</contour>
	<contour>
	  <point x="122" y="96"/>
	  <point x="101" y="135"/>
	  <point x="101" y="191" type="curve" smooth="yes"/>
	  <point x="101" y="272"/>
	  <point x="152" y="326"/>
	  <point x="239" y="326" type="curve" smooth="yes"/>
	  <point x="242" y="326"/>
	  <point x="243" y="326"/>
	  <point x="245" y="326" type="curve" smooth="yes"/>
	  <point x="248" y="326"/>
	  <point x="249" y="326"/>
	  <point x="251" y="326" type="curve"/>
	  <point x="165" y="74" type="line"/>
	</contour>
  </outline>
</glyph>
<glyph name="sterling" format="1">
  <advance width="453"/>
  <unicode hex="00A3"/>
  <outline>
	<contour>
	  <point x="356" y="-8"/>
	  <point x="424" y="4"/>
	  <point x="424" y="38" type="curve" smooth="yes"/>
	  <point x="424" y="58"/>
	  <point x="409" y="70"/>
	  <point x="398" y="70" type="curve" smooth="yes"/>
	  <point x="392" y="70"/>
	  <point x="383" y="68"/>
	  <point x="369" y="63" type="curve" smooth="yes"/>
	  <point x="361" y="60"/>
	  <point x="347" y="59"/>
	  <point x="330" y="59" type="curve" smooth="yes"/>
	  <point x="308" y="59"/>
	  <point x="290" y="65"/>
	  <point x="247" y="79" type="curve" smooth="yes"/>
	  <point x="225" y="86"/>
	  <point x="205" y="89"/>
	  <point x="186" y="89" type="curve"/>
	  <point x="167" y="89" type="line"/>
	  <point x="188" y="122"/>
	  <point x="199" y="158"/>
	  <point x="199" y="196" type="curve" smooth="yes"/>
	  <point x="199" y="209"/>
	  <point x="198" y="221"/>
	  <point x="196" y="230" type="curve"/>
	  <point x="321" y="230" type="line" smooth="yes"/>
	  <point x="331" y="230"/>
	  <point x="338" y="237"/>
	  <point x="338" y="247" type="curve" smooth="yes"/>
	  <point x="338" y="257"/>
	  <point x="331" y="264"/>
	  <point x="321" y="264" type="curve" smooth="yes"/>
	  <point x="188" y="264" type="line"/>
	  <point x="183" y="284"/>
	  <point x="177" y="303"/>
	  <point x="171" y="322" type="curve" smooth="yes"/>
	  <point x="165" y="341"/>
	  <point x="162" y="362"/>
	  <point x="162" y="383" type="curve" smooth="yes"/>
	  <point x="162" y="405"/>
	  <point x="170" y="423"/>
	  <point x="186" y="438" type="curve" smooth="yes"/>
	  <point x="203" y="454"/>
	  <point x="232" y="465"/>
	  <point x="281" y="465" type="curve" smooth="yes"/>
	  <point x="306" y="465"/>
	  <point x="330" y="461"/>
	  <point x="354" y="452" type="curve" smooth="yes"/>
	  <point x="362" y="449"/>
	  <point x="371" y="448"/>
	  <point x="380" y="448" type="curve" smooth="yes"/>
	  <point x="392" y="448"/>
	  <point x="407" y="462"/>
	  <point x="407" y="479" type="curve" smooth="yes"/>
	  <point x="407" y="494"/>
	  <point x="399" y="503"/>
	  <point x="384" y="509" type="curve" smooth="yes"/>
	  <point x="350" y="524"/>
	  <point x="314" y="531"/>
	  <point x="276" y="531" type="curve" smooth="yes"/>
	  <point x="221" y="531"/>
	  <point x="178" y="518"/>
	  <point x="144" y="491" type="curve" smooth="yes"/>
	  <point x="112" y="464"/>
	  <point x="94" y="425"/>
	  <point x="94" y="378" type="curve" smooth="yes"/>
	  <point x="94" y="331"/>
	  <point x="107" y="298"/>
	  <point x="118" y="264" type="curve"/>
	  <point x="46" y="264" type="line" smooth="yes"/>
	  <point x="36" y="264"/>
	  <point x="29" y="257"/>
	  <point x="29" y="247" type="curve" smooth="yes"/>
	  <point x="29" y="236"/>
	  <point x="35" y="230"/>
	  <point x="46" y="230" type="curve" smooth="yes"/>
	  <point x="127" y="230" type="line"/>
	  <point x="130" y="218"/>
	  <point x="131" y="204"/>
	  <point x="131" y="191" type="curve" smooth="yes"/>
	  <point x="131" y="164"/>
	  <point x="124" y="136"/>
	  <point x="109" y="107" type="curve" smooth="yes"/>
	  <point x="96" y="80"/>
	  <point x="78" y="59"/>
	  <point x="63" y="46" type="curve" smooth="yes"/>
	  <point x="56" y="39"/>
	  <point x="52" y="32"/>
	  <point x="52" y="23" type="curve" smooth="yes"/>
	  <point x="52" y="7"/>
	  <point x="65" y="-5"/>
	  <point x="79" y="-5" type="curve" smooth="yes"/>
	  <point x="86" y="-5"/>
	  <point x="92" y="-3"/>
	  <point x="97" y="1" type="curve" smooth="yes"/>
	  <point x="122" y="18"/>
	  <point x="151" y="26"/>
	  <point x="182" y="26" type="curve" smooth="yes"/>
	  <point x="200" y="26"/>
	  <point x="224" y="20"/>
	  <point x="252" y="9" type="curve" smooth="yes"/>
	  <point x="274" y="1"/>
	  <point x="296" y="-8"/>
	  <point x="326" y="-8" type="curve" smooth="yes"/>
	</contour>
  </outline>
</glyph>
<glyph name="currency" format="1">
  <advance width="501"/>
  <unicode hex="00A4"/>
  <outline>
	<contour>
	  <point x="83" y="61"/>
	  <point x="90" y="64"/>
	  <point x="97" y="69" type="curve"/>
	  <point x="146" y="118" type="line"/>
	  <point x="177" y="95"/>
	  <point x="212" y="84"/>
	  <point x="251" y="84" type="curve" smooth="yes"/>
	  <point x="289" y="84"/>
	  <point x="324" y="95"/>
	  <point x="355" y="118" type="curve"/>
	  <point x="404" y="69" type="line"/>
	  <point x="411" y="64"/>
	  <point x="419" y="61"/>
	  <point x="428" y="61" type="curve" smooth="yes"/>
	  <point x="440" y="61"/>
	  <point x="452" y="74"/>
	  <point x="452" y="89" type="curve" smooth="yes"/>
	  <point x="452" y="96"/>
	  <point x="449" y="103"/>
	  <point x="443" y="108" type="curve" smooth="yes"/>
	  <point x="395" y="157" type="line"/>
	  <point x="417" y="189"/>
	  <point x="428" y="224"/>
	  <point x="428" y="262" type="curve" smooth="yes"/>
	  <point x="428" y="300"/>
	  <point x="417" y="335"/>
	  <point x="395" y="367" type="curve"/>
	  <point x="443" y="416" type="line" smooth="yes"/>
	  <point x="449" y="421"/>
	  <point x="452" y="428"/>
	  <point x="452" y="435" type="curve" smooth="yes"/>
	  <point x="452" y="450"/>
	  <point x="440" y="463"/>
	  <point x="425" y="463" type="curve" smooth="yes"/>
	  <point x="418" y="463"/>
	  <point x="411" y="460"/>
	  <point x="404" y="455" type="curve"/>
	  <point x="355" y="406" type="line"/>
	  <point x="324" y="428"/>
	  <point x="289" y="440"/>
	  <point x="251" y="440" type="curve" smooth="yes"/>
	  <point x="212" y="440"/>
	  <point x="177" y="428"/>
	  <point x="146" y="406" type="curve"/>
	  <point x="97" y="455" type="line"/>
	  <point x="90" y="460"/>
	  <point x="83" y="463"/>
	  <point x="74" y="463" type="curve" smooth="yes"/>
	  <point x="62" y="463"/>
	  <point x="50" y="450"/>
	  <point x="50" y="435" type="curve" smooth="yes"/>
	  <point x="50" y="428"/>
	  <point x="53" y="421"/>
	  <point x="58" y="416" type="curve" smooth="yes"/>
	  <point x="107" y="367" type="line"/>
	  <point x="84" y="335"/>
	  <point x="73" y="300"/>
	  <point x="73" y="262" type="curve" smooth="yes"/>
	  <point x="73" y="224"/>
	  <point x="84" y="189"/>
	  <point x="107" y="157" type="curve"/>
	  <point x="58" y="108" type="line" smooth="yes"/>
	  <point x="53" y="103"/>
	  <point x="50" y="96"/>
	  <point x="50" y="89" type="curve" smooth="yes"/>
	  <point x="50" y="74"/>
	  <point x="61" y="61"/>
	  <point x="76" y="61" type="curve" smooth="yes"/>
	</contour>
	<contour>
	  <point x="187" y="145"/>
	  <point x="134" y="198"/>
	  <point x="134" y="262" type="curve" smooth="yes"/>
	  <point x="134" y="326"/>
	  <point x="187" y="379"/>
	  <point x="251" y="379" type="curve" smooth="yes"/>
	  <point x="314" y="379"/>
	  <point x="368" y="326"/>
	  <point x="368" y="262" type="curve" smooth="yes"/>
	  <point x="368" y="198"/>
	  <point x="314" y="145"/>
	  <point x="251" y="145" type="curve" smooth="yes"/>
	</contour>
  </outline>
</glyph>
<glyph name="yen" format="1">
  <advance width="494"/>
  <unicode hex="00A5"/>
  <outline>
	<contour>
	  <point x="265" y="-5"/>
	  <point x="281" y="11"/>
	  <point x="281" y="29" type="curve" smooth="yes"/>
	  <point x="281" y="93" type="line"/>
	  <point x="386" y="93" type="line" smooth="yes"/>
	  <point x="404" y="93"/>
	  <point x="414" y="105"/>
	  <point x="414" y="121" type="curve" smooth="yes"/>
	  <point x="414" y="137"/>
	  <point x="402" y="149"/>
	  <point x="386" y="149" type="curve" smooth="yes"/>
	  <point x="281" y="149" type="line"/>
	  <point x="281" y="218" type="line"/>
	  <point x="386" y="218" type="line" smooth="yes"/>
	  <point x="404" y="218"/>
	  <point x="414" y="230"/>
	  <point x="414" y="245" type="curve" smooth="yes"/>
	  <point x="414" y="261"/>
	  <point x="402" y="274"/>
	  <point x="386" y="274" type="curve" smooth="yes"/>
	  <point x="313" y="274" type="line"/>
	  <point x="439" y="479" type="line"/>
	  <point x="443" y="486"/>
	  <point x="445" y="494"/>
	  <point x="445" y="502" type="curve" smooth="yes"/>
	  <point x="445" y="519"/>
	  <point x="430" y="534"/>
	  <point x="407" y="534" type="curve" smooth="yes"/>
	  <point x="395" y="534"/>
	  <point x="385" y="527"/>
	  <point x="377" y="513" type="curve" smooth="yes"/>
	  <point x="247" y="286" type="line"/>
	  <point x="117" y="513" type="line" smooth="yes"/>
	  <point x="110" y="525"/>
	  <point x="102" y="534"/>
	  <point x="84" y="534" type="curve" smooth="yes"/>
	  <point x="65" y="534"/>
	  <point x="49" y="519"/>
	  <point x="49" y="502" type="curve" smooth="yes"/>
	  <point x="49" y="494"/>
	  <point x="51" y="486"/>
	  <point x="55" y="479" type="curve"/>
	  <point x="181" y="274" type="line"/>
	  <point x="107" y="274" type="line" smooth="yes"/>
	  <point x="92" y="274"/>
	  <point x="80" y="261"/>
	  <point x="80" y="245" type="curve" smooth="yes"/>
	  <point x="80" y="230"/>
	  <point x="90" y="218"/>
	  <point x="107" y="218" type="curve" smooth="yes"/>
	  <point x="213" y="218" type="line"/>
	  <point x="213" y="149" type="line"/>
	  <point x="107" y="149" type="line" smooth="yes"/>
	  <point x="92" y="149"/>
	  <point x="80" y="137"/>
	  <point x="80" y="121" type="curve" smooth="yes"/>
	  <point x="80" y="105"/>
	  <point x="90" y="93"/>
	  <point x="107" y="93" type="curve" smooth="yes"/>
	  <point x="213" y="93" type="line"/>
	  <point x="213" y="29" type="line" smooth="yes"/>
	  <point x="213" y="11"/>
	  <point x="229" y="-5"/>
	  <point x="247" y="-5" type="curve" smooth="yes"/>
	</contour>
  </outline>
</glyph>
<glyph name="section" format="1">
  <advance width="397"/>
  <unicode hex="00A7"/>
  <outline>
	<contour>
	  <point x="282" y="-77"/>
	  <point x="334" y="-30"/>
	  <point x="334" y="34" type="curve" smooth="yes"/>
	  <point x="334" y="71"/>
	  <point x="317" y="101"/>
	  <point x="285" y="124" type="curve"/>
	  <point x="295" y="127"/>
	  <point x="304" y="131"/>
	  <point x="313" y="137" type="curve" smooth="yes"/>
	  <point x="344" y="155"/>
	  <point x="359" y="182"/>
	  <point x="359" y="219" type="curve" smooth="yes"/>
	  <point x="359" y="258"/>
	  <point x="340" y="290"/>
	  <point x="300" y="314" type="curve" smooth="yes"/>
	  <point x="284" y="325"/>
	  <point x="266" y="334"/>
	  <point x="246" y="341" type="curve" smooth="yes"/>
	  <point x="227" y="348"/>
	  <point x="209" y="356"/>
	  <point x="192" y="362" type="curve" smooth="yes"/>
	  <point x="158" y="377"/>
	  <point x="133" y="391"/>
	  <point x="133" y="416" type="curve" smooth="yes"/>
	  <point x="133" y="451"/>
	  <point x="161" y="468"/>
	  <point x="218" y="468" type="curve" smooth="yes"/>
	  <point x="250" y="468"/>
	  <point x="277" y="464"/>
	  <point x="297" y="456" type="curve"/>
	  <point x="305" y="453"/>
	  <point x="312" y="452"/>
	  <point x="318" y="452" type="curve" smooth="yes"/>
	  <point x="330" y="452"/>
	  <point x="346" y="466"/>
	  <point x="346" y="482" type="curve" smooth="yes"/>
	  <point x="346" y="495"/>
	  <point x="339" y="505"/>
	  <point x="326" y="511" type="curve" smooth="yes"/>
	  <point x="293" y="524"/>
	  <point x="254" y="531"/>
	  <point x="210" y="531" type="curve" smooth="yes"/>
	  <point x="122" y="531"/>
	  <point x="68" y="484"/>
	  <point x="68" y="420" type="curve" smooth="yes"/>
	  <point x="68" y="383"/>
	  <point x="84" y="353"/>
	  <point x="116" y="329" type="curve"/>
	  <point x="107" y="326"/>
	  <point x="98" y="322"/>
	  <point x="89" y="317" type="curve" smooth="yes"/>
	  <point x="58" y="299"/>
	  <point x="43" y="272"/>
	  <point x="43" y="235" type="curve" smooth="yes"/>
	  <point x="43" y="195"/>
	  <point x="62" y="164"/>
	  <point x="102" y="140" type="curve" smooth="yes"/>
	  <point x="119" y="129"/>
	  <point x="137" y="120"/>
	  <point x="156" y="113" type="curve" smooth="yes"/>
	  <point x="176" y="106"/>
	  <point x="194" y="98"/>
	  <point x="211" y="92" type="curve" smooth="yes"/>
	  <point x="244" y="77"/>
	  <point x="269" y="62"/>
	  <point x="269" y="38" type="curve" smooth="yes"/>
	  <point x="269" y="3"/>
	  <point x="241" y="-14"/>
	  <point x="185" y="-14" type="curve" smooth="yes"/>
	  <point x="143" y="-14"/>
	  <point x="108" y="-8"/>
	  <point x="80" y="7" type="curve"/>
	  <point x="73" y="10"/>
	  <point x="66" y="11"/>
	  <point x="60" y="11" type="curve" smooth="yes"/>
	  <point x="49" y="11"/>
	  <point x="35" y="-1"/>
	  <point x="35" y="-21" type="curve" smooth="yes"/>
	  <point x="35" y="-31"/>
	  <point x="39" y="-38"/>
	  <point x="47" y="-44" type="curve" smooth="yes"/>
	  <point x="83" y="-66"/>
	  <point x="131" y="-77"/>
	  <point x="189" y="-77" type="curve" smooth="yes"/>
	</contour>
	<contour>
	  <point x="224" y="155"/>
	  <point x="209" y="161"/>
	  <point x="193" y="167" type="curve" smooth="yes"/>
	  <point x="161" y="179"/>
	  <point x="106" y="197"/>
	  <point x="106" y="239" type="curve" smooth="yes"/>
	  <point x="106" y="274"/>
	  <point x="125" y="296"/>
	  <point x="161" y="305" type="curve"/>
	  <point x="177" y="299"/>
	  <point x="193" y="292"/>
	  <point x="209" y="287" type="curve" smooth="yes"/>
	  <point x="242" y="275"/>
	  <point x="296" y="257"/>
	  <point x="296" y="215" type="curve" smooth="yes"/>
	  <point x="296" y="180"/>
	  <point x="278" y="158"/>
	  <point x="240" y="149" type="curve"/>
	</contour>
  </outline>
</glyph>
<glyph name="dieresis" format="1">
  <advance width="300"/>
  <unicode hex="00A8"/>
  <outline>
	<contour>
	  <point x="233" y="431"/>
	  <point x="251" y="449"/>
	  <point x="251" y="470" type="curve" smooth="yes"/>
	  <point x="251" y="491"/>
	  <point x="233" y="508"/>
	  <point x="212" y="508" type="curve" smooth="yes"/>
	  <point x="191" y="508"/>
	  <point x="174" y="491"/>
	  <point x="174" y="470" type="curve" smooth="yes"/>
	  <point x="174" y="449"/>
	  <point x="191" y="431"/>
	  <point x="212" y="431" type="curve" smooth="yes"/>
	</contour>
	<contour>
	  <point x="107" y="431"/>
	  <point x="124" y="449"/>
	  <point x="124" y="470" type="curve" smooth="yes"/>
	  <point x="124" y="491"/>
	  <point x="107" y="508"/>
	  <point x="86" y="508" type="curve" smooth="yes"/>
	  <point x="65" y="508"/>
	  <point x="47" y="491"/>
	  <point x="47" y="470" type="curve" smooth="yes"/>
	  <point x="47" y="449"/>
	  <point x="65" y="431"/>
	  <point x="86" y="431" type="curve" smooth="yes"/>
	</contour>
  </outline>
</glyph>
<glyph name="copyright" format="1">
  <advance width="614"/>
  <unicode hex="00A9"/>
  <outline>
	<contour>
	  <point x="382" y="-7"/>
	  <point x="449" y="23"/>
	  <point x="498" y="72" type="curve" smooth="yes"/>
	  <point x="546" y="121"/>
	  <point x="577" y="188"/>
	  <point x="577" y="262" type="curve" smooth="yes"/>
	  <point x="577" y="336"/>
	  <point x="546" y="403"/>
	  <point x="498" y="452" type="curve" smooth="yes"/>
	  <point x="449" y="500"/>
	  <point x="382" y="530"/>
	  <point x="308" y="530" type="curve" smooth="yes"/>
	  <point x="233" y="530"/>
	  <point x="166" y="500"/>
	  <point x="117" y="452" type="curve" smooth="yes"/>
	  <point x="68" y="403"/>
	  <point x="38" y="336"/>
	  <point x="38" y="262" type="curve" smooth="yes"/>
	  <point x="38" y="188"/>
	  <point x="68" y="121"/>
	  <point x="117" y="72" type="curve" smooth="yes"/>
	  <point x="166" y="23"/>
	  <point x="233" y="-7"/>
	  <point x="308" y="-7" type="curve" smooth="yes"/>
	</contour>
	<contour>
	  <point x="370" y="110"/>
	  <point x="415" y="140"/>
	  <point x="439" y="188" type="curve" smooth="yes"/>
	  <point x="440" y="191"/>
	  <point x="441" y="196"/>
	  <point x="441" y="201" type="curve" smooth="yes"/>
	  <point x="441" y="212"/>
	  <point x="431" y="222"/>
	  <point x="416" y="222" type="curve" smooth="yes"/>
	  <point x="407" y="222"/>
	  <point x="401" y="217"/>
	  <point x="394" y="206" type="curve" smooth="yes"/>
	  <point x="374" y="172"/>
	  <point x="347" y="155"/>
	  <point x="312" y="155" type="curve" smooth="yes"/>
	  <point x="251" y="155"/>
	  <point x="218" y="202"/>
	  <point x="218" y="262" type="curve" smooth="yes"/>
	  <point x="218" y="292"/>
	  <point x="226" y="317"/>
	  <point x="242" y="336" type="curve"/>
	  <point x="257" y="356"/>
	  <point x="279" y="368"/>
	  <point x="315" y="368" type="curve" smooth="yes"/>
	  <point x="351" y="368"/>
	  <point x="378" y="345"/>
	  <point x="391" y="324" type="curve"/>
	  <point x="403" y="302"/>
	  <point x="408" y="302"/>
	  <point x="419" y="302" type="curve" smooth="yes"/>
	  <point x="431" y="302"/>
	  <point x="441" y="313"/>
	  <point x="441" y="323" type="curve" smooth="yes"/>
	  <point x="441" y="329"/>
	  <point x="440" y="332"/>
	  <point x="439" y="335" type="curve" smooth="yes"/>
	  <point x="415" y="384"/>
	  <point x="372" y="414"/>
	  <point x="312" y="414" type="curve" smooth="yes"/>
	  <point x="226" y="414"/>
	  <point x="167" y="354"/>
	  <point x="167" y="262" type="curve" smooth="yes"/>
	  <point x="167" y="216"/>
	  <point x="181" y="179"/>
	  <point x="207" y="152" type="curve" smooth="yes"/>
	  <point x="233" y="125"/>
	  <point x="267" y="110"/>
	  <point x="319" y="110" type="curve" smooth="yes"/>
	</contour>
	<contour>
	  <point x="181" y="32"/>
	  <point x="77" y="136"/>
	  <point x="77" y="262" type="curve" smooth="yes"/>
	  <point x="77" y="325"/>
	  <point x="100" y="379"/>
	  <point x="145" y="424" type="curve" smooth="yes"/>
	  <point x="187" y="466"/>
	  <point x="244" y="491"/>
	  <point x="308" y="491" type="curve" smooth="yes"/>
	  <point x="434" y="491"/>
	  <point x="538" y="388"/>
	  <point x="538" y="262" type="curve" smooth="yes"/>
	  <point x="538" y="136"/>
	  <point x="435" y="32"/>
	  <point x="307" y="32" type="curve" smooth="yes"/>
	</contour>
  </outline>
</glyph>
<glyph name="ordfeminine" format="1">
  <advance width="364"/>
  <unicode hex="00AA"/>
  <outline>
	<contour>
	  <point x="187" y="254"/>
	  <point x="217" y="266"/>
	  <point x="239" y="290" type="curve"/>
	  <point x="239" y="284" type="line" smooth="yes"/>
	  <point x="239" y="269"/>
	  <point x="251" y="257"/>
	  <point x="266" y="257" type="curve" smooth="yes"/>
	  <point x="281" y="257"/>
	  <point x="293" y="269"/>
	  <point x="293" y="284" type="curve" smooth="yes"/>
	  <point x="293" y="427" type="line" smooth="yes"/>
	  <point x="293" y="456"/>
	  <point x="284" y="479"/>
	  <point x="266" y="498" type="curve" smooth="yes"/>
	  <point x="248" y="518"/>
	  <point x="224" y="531"/>
	  <point x="176" y="531" type="curve" smooth="yes"/>
	  <point x="151" y="531"/>
	  <point x="124" y="525"/>
	  <point x="93" y="513" type="curve" smooth="yes"/>
	  <point x="81" y="509"/>
	  <point x="75" y="500"/>
	  <point x="75" y="489" type="curve" smooth="yes"/>
	  <point x="75" y="478"/>
	  <point x="86" y="467"/>
	  <point x="95" y="467" type="curve" smooth="yes"/>
	  <point x="100" y="467"/>
	  <point x="104" y="467"/>
	  <point x="107" y="468" type="curve"/>
	  <point x="128" y="476"/>
	  <point x="152" y="480"/>
	  <point x="180" y="480" type="curve" smooth="yes"/>
	  <point x="215" y="480"/>
	  <point x="239" y="462"/>
	  <point x="239" y="416" type="curve" smooth="yes"/>
	  <point x="239" y="415" type="line"/>
	  <point x="182" y="415" type="line" smooth="yes"/>
	  <point x="100" y="415"/>
	  <point x="61" y="385"/>
	  <point x="61" y="335" type="curve" smooth="yes"/>
	  <point x="61" y="286"/>
	  <point x="101" y="254"/>
	  <point x="148" y="254" type="curve" smooth="yes"/>
	</contour>
	<contour>
	  <point x="283" y="172" type="line" smooth="yes"/>
	  <point x="294" y="172"/>
	  <point x="304" y="182"/>
	  <point x="304" y="193" type="curve" smooth="yes"/>
	  <point x="304" y="204"/>
	  <point x="294" y="214"/>
	  <point x="283" y="214" type="curve" smooth="yes"/>
	  <point x="71" y="214" type="line" smooth="yes"/>
	  <point x="59" y="214"/>
	  <point x="50" y="204"/>
	  <point x="50" y="193" type="curve" smooth="yes"/>
	  <point x="50" y="182"/>
	  <point x="59" y="172"/>
	  <point x="71" y="172" type="curve" smooth="yes"/>
	</contour>
	<contour>
	  <point x="128" y="303"/>
	  <point x="115" y="319"/>
	  <point x="115" y="339" type="curve" smooth="yes"/>
	  <point x="115" y="362"/>
	  <point x="139" y="374"/>
	  <point x="188" y="374" type="curve" smooth="yes"/>
	  <point x="239" y="374" type="line"/>
	  <point x="239" y="338" type="line"/>
	  <point x="218" y="315"/>
	  <point x="192" y="303"/>
	  <point x="162" y="303" type="curve" smooth="yes"/>
	</contour>
  </outline>
</glyph>
<glyph name="logicalnot" format="1">
  <advance width="434"/>
  <unicode hex="00AC"/>
  <outline>
	<contour>
	  <point x="359" y="126"/>
	  <point x="372" y="138"/>
	  <point x="372" y="154" type="curve" smooth="yes"/>
	  <point x="372" y="256" type="line" smooth="yes"/>
	  <point x="372" y="273"/>
	  <point x="358" y="287"/>
	  <point x="341" y="287" type="curve" smooth="yes"/>
	  <point x="82" y="287" type="line" smooth="yes"/>
	  <point x="67" y="287"/>
	  <point x="55" y="275"/>
	  <point x="55" y="260" type="curve" smooth="yes"/>
	  <point x="55" y="245"/>
	  <point x="67" y="233"/>
	  <point x="82" y="233" type="curve" smooth="yes"/>
	  <point x="316" y="233" type="line"/>
	  <point x="316" y="154" type="line" smooth="yes"/>
	  <point x="316" y="138"/>
	  <point x="328" y="126"/>
	  <point x="344" y="126" type="curve" smooth="yes"/>
	</contour>
  </outline>
</glyph>
<glyph name="registered" format="1">
  <advance width="614"/>
  <unicode hex="00AE"/>
  <outline>
	<contour>
	  <point x="382" y="-8"/>
	  <point x="449" y="23"/>
	  <point x="498" y="71" type="curve" smooth="yes"/>
	  <point x="546" y="120"/>
	  <point x="577" y="188"/>
	  <point x="577" y="262" type="curve" smooth="yes"/>
	  <point x="577" y="336"/>
	  <point x="546" y="404"/>
	  <point x="498" y="452" type="curve" smooth="yes"/>
	  <point x="449" y="500"/>
	  <point x="382" y="531"/>
	  <point x="308" y="531" type="curve" smooth="yes"/>
	  <point x="233" y="531"/>
	  <point x="166" y="500"/>
	  <point x="117" y="452" type="curve" smooth="yes"/>
	  <point x="68" y="404"/>
	  <point x="38" y="336"/>
	  <point x="38" y="262" type="curve" smooth="yes"/>
	  <point x="38" y="188"/>
	  <point x="68" y="120"/>
	  <point x="117" y="71" type="curve" smooth="yes"/>
	  <point x="166" y="23"/>
	  <point x="233" y="-8"/>
	  <point x="308" y="-8" type="curve" smooth="yes"/>
	</contour>
	<contour>
	  <point x="181" y="32"/>
	  <point x="77" y="134"/>
	  <point x="77" y="263" type="curve" smooth="yes"/>
	  <point x="77" y="389"/>
	  <point x="181" y="492"/>
	  <point x="307" y="492" type="curve" smooth="yes"/>
	  <point x="435" y="492"/>
	  <point x="538" y="389"/>
	  <point x="538" y="263" type="curve" smooth="yes"/>
	  <point x="538" y="199"/>
	  <point x="515" y="144"/>
	  <point x="470" y="99" type="curve" smooth="yes"/>
	  <point x="428" y="57"/>
	  <point x="371" y="32"/>
	  <point x="308" y="32" type="curve" smooth="yes"/>
	</contour>
	<contour>
	  <point x="235" y="109"/>
	  <point x="246" y="119"/>
	  <point x="246" y="134" type="curve" smooth="yes"/>
	  <point x="246" y="224" type="line"/>
	  <point x="328" y="224" type="line" smooth="yes"/>
	  <point x="375" y="224"/>
	  <point x="383" y="191"/>
	  <point x="383" y="148" type="curve" smooth="yes"/>
	  <point x="383" y="134" type="line" smooth="yes"/>
	  <point x="383" y="120"/>
	  <point x="394" y="109"/>
	  <point x="408" y="109" type="curve" smooth="yes"/>
	  <point x="422" y="109"/>
	  <point x="434" y="120"/>
	  <point x="434" y="134" type="curve" smooth="yes"/>
	  <point x="434" y="155" type="line" smooth="yes"/>
	  <point x="434" y="214"/>
	  <point x="406" y="240"/>
	  <point x="382" y="248" type="curve"/>
	  <point x="411" y="260"/>
	  <point x="437" y="281"/>
	  <point x="437" y="326" type="curve" smooth="yes"/>
	  <point x="437" y="371"/>
	  <point x="401" y="411"/>
	  <point x="320" y="411" type="curve" smooth="yes"/>
	  <point x="230" y="411" type="line" smooth="yes"/>
	  <point x="211" y="411"/>
	  <point x="196" y="395"/>
	  <point x="196" y="377" type="curve" smooth="yes"/>
	  <point x="196" y="134" type="line" smooth="yes"/>
	  <point x="196" y="119"/>
	  <point x="206" y="109"/>
	  <point x="221" y="109" type="curve" smooth="yes"/>
	</contour>
	<contour>
	  <point x="246" y="368" type="line"/>
	  <point x="316" y="368" type="line" smooth="yes"/>
	  <point x="371" y="368"/>
	  <point x="388" y="350"/>
	  <point x="388" y="318" type="curve" smooth="yes"/>
	  <point x="388" y="287"/>
	  <point x="359" y="269"/>
	  <point x="317" y="269" type="curve" smooth="yes"/>
	  <point x="246" y="269" type="line"/>
	</contour>
  </outline>
</glyph>
<glyph name="macron" format="1">
  <advance width="234"/>
  <unicode hex="00AF"/>
  <outline>
	<contour>
	  <point x="204" y="441" type="line" smooth="yes"/>
	  <point x="217" y="441"/>
	  <point x="227" y="451"/>
	  <point x="227" y="464" type="curve" smooth="yes"/>
	  <point x="227" y="476"/>
	  <point x="217" y="486"/>
	  <point x="204" y="486" type="curve" smooth="yes"/>
	  <point x="29" y="486" type="line" smooth="yes"/>
	  <point x="16" y="486"/>
	  <point x="6" y="476"/>
	  <point x="6" y="464" type="curve" smooth="yes"/>
	  <point x="6" y="451"/>
	  <point x="16" y="441"/>
	  <point x="29" y="441" type="curve" smooth="yes"/>
	</contour>
  </outline>
</glyph>
<glyph name="degree" format="1">
  <advance width="284"/>
  <unicode hex="00B0"/>
  <outline>
	<contour>
	  <point x="197" y="326"/>
	  <point x="245" y="371"/>
	  <point x="245" y="428" type="curve" smooth="yes"/>
	  <point x="245" y="485"/>
	  <point x="199" y="531"/>
	  <point x="142" y="531" type="curve" smooth="yes"/>
	  <point x="84" y="531"/>
	  <point x="39" y="483"/>
	  <point x="39" y="428" type="curve" smooth="yes"/>
	  <point x="39" y="372"/>
	  <point x="86" y="326"/>
	  <point x="142" y="326" type="curve" smooth="yes"/>
	</contour>
	<contour>
	  <point x="107" y="365"/>
	  <point x="78" y="393"/>
	  <point x="78" y="428" type="curve" smooth="yes"/>
	  <point x="78" y="464"/>
	  <point x="107" y="492"/>
	  <point x="142" y="492" type="curve" smooth="yes"/>
	  <point x="177" y="492"/>
	  <point x="206" y="464"/>
	  <point x="206" y="428" type="curve" smooth="yes"/>
	  <point x="206" y="393"/>
	  <point x="177" y="365"/>
	  <point x="142" y="365" type="curve" smooth="yes"/>
	</contour>
  </outline>
</glyph>
<glyph name="plusminus" format="1">
  <advance width="455"/>
  <unicode hex="00B1"/>
  <outline>
	<contour>
	  <point x="245" y="109"/>
	  <point x="257" y="121"/>
	  <point x="257" y="138" type="curve" smooth="yes"/>
	  <point x="257" y="257" type="line"/>
	  <point x="379" y="257" type="line" smooth="yes"/>
	  <point x="396" y="257"/>
	  <point x="408" y="268"/>
	  <point x="408" y="285" type="curve" smooth="yes"/>
	  <point x="408" y="302"/>
	  <point x="396" y="314"/>
	  <point x="379" y="314" type="curve" smooth="yes"/>
	  <point x="257" y="314" type="line"/>
	  <point x="257" y="433" type="line" smooth="yes"/>
	  <point x="257" y="450"/>
	  <point x="245" y="462"/>
	  <point x="227" y="462" type="curve" smooth="yes"/>
	  <point x="210" y="462"/>
	  <point x="198" y="450"/>
	  <point x="198" y="433" type="curve" smooth="yes"/>
	  <point x="198" y="314" type="line"/>
	  <point x="75" y="314" type="line" smooth="yes"/>
	  <point x="58" y="314"/>
	  <point x="47" y="302"/>
	  <point x="47" y="285" type="curve" smooth="yes"/>
	  <point x="47" y="268"/>
	  <point x="58" y="257"/>
	  <point x="75" y="257" type="curve" smooth="yes"/>
	  <point x="198" y="257" type="line"/>
	  <point x="198" y="138" type="line" smooth="yes"/>
	  <point x="198" y="121"/>
	  <point x="210" y="109"/>
	  <point x="227" y="109" type="curve" smooth="yes"/>
	</contour>
	<contour>
	  <point x="379" y="0" type="line" smooth="yes"/>
	  <point x="396" y="0"/>
	  <point x="408" y="11"/>
	  <point x="408" y="29" type="curve" smooth="yes"/>
	  <point x="408" y="46"/>
	  <point x="396" y="58"/>
	  <point x="379" y="58" type="curve" smooth="yes"/>
	  <point x="75" y="58" type="line" smooth="yes"/>
	  <point x="58" y="58"/>
	  <point x="47" y="46"/>
	  <point x="47" y="29" type="curve" smooth="yes"/>
	  <point x="47" y="11"/>
	  <point x="58" y="0"/>
	  <point x="75" y="0" type="curve" smooth="yes"/>
	</contour>
  </outline>
</glyph>
<glyph name="twosuperior" format="1">
  <advance width="278"/>
  <unicode hex="00B2"/>
  <outline>
	<contour>
	  <point x="223" y="338" type="line" smooth="yes"/>
	  <point x="236" y="338"/>
	  <point x="245" y="347"/>
	  <point x="245" y="360" type="curve" smooth="yes"/>
	  <point x="245" y="373"/>
	  <point x="236" y="383"/>
	  <point x="223" y="383" type="curve" smooth="yes"/>
	  <point x="80" y="383" type="line"/>
	  <point x="87" y="392"/>
	  <point x="105" y="406"/>
	  <point x="134" y="425" type="curve" smooth="yes"/>
	  <point x="146" y="433"/>
	  <point x="158" y="441"/>
	  <point x="171" y="450" type="curve" smooth="yes"/>
	  <point x="218" y="482"/>
	  <point x="242" y="515"/>
	  <point x="242" y="550" type="curve" smooth="yes"/>
	  <point x="242" y="600"/>
	  <point x="203" y="638"/>
	  <point x="137" y="638" type="curve" smooth="yes"/>
	  <point x="103" y="638"/>
	  <point x="74" y="630"/>
	  <point x="48" y="615" type="curve" smooth="yes"/>
	  <point x="39" y="610"/>
	  <point x="35" y="603"/>
	  <point x="35" y="596" type="curve" smooth="yes"/>
	  <point x="35" y="581"/>
	  <point x="44" y="573"/>
	  <point x="54" y="573" type="curve" smooth="yes"/>
	  <point x="59" y="573"/>
	  <point x="62" y="574"/>
	  <point x="65" y="575" type="curve" smooth="yes"/>
	  <point x="86" y="587"/>
	  <point x="112" y="592"/>
	  <point x="141" y="592" type="curve" smooth="yes"/>
	  <point x="178" y="592"/>
	  <point x="195" y="572"/>
	  <point x="195" y="549" type="curve" smooth="yes"/>
	  <point x="195" y="538"/>
	  <point x="191" y="527"/>
	  <point x="183" y="519" type="curve"/>
	  <point x="167" y="501"/>
	  <point x="141" y="485"/>
	  <point x="112" y="467" type="curve" smooth="yes"/>
	  <point x="98" y="458"/>
	  <point x="84" y="449"/>
	  <point x="72" y="439" type="curve" smooth="yes"/>
	  <point x="47" y="419"/>
	  <point x="29" y="395"/>
	  <point x="29" y="374" type="curve" smooth="yes"/>
	  <point x="29" y="352"/>
	  <point x="41" y="338"/>
	  <point x="58" y="338" type="curve" smooth="yes"/>
	</contour>
  </outline>
</glyph>
<glyph name="threesuperior" format="1">
  <advance width="278"/>
  <unicode hex="00B3"/>
  <outline>
	<contour>
	  <point x="152" y="334"/>
	  <point x="169" y="336"/>
	  <point x="183" y="341" type="curve" smooth="yes"/>
	  <point x="222" y="354"/>
	  <point x="242" y="380"/>
	  <point x="242" y="418" type="curve" smooth="yes"/>
	  <point x="242" y="455"/>
	  <point x="223" y="479"/>
	  <point x="185" y="491" type="curve"/>
	  <point x="206" y="499"/>
	  <point x="231" y="518"/>
	  <point x="231" y="560" type="curve" smooth="yes"/>
	  <point x="231" y="602"/>
	  <point x="200" y="638"/>
	  <point x="136" y="638" type="curve" smooth="yes"/>
	  <point x="104" y="638"/>
	  <point x="74" y="631"/>
	  <point x="47" y="617" type="curve" smooth="yes"/>
	  <point x="36" y="611"/>
	  <point x="31" y="604"/>
	  <point x="31" y="597" type="curve" smooth="yes"/>
	  <point x="31" y="583"/>
	  <point x="41" y="575"/>
	  <point x="50" y="575" type="curve" smooth="yes"/>
	  <point x="55" y="575"/>
	  <point x="59" y="576"/>
	  <point x="62" y="578" type="curve" smooth="yes"/>
	  <point x="80" y="587"/>
	  <point x="100" y="592"/>
	  <point x="120" y="592" type="curve" smooth="yes"/>
	  <point x="131" y="592"/>
	  <point x="140" y="591"/>
	  <point x="146" y="590" type="curve"/>
	  <point x="172" y="585"/>
	  <point x="185" y="573"/>
	  <point x="185" y="554" type="curve" smooth="yes"/>
	  <point x="185" y="525"/>
	  <point x="158" y="511"/>
	  <point x="106" y="511" type="curve" smooth="yes"/>
	  <point x="102" y="511" type="line" smooth="yes"/>
	  <point x="89" y="511"/>
	  <point x="80" y="501"/>
	  <point x="80" y="488" type="curve" smooth="yes"/>
	  <point x="80" y="476"/>
	  <point x="89" y="466"/>
	  <point x="102" y="466" type="curve" smooth="yes"/>
	  <point x="110" y="466" type="line" smooth="yes"/>
	  <point x="167" y="466"/>
	  <point x="194" y="450"/>
	  <point x="194" y="419" type="curve" smooth="yes"/>
	  <point x="194" y="393"/>
	  <point x="171" y="380"/>
	  <point x="125" y="380" type="curve" smooth="yes"/>
	  <point x="108" y="380"/>
	  <point x="86" y="384"/>
	  <point x="61" y="392" type="curve"/>
	  <point x="56" y="394"/>
	  <point x="50" y="395"/>
	  <point x="46" y="395" type="curve" smooth="yes"/>
	  <point x="39" y="395"/>
	  <point x="27" y="386"/>
	  <point x="27" y="371" type="curve" smooth="yes"/>
	  <point x="27" y="364"/>
	  <point x="32" y="358"/>
	  <point x="40" y="353" type="curve"/>
	  <point x="62" y="340"/>
	  <point x="93" y="334"/>
	  <point x="132" y="334" type="curve" smooth="yes"/>
	</contour>
  </outline>
</glyph>
<glyph name="acute" format="1">
  <advance width="180"/>
  <unicode hex="00B4"/>
  <outline>
	<contour>
	  <point x="63" y="425"/>
	  <point x="68" y="428"/>
	  <point x="73" y="434" type="curve" smooth="yes"/>
	  <point x="125" y="495" type="line"/>
	  <point x="130" y="500"/>
	  <point x="132" y="507"/>
	  <point x="132" y="514" type="curve" smooth="yes"/>
	  <point x="132" y="533"/>
	  <point x="122" y="542"/>
	  <point x="102" y="542" type="curve" smooth="yes"/>
	  <point x="92" y="542"/>
	  <point x="85" y="537"/>
	  <point x="80" y="527" type="curve" smooth="yes"/>
	  <point x="41" y="460" type="line"/>
	  <point x="38" y="456"/>
	  <point x="36" y="451"/>
	  <point x="36" y="443" type="curve" smooth="yes"/>
	  <point x="36" y="434"/>
	  <point x="44" y="425"/>
	  <point x="57" y="425" type="curve" smooth="yes"/>
	</contour>
  </outline>
</glyph>
<glyph name="mu" format="1">
  <advance width="453"/>
  <unicode hex="00B5"/>
  <outline>
	<contour>
	  <point x="116" y="-164"/>
	  <point x="131" y="-149"/>
	  <point x="131" y="-130" type="curve" smooth="yes"/>
	  <point x="131" y="13" type="line"/>
	  <point x="152" y="-1"/>
	  <point x="176" y="-8"/>
	  <point x="204" y="-8" type="curve" smooth="yes"/>
	  <point x="259" y="-8"/>
	  <point x="295" y="17"/>
	  <point x="337" y="62" type="curve"/>
	  <point x="337" y="31" type="line" smooth="yes"/>
	  <point x="337" y="11"/>
	  <point x="353" y="-4"/>
	  <point x="371" y="-4" type="curve" smooth="yes"/>
	  <point x="390" y="-4"/>
	  <point x="405" y="11"/>
	  <point x="405" y="31" type="curve" smooth="yes"/>
	  <point x="405" y="353" type="line" smooth="yes"/>
	  <point x="405" y="371"/>
	  <point x="390" y="386"/>
	  <point x="371" y="386" type="curve" smooth="yes"/>
	  <point x="353" y="386"/>
	  <point x="337" y="371"/>
	  <point x="337" y="353" type="curve" smooth="yes"/>
	  <point x="337" y="128" type="line"/>
	  <point x="299" y="80"/>
	  <point x="258" y="56"/>
	  <point x="214" y="56" type="curve" smooth="yes"/>
	  <point x="155" y="56"/>
	  <point x="131" y="90"/>
	  <point x="131" y="147" type="curve" smooth="yes"/>
	  <point x="131" y="353" type="line" smooth="yes"/>
	  <point x="131" y="371"/>
	  <point x="116" y="386"/>
	  <point x="98" y="386" type="curve" smooth="yes"/>
	  <point x="79" y="386"/>
	  <point x="63" y="371"/>
	  <point x="63" y="353" type="curve" smooth="yes"/>
	  <point x="63" y="-130" type="line" smooth="yes"/>
	  <point x="63" y="-149"/>
	  <point x="78" y="-164"/>
	  <point x="97" y="-164" type="curve" smooth="yes"/>
	</contour>
  </outline>
</glyph>
<glyph name="periodcentered" format="1">
  <advance width="195"/>
  <unicode hex="00B7"/>
  <outline>
	<contour>
	  <point x="101" y="170" type="line" smooth="yes"/>
	  <point x="125" y="170"/>
	  <point x="143" y="188"/>
	  <point x="143" y="212" type="curve" smooth="yes"/>
	  <point x="143" y="216" type="line" smooth="yes"/>
	  <point x="143" y="239"/>
	  <point x="125" y="258"/>
	  <point x="101" y="258" type="curve" smooth="yes"/>
	  <point x="94" y="258" type="line" smooth="yes"/>
	  <point x="71" y="258"/>
	  <point x="52" y="239"/>
	  <point x="52" y="216" type="curve" smooth="yes"/>
	  <point x="52" y="212" type="line" smooth="yes"/>
	  <point x="52" y="188"/>
	  <point x="71" y="170"/>
	  <point x="94" y="170" type="curve" smooth="yes"/>
	</contour>
  </outline>
</glyph>
<glyph name="cedilla" format="1">
  <advance width="230"/>
  <unicode hex="00B8"/>
  <outline>
	<contour>
	  <point x="165" y="-166"/>
	  <point x="193" y="-143"/>
	  <point x="193" y="-97" type="curve" smooth="yes"/>
	  <point x="193" y="-65"/>
	  <point x="167" y="-44"/>
	  <point x="141" y="-44" type="curve" smooth="yes"/>
	  <point x="128" y="-44"/>
	  <point x="118" y="-45"/>
	  <point x="110" y="-47" type="curve"/>
	  <point x="144" y="13" type="line"/>
	  <point x="113" y="13" type="line"/>
	  <point x="65" y="-64" type="line"/>
	  <point x="62" y="-67"/>
	  <point x="62" y="-70"/>
	  <point x="62" y="-74" type="curve" smooth="yes"/>
	  <point x="62" y="-81"/>
	  <point x="68" y="-86"/>
	  <point x="74" y="-86" type="curve" smooth="yes"/>
	  <point x="77" y="-86"/>
	  <point x="82" y="-84"/>
	  <point x="90" y="-80" type="curve"/>
	  <point x="96" y="-77"/>
	  <point x="105" y="-76"/>
	  <point x="117" y="-76" type="curve" smooth="yes"/>
	  <point x="130" y="-76"/>
	  <point x="143" y="-84"/>
	  <point x="143" y="-99" type="curve" smooth="yes"/>
	  <point x="143" y="-122"/>
	  <point x="128" y="-134"/>
	  <point x="100" y="-134" type="curve" smooth="yes"/>
	  <point x="86" y="-134"/>
	  <point x="71" y="-129"/>
	  <point x="56" y="-121" type="curve" smooth="yes"/>
	  <point x="53" y="-119"/>
	  <point x="50" y="-119"/>
	  <point x="48" y="-119" type="curve" smooth="yes"/>
	  <point x="38" y="-119"/>
	  <point x="34" y="-124"/>
	  <point x="34" y="-134" type="curve" smooth="yes"/>
	  <point x="34" y="-140"/>
	  <point x="37" y="-144"/>
	  <point x="42" y="-146" type="curve"/>
	  <point x="63" y="-159"/>
	  <point x="86" y="-166"/>
	  <point x="110" y="-166" type="curve" smooth="yes"/>
	</contour>
  </outline>
</glyph>
<glyph name="onesuperior" format="1">
  <advance width="278"/>
  <unicode hex="00B9"/>
  <outline>
	<contour>
	  <point x="212" y="338" type="line" smooth="yes"/>
	  <point x="224" y="338"/>
	  <point x="234" y="347"/>
	  <point x="234" y="360" type="curve" smooth="yes"/>
	  <point x="234" y="373"/>
	  <point x="224" y="383"/>
	  <point x="212" y="383" type="curve" smooth="yes"/>
	  <point x="174" y="383" type="line"/>
	  <point x="174" y="605" type="line" smooth="yes"/>
	  <point x="174" y="623"/>
	  <point x="161" y="637"/>
	  <point x="146" y="637" type="curve" smooth="yes"/>
	  <point x="138" y="637"/>
	  <point x="132" y="635"/>
	  <point x="127" y="633" type="curve"/>
	  <point x="73" y="605" type="line" smooth="yes"/>
	  <point x="63" y="600"/>
	  <point x="59" y="594"/>
	  <point x="59" y="587" type="curve" smooth="yes"/>
	  <point x="59" y="571"/>
	  <point x="70" y="562"/>
	  <point x="80" y="562" type="curve" smooth="yes"/>
	  <point x="84" y="562"/>
	  <point x="89" y="563"/>
	  <point x="92" y="565" type="curve"/>
	  <point x="126" y="581" type="line"/>
	  <point x="126" y="383" type="line"/>
	  <point x="81" y="383" type="line" smooth="yes"/>
	  <point x="68" y="383"/>
	  <point x="59" y="373"/>
	  <point x="59" y="360" type="curve" smooth="yes"/>
	  <point x="59" y="347"/>
	  <point x="68" y="338"/>
	  <point x="81" y="338" type="curve" smooth="yes"/>
	</contour>
  </outline>
</glyph>
<glyph name="ordmasculine" format="1">
  <advance width="386"/>
  <unicode hex="00BA"/>
  <outline>
	<contour>
	  <point x="273" y="254"/>
	  <point x="326" y="310"/>
	  <point x="326" y="393" type="curve" smooth="yes"/>
	  <point x="326" y="434"/>
	  <point x="314" y="468"/>
	  <point x="290" y="493" type="curve" smooth="yes"/>
	  <point x="266" y="517"/>
	  <point x="233" y="531"/>
	  <point x="192" y="531" type="curve" smooth="yes"/>
	  <point x="113" y="531"/>
	  <point x="59" y="476"/>
	  <point x="59" y="393" type="curve" smooth="yes"/>
	  <point x="59" y="310"/>
	  <point x="113" y="254"/>
	  <point x="193" y="254" type="curve" smooth="yes"/>
	</contour>
	<contour>
	  <point x="312" y="172" type="line" smooth="yes"/>
	  <point x="323" y="172"/>
	  <point x="333" y="182"/>
	  <point x="333" y="193" type="curve" smooth="yes"/>
	  <point x="333" y="204"/>
	  <point x="323" y="214"/>
	  <point x="312" y="214" type="curve" smooth="yes"/>
	  <point x="74" y="214" type="line" smooth="yes"/>
	  <point x="62" y="214"/>
	  <point x="53" y="204"/>
	  <point x="53" y="193" type="curve" smooth="yes"/>
	  <point x="53" y="182"/>
	  <point x="62" y="172"/>
	  <point x="74" y="172" type="curve" smooth="yes"/>
	</contour>
	<contour>
	  <point x="150" y="302"/>
	  <point x="113" y="333"/>
	  <point x="113" y="394" type="curve" smooth="yes"/>
	  <point x="113" y="454"/>
	  <point x="151" y="484"/>
	  <point x="193" y="484" type="curve" smooth="yes"/>
	  <point x="236" y="484"/>
	  <point x="272" y="453"/>
	  <point x="272" y="394" type="curve" smooth="yes"/>
	  <point x="272" y="377"/>
	  <point x="270" y="363"/>
	  <point x="265" y="352" type="curve" smooth="yes"/>
	  <point x="251" y="319"/>
	  <point x="227" y="302"/>
	  <point x="193" y="302" type="curve" smooth="yes"/>
	</contour>
  </outline>
</glyph>
<glyph name="onequarter" format="1">
  <advance width="705"/>
  <unicode hex="00BC"/>
  <outline>
	<contour>
	  <point x="207" y="-18"/>
	  <point x="213" y="-14"/>
	  <point x="218" y="-8" type="curve"/>
	  <point x="528" y="504" type="line"/>
	  <point x="530" y="509"/>
	  <point x="532" y="515"/>
	  <point x="532" y="521" type="curve" smooth="yes"/>
	  <point x="532" y="532"/>
	  <point x="521" y="543"/>
	  <point x="505" y="543" type="curve" smooth="yes"/>
	  <point x="497" y="543"/>
	  <point x="490" y="539"/>
	  <point x="485" y="533" type="curve"/>
	  <point x="175" y="21" type="line"/>
	  <point x="173" y="16"/>
	  <point x="171" y="11"/>
	  <point x="171" y="5" type="curve" smooth="yes"/>
	  <point x="171" y="-7"/>
	  <point x="182" y="-18"/>
	  <point x="199" y="-18" type="curve" smooth="yes"/>
	</contour>
	<contour>
	  <point x="217" y="233" type="line" smooth="yes"/>
	  <point x="230" y="233"/>
	  <point x="239" y="242"/>
	  <point x="239" y="254" type="curve" smooth="yes"/>
	  <point x="239" y="267"/>
	  <point x="230" y="277"/>
	  <point x="217" y="277" type="curve" smooth="yes"/>
	  <point x="179" y="277" type="line"/>
	  <point x="179" y="499" type="line" smooth="yes"/>
	  <point x="179" y="517"/>
	  <point x="166" y="531"/>
	  <point x="151" y="531" type="curve" smooth="yes"/>
	  <point x="143" y="531"/>
	  <point x="137" y="530"/>
	  <point x="132" y="527" type="curve"/>
	  <point x="78" y="500" type="line" smooth="yes"/>
	  <point x="68" y="494"/>
	  <point x="64" y="488"/>
	  <point x="64" y="481" type="curve" smooth="yes"/>
	  <point x="64" y="465"/>
	  <point x="75" y="456"/>
	  <point x="85" y="456" type="curve" smooth="yes"/>
	  <point x="89" y="456"/>
	  <point x="94" y="457"/>
	  <point x="98" y="459" type="curve"/>
	  <point x="131" y="476" type="line"/>
	  <point x="131" y="277" type="line"/>
	  <point x="86" y="277" type="line" smooth="yes"/>
	  <point x="74" y="277"/>
	  <point x="65" y="267"/>
	  <point x="65" y="254" type="curve" smooth="yes"/>
	  <point x="65" y="242"/>
	  <point x="74" y="233"/>
	  <point x="86" y="233" type="curve" smooth="yes"/>
	</contour>
	<contour>
	  <point x="591" y="-4"/>
	  <point x="601" y="6"/>
	  <point x="601" y="20" type="curve" smooth="yes"/>
	  <point x="601" y="72" type="line"/>
	  <point x="628" y="72" type="line" smooth="yes"/>
	  <point x="641" y="72"/>
	  <point x="650" y="81"/>
	  <point x="650" y="94" type="curve" smooth="yes"/>
	  <point x="650" y="107"/>
	  <point x="641" y="116"/>
	  <point x="628" y="116" type="curve" smooth="yes"/>
	  <point x="601" y="116" type="line"/>
	  <point x="601" y="266" type="line" smooth="yes"/>
	  <point x="601" y="283"/>
	  <point x="587" y="297"/>
	  <point x="569" y="297" type="curve" smooth="yes"/>
	  <point x="563" y="297" type="line" smooth="yes"/>
	  <point x="554" y="297"/>
	  <point x="545" y="292"/>
	  <point x="536" y="281" type="curve"/>
	  <point x="413" y="125" type="line" smooth="yes"/>
	  <point x="407" y="119"/>
	  <point x="404" y="111"/>
	  <point x="404" y="103" type="curve" smooth="yes"/>
	  <point x="404" y="87"/>
	  <point x="419" y="72"/>
	  <point x="436" y="72" type="curve" smooth="yes"/>
	  <point x="553" y="72" type="line"/>
	  <point x="553" y="20" type="line" smooth="yes"/>
	  <point x="553" y="6"/>
	  <point x="563" y="-4"/>
	  <point x="577" y="-4" type="curve" smooth="yes"/>
	</contour>
	<contour>
	  <point x="553" y="238" type="line"/>
	  <point x="553" y="116" type="line"/>
	  <point x="458" y="116" type="line"/>
	</contour>
  </outline>
</glyph>
<glyph name="onehalf" format="1">
  <advance width="705"/>
  <unicode hex="00BD"/>
  <outline>
	<contour>
	  <point x="203" y="-18"/>
	  <point x="209" y="-14"/>
	  <point x="213" y="-8" type="curve"/>
	  <point x="524" y="504" type="line"/>
	  <point x="526" y="509"/>
	  <point x="527" y="515"/>
	  <point x="527" y="521" type="curve" smooth="yes"/>
	  <point x="527" y="532"/>
	  <point x="517" y="543"/>
	  <point x="500" y="543" type="curve" smooth="yes"/>
	  <point x="492" y="543"/>
	  <point x="485" y="539"/>
	  <point x="481" y="533" type="curve"/>
	  <point x="170" y="21" type="line"/>
	  <point x="168" y="16"/>
	  <point x="167" y="11"/>
	  <point x="167" y="5" type="curve" smooth="yes"/>
	  <point x="167" y="-7"/>
	  <point x="178" y="-18"/>
	  <point x="194" y="-18" type="curve" smooth="yes"/>
	</contour>
	<contour>
	  <point x="212" y="233" type="line" smooth="yes"/>
	  <point x="225" y="233"/>
	  <point x="235" y="242"/>
	  <point x="235" y="254" type="curve" smooth="yes"/>
	  <point x="235" y="267"/>
	  <point x="225" y="277"/>
	  <point x="212" y="277" type="curve" smooth="yes"/>
	  <point x="175" y="277" type="line"/>
	  <point x="175" y="499" type="line" smooth="yes"/>
	  <point x="175" y="517"/>
	  <point x="161" y="531"/>
	  <point x="146" y="531" type="curve" smooth="yes"/>
	  <point x="139" y="531"/>
	  <point x="133" y="530"/>
	  <point x="128" y="527" type="curve"/>
	  <point x="74" y="500" type="line" smooth="yes"/>
	  <point x="64" y="494"/>
	  <point x="59" y="488"/>
	  <point x="59" y="481" type="curve" smooth="yes"/>
	  <point x="59" y="465"/>
	  <point x="71" y="456"/>
	  <point x="80" y="456" type="curve" smooth="yes"/>
	  <point x="85" y="456"/>
	  <point x="89" y="457"/>
	  <point x="93" y="459" type="curve"/>
	  <point x="127" y="476" type="line"/>
	  <point x="127" y="277" type="line"/>
	  <point x="82" y="277" type="line" smooth="yes"/>
	  <point x="69" y="277"/>
	  <point x="60" y="267"/>
	  <point x="60" y="254" type="curve" smooth="yes"/>
	  <point x="60" y="242"/>
	  <point x="69" y="233"/>
	  <point x="82" y="233" type="curve" smooth="yes"/>
	</contour>
	<contour>
	  <point x="626" y="0" type="line" smooth="yes"/>
	  <point x="639" y="0"/>
	  <point x="649" y="9"/>
	  <point x="649" y="22" type="curve" smooth="yes"/>
	  <point x="649" y="35"/>
	  <point x="639" y="44"/>
	  <point x="626" y="44" type="curve" smooth="yes"/>
	  <point x="484" y="44" type="line"/>
	  <point x="491" y="53"/>
	  <point x="509" y="68"/>
	  <point x="538" y="87" type="curve" smooth="yes"/>
	  <point x="550" y="95"/>
	  <point x="562" y="103"/>
	  <point x="575" y="111" type="curve" smooth="yes"/>
	  <point x="622" y="143"/>
	  <point x="646" y="177"/>
	  <point x="646" y="212" type="curve" smooth="yes"/>
	  <point x="646" y="262"/>
	  <point x="607" y="299"/>
	  <point x="540" y="299" type="curve" smooth="yes"/>
	  <point x="506" y="299"/>
	  <point x="477" y="292"/>
	  <point x="452" y="277" type="curve" smooth="yes"/>
	  <point x="443" y="272"/>
	  <point x="438" y="265"/>
	  <point x="438" y="257" type="curve" smooth="yes"/>
	  <point x="438" y="242"/>
	  <point x="448" y="235"/>
	  <point x="458" y="235" type="curve" smooth="yes"/>
	  <point x="462" y="235"/>
	  <point x="466" y="236"/>
	  <point x="469" y="237" type="curve" smooth="yes"/>
	  <point x="490" y="248"/>
	  <point x="515" y="254"/>
	  <point x="545" y="254" type="curve" smooth="yes"/>
	  <point x="581" y="254"/>
	  <point x="599" y="233"/>
	  <point x="599" y="211" type="curve" smooth="yes"/>
	  <point x="599" y="200"/>
	  <point x="595" y="189"/>
	  <point x="587" y="181" type="curve"/>
	  <point x="570" y="163"/>
	  <point x="545" y="146"/>
	  <point x="515" y="128" type="curve" smooth="yes"/>
	  <point x="501" y="119"/>
	  <point x="488" y="110"/>
	  <point x="476" y="101" type="curve" smooth="yes"/>
	  <point x="451" y="81"/>
	  <point x="432" y="56"/>
	  <point x="432" y="35" type="curve" smooth="yes"/>
	  <point x="432" y="14"/>
	  <point x="444" y="0"/>
	  <point x="461" y="0" type="curve" smooth="yes"/>
	</contour>
  </outline>
</glyph>
